Lateef-Regular.ufo
<glyph name="exclam.arab" format="2">
  <advance width="418"/>
  <unicode hex="0021"/>
  <outline>
    <contour>
      <point x="293" y="1054" type="curve"/>
      <point x="128" y="965" type="line"/>
      <point x="124" y="721"/>
      <point x="155" y="483"/>
      <point x="194" y="248" type="curve"/>
      <point x="219" y="254" type="line"/>
      <point x="223" y="513"/>
      <point x="241" y="779"/>
    </contour>
    <component base="_dot1" xOffset="209" yOffset="102"/>
  </outline>
</glyph>
<glyph name="exclam" format="2">
  <advance width="412"/>
  <unicode hex="0021"/>
  <outline>
    <component base="_dot_punct" yOffset="89"/>
    <contour>
      <point x="291" y="1100" type="curve"/>
      <point x="126" y="1011" type="line"/>
      <point x="122" y="767"/>
      <point x="153" y="533"/>
      <point x="192" y="298" type="curve"/>
      <point x="217" y="304" type="line"/>
      <point x="221" y="563"/>
      <point x="239" y="825"/>
    </contour>
  </outline>
</glyph>
<glyph name="numbersign" format="2">
  <advance width="850"/>
  <unicode hex="0023"/>
  <note>
numbersign
</note>
  <outline>
    <contour>
      <point x="420" y="0" type="line"/>
      <point x="510" y="0" type="line"/>
      <point x="707" y="942" type="line"/>
      <point x="617" y="942" type="line"/>
    </contour>
    <contour>
      <point x="52" y="271" type="line"/>
      <point x="767" y="271" type="line"/>
      <point x="767" y="356" type="line"/>
      <point x="52" y="356" type="line"/>
    </contour>
    <contour>
      <point x="141" y="0" type="line"/>
      <point x="231" y="0" type="line"/>
      <point x="428" y="942" type="line"/>
      <point x="340" y="942" type="line"/>
    </contour>
    <contour>
      <point x="81" y="585" type="line"/>
      <point x="796" y="585" type="line"/>
      <point x="796" y="670" type="line"/>
      <point x="81" y="670" type="line"/>
    </contour>
  </outline>
</glyph>
<glyph name="percent" format="2">
  <advance width="1231"/>
  <unicode hex="0025"/>
  <note>
percent
</note>
  <outline>
    <contour>
      <point x="285" y="-20" type="line"/>
      <point x="1028" y="895" type="line"/>
      <point x="946" y="964" type="line"/>
      <point x="205" y="48" type="line"/>
    </contour>
    <contour>
      <point x="316" y="459" type="curve" smooth="yes"/>
      <point x="457" y="459"/>
      <point x="574" y="566"/>
      <point x="574" y="707" type="curve" smooth="yes"/>
      <point x="574" y="853"/>
      <point x="463" y="954"/>
      <point x="316" y="954" type="curve" smooth="yes"/>
      <point x="176" y="954"/>
      <point x="57" y="845"/>
      <point x="57" y="707" type="curve" smooth="yes"/>
      <point x="57" y="561"/>
      <point x="166" y="459"/>
    </contour>
    <contour>
      <point x="317" y="566" type="curve" smooth="yes"/>
      <point x="240" y="566"/>
      <point x="184" y="624"/>
      <point x="184" y="709" type="curve" smooth="yes"/>
      <point x="184" y="792"/>
      <point x="240" y="849"/>
      <point x="317" y="849" type="curve" smooth="yes"/>
      <point x="393" y="849"/>
      <point x="454" y="794"/>
      <point x="454" y="709" type="curve" smooth="yes"/>
      <point x="454" y="622"/>
      <point x="393" y="566"/>
    </contour>
    <contour>
      <point x="916" y="-11" type="curve" smooth="yes"/>
      <point x="1057" y="-11"/>
      <point x="1174" y="94"/>
      <point x="1174" y="235" type="curve" smooth="yes"/>
      <point x="1174" y="381"/>
      <point x="1064" y="483"/>
      <point x="916" y="483" type="curve" smooth="yes"/>
      <point x="776" y="483"/>
      <point x="658" y="373"/>
      <point x="658" y="235" type="curve" smooth="yes"/>
      <point x="658" y="89"/>
      <point x="767" y="-11"/>
    </contour>
    <contour>
      <point x="916" y="96" type="curve" smooth="yes"/>
      <point x="841" y="96"/>
      <point x="784" y="152"/>
      <point x="784" y="237" type="curve" smooth="yes"/>
      <point x="784" y="321"/>
      <point x="841" y="378"/>
      <point x="916" y="378" type="curve" smooth="yes"/>
      <point x="993" y="378"/>
      <point x="1054" y="322"/>
      <point x="1054" y="237" type="curve" smooth="yes"/>
      <point x="1054" y="150"/>
      <point x="993" y="96"/>
    </contour>
  </outline>
</glyph>
<glyph name="ampersand" format="2">
  <advance width="1176"/>
  <unicode hex="0026"/>
  <note>
ampersand
</note>
  <outline>
    <contour>
      <point x="407" y="-12" type="curve" smooth="yes"/>
      <point x="661" y="-12"/>
      <point x="834" y="142"/>
      <point x="990" y="451" type="curve"/>
      <point x="1102" y="470" type="line"/>
      <point x="1097" y="537" type="line"/>
      <point x="751" y="536" type="line"/>
      <point x="747" y="468" type="line"/>
      <point x="860" y="451" type="line"/>
      <point x="765" y="189"/>
      <point x="638" y="93"/>
      <point x="459" y="93" type="curve" smooth="yes"/>
      <point x="312" y="93"/>
      <point x="229" y="166"/>
      <point x="229" y="272" type="curve" smooth="yes"/>
      <point x="229" y="362"/>
      <point x="277" y="436"/>
      <point x="418" y="507" type="curve"/>
      <point x="667" y="627"/>
      <point x="759" y="731"/>
      <point x="759" y="863" type="curve" smooth="yes"/>
      <point x="759" y="993"/>
      <point x="664" y="1072"/>
      <point x="521" y="1072" type="curve" smooth="yes"/>
      <point x="354" y="1072"/>
      <point x="234" y="946"/>
      <point x="234" y="783" type="curve" smooth="yes"/>
      <point x="234" y="645"/>
      <point x="295" y="534"/>
      <point x="449" y="324" type="curve" smooth="yes"/>
      <point x="617" y="96"/>
      <point x="755" y="-12"/>
      <point x="946" y="-12" type="curve" smooth="yes"/>
      <point x="1052" y="-12"/>
      <point x="1139" y="27"/>
      <point x="1197" y="102" type="curve"/>
      <point x="1160" y="149" type="line"/>
      <point x="1109" y="112"/>
      <point x="1062" y="96"/>
      <point x="1006" y="96" type="curve" smooth="yes"/>
      <point x="863" y="96"/>
      <point x="744" y="195"/>
      <point x="589" y="406" type="curve" smooth="yes"/>
      <point x="444" y="598"/>
      <point x="385" y="704"/>
      <point x="385" y="829" type="curve" smooth="yes"/>
      <point x="385" y="937"/>
      <point x="442" y="993"/>
      <point x="515" y="993" type="curve" smooth="yes"/>
      <point x="574" y="993"/>
      <point x="622" y="948"/>
      <point x="622" y="860" type="curve" smooth="yes"/>
      <point x="622" y="749"/>
      <point x="561" y="664"/>
      <point x="375" y="568" type="curve"/>
      <point x="141" y="476"/>
      <point x="56" y="356"/>
      <point x="56" y="239" type="curve" smooth="yes"/>
      <point x="56" y="104"/>
      <point x="168" y="-12"/>
    </contour>
  </outline>
</glyph>
<glyph name="quotesingle" format="2">
  <advance width="401"/>
  <unicode hex="0027"/>
  <note>
quotesingle
</note>
  <outline>
    <contour>
      <point x="200" y="1120" type="curve" smooth="yes"/>
      <point x="139" y="1120"/>
      <point x="94" y="1076"/>
      <point x="94" y="987" type="curve" smooth="yes"/>
      <point x="94" y="911"/>
      <point x="146" y="738"/>
      <point x="171" y="640" type="curve"/>
      <point x="231" y="640" type="line"/>
      <point x="255" y="738"/>
      <point x="306" y="911"/>
      <point x="306" y="987" type="curve" smooth="yes"/>
      <point x="306" y="1076"/>
      <point x="261" y="1120"/>
    </contour>
  </outline>
</glyph>
<glyph name="parenleft.arab" format="2">
  <advance width="412"/>
  <unicode hex="0028"/>
  <outline>
    <contour>
      <point x="412" y="0" type="line"/>
      <point x="271" y="133"/>
      <point x="200" y="347"/>
      <point x="200" y="566" type="curve" smooth="yes"/>
      <point x="200" y="760"/>
      <point x="255" y="958"/>
      <point x="366" y="1110" type="curve"/>
      <point x="354" y="1120" type="line"/>
      <point x="181" y="916"/>
      <point x="80" y="647"/>
      <point x="80" y="396" type="curve" smooth="yes"/>
      <point x="80" y="196"/>
      <point x="144" y="8"/>
      <point x="285" y="-128" type="curve"/>
    </contour>
  </outline>
</glyph>
<glyph name="parenright" format="2">
  <advance width="412"/>
  <unicode hex="0029"/>
  <outline>
    <contour>
      <point x="0" y="1002" type="line"/>
      <point x="141" y="869"/>
      <point x="212" y="655"/>
      <point x="212" y="436" type="curve" smooth="yes"/>
      <point x="212" y="242"/>
      <point x="157" y="44"/>
      <point x="46" y="-108" type="curve"/>
      <point x="58" y="-118" type="line"/>
      <point x="231" y="86"/>
      <point x="332" y="355"/>
      <point x="332" y="606" type="curve" smooth="yes"/>
      <point x="332" y="806"/>
      <point x="268" y="994"/>
      <point x="127" y="1130" type="curve"/>
    </contour>
  </outline>
</glyph>
<glyph name="asterisk" format="2">
  <advance width="738"/>
  <unicode hex="002A"/>
  <note>
asterisk
</note>
  <outline>
    <contour>
      <point x="666" y="897" type="curve" smooth="yes"/>
      <point x="654" y="935"/>
      <point x="617" y="956"/>
      <point x="569" y="938" type="curve" smooth="yes"/>
      <point x="516" y="922"/>
      <point x="455" y="874"/>
      <point x="401" y="845" type="curve"/>
      <point x="412" y="906"/>
      <point x="438" y="983"/>
      <point x="438" y="1040" type="curve" smooth="yes"/>
      <point x="438" y="1093"/>
      <point x="409" y="1120"/>
      <point x="369" y="1120" type="curve" smooth="yes"/>
      <point x="329" y="1120"/>
      <point x="298" y="1093"/>
      <point x="298" y="1040" type="curve" smooth="yes"/>
      <point x="298" y="983"/>
      <point x="325" y="906"/>
      <point x="335" y="845" type="curve"/>
      <point x="282" y="876"/>
      <point x="219" y="922"/>
      <point x="170" y="938" type="curve" smooth="yes"/>
      <point x="118" y="956"/>
      <point x="83" y="935"/>
      <point x="72" y="897" type="curve" smooth="yes"/>
      <point x="59" y="858"/>
      <point x="75" y="821"/>
      <point x="125" y="807" type="curve" smooth="yes"/>
      <point x="174" y="789"/>
      <point x="250" y="789"/>
      <point x="311" y="783" type="curve"/>
      <point x="264" y="739"/>
      <point x="199" y="694"/>
      <point x="166" y="651" type="curve" smooth="yes"/>
      <point x="138" y="606"/>
      <point x="144" y="568"/>
      <point x="176" y="545" type="curve" smooth="yes"/>
      <point x="210" y="521"/>
      <point x="250" y="524"/>
      <point x="280" y="568" type="curve" smooth="yes"/>
      <point x="316" y="614"/>
      <point x="340" y="699"/>
      <point x="369" y="755" type="curve"/>
      <point x="398" y="699"/>
      <point x="420" y="614"/>
      <point x="455" y="568" type="curve" smooth="yes"/>
      <point x="487" y="524"/>
      <point x="528" y="520"/>
      <point x="558" y="545" type="curve" smooth="yes"/>
      <point x="592" y="569"/>
      <point x="601" y="606"/>
      <point x="569" y="651" type="curve" smooth="yes"/>
      <point x="537" y="694"/>
      <point x="471" y="739"/>
      <point x="425" y="783" type="curve"/>
      <point x="486" y="789"/>
      <point x="561" y="788"/>
      <point x="611" y="807" type="curve" smooth="yes"/>
      <point x="662" y="823"/>
      <point x="678" y="858"/>
    </contour>
  </outline>
</glyph>
<glyph name="plus" format="2">
  <advance width="866"/>
  <unicode hex="002B"/>
  <outline>
    <contour>
      <point x="778" y="462" type="line"/>
      <point x="88" y="462" type="line"/>
      <point x="88" y="353" type="line"/>
      <point x="778" y="353" type="line"/>
    </contour>
    <contour>
      <point x="378" y="755" type="line"/>
      <point x="378" y="59" type="line"/>
      <point x="489" y="59" type="line"/>
      <point x="489" y="755" type="line"/>
    </contour>
  </outline>
</glyph>
<glyph name="comma" format="2">
  <advance width="401"/>
  <unicode hex="002C"/>
  <note>
comma
</note>
  <outline>
    <contour>
      <point x="70" y="-300" type="line"/>
      <point x="229" y="-237"/>
      <point x="325" y="-96"/>
      <point x="325" y="44" type="curve" smooth="yes"/>
      <point x="325" y="162"/>
      <point x="261" y="211"/>
      <point x="199" y="211" type="curve" smooth="yes"/>
      <point x="133" y="211"/>
      <point x="88" y="163"/>
      <point x="88" y="110" type="curve" smooth="yes"/>
      <point x="88" y="11"/>
      <point x="190" y="17"/>
      <point x="190" y="-75" type="curve" smooth="yes"/>
      <point x="190" y="-147"/>
      <point x="142" y="-203"/>
      <point x="44" y="-247" type="curve"/>
    </contour>
  </outline>
</glyph>
<glyph name="hyphen" format="2">
  <advance width="609"/>
  <unicode hex="002D"/>
  <note>
hyphen
</note>
  <outline>
    <contour>
      <point x="126" y="268" type="line"/>
      <point x="483" y="316" type="line"/>
      <point x="483" y="444" type="line"/>
      <point x="126" y="394" type="line"/>
    </contour>
  </outline>
</glyph>
<glyph name="period" format="2">
  <advance width="401"/>
  <unicode hex="002E"/>
  <note>
period
</note>
  <outline>
    <contour>
      <point x="200" y="-16" type="curve" smooth="yes"/>
      <point x="268" y="-16"/>
      <point x="317" y="32"/>
      <point x="317" y="97" type="curve" smooth="yes"/>
      <point x="317" y="162"/>
      <point x="268" y="211"/>
      <point x="200" y="211" type="curve" smooth="yes"/>
      <point x="134" y="211"/>
      <point x="85" y="162"/>
      <point x="85" y="97" type="curve" smooth="yes"/>
      <point x="85" y="32"/>
      <point x="134" y="-16"/>
    </contour>
  </outline>
</glyph>
<glyph name="slash" format="2">
  <advance width="613"/>
  <unicode hex="002F"/>
  <note>
slash
</note>
  <outline>
    <contour>
      <point x="36" y="-288" type="line"/>
      <point x="157" y="-288" type="line"/>
      <point x="640" y="1168" type="line"/>
      <point x="520" y="1168" type="line"/>
    </contour>
  </outline>
</glyph>
<glyph name="zero" format="2">
  <advance width="813"/>
  <unicode hex="0030"/>
  <note>
zero
</note>
  <outline>
    <contour>
      <point x="414" y="-14" type="curve" smooth="yes"/>
      <point x="607" y="-14"/>
      <point x="757" y="200"/>
      <point x="757" y="479" type="curve" smooth="yes"/>
      <point x="757" y="765"/>
      <point x="620" y="956"/>
      <point x="417" y="956" type="curve" smooth="yes"/>
      <point x="204" y="956"/>
      <point x="56" y="754"/>
      <point x="56" y="465" type="curve" smooth="yes"/>
      <point x="56" y="178"/>
      <point x="199" y="-14"/>
    </contour>
    <contour>
      <point x="425" y="78" type="curve" smooth="yes"/>
      <point x="312" y="78"/>
      <point x="239" y="245"/>
      <point x="239" y="499" type="curve" smooth="yes"/>
      <point x="239" y="738"/>
      <point x="297" y="871"/>
      <point x="402" y="871" type="curve" smooth="yes"/>
      <point x="511" y="871"/>
      <point x="579" y="704"/>
      <point x="579" y="439" type="curve" smooth="yes"/>
      <point x="579" y="208"/>
      <point x="524" y="78"/>
    </contour>
  </outline>
</glyph>
<glyph name="one" format="2">
  <advance width="813"/>
  <unicode hex="0031"/>
  <note>
one
</note>
  <outline>
    <contour>
      <point x="492" y="329" type="curve" smooth="yes"/>
      <point x="492" y="624" type="line" smooth="yes"/>
      <point x="492" y="780"/>
      <point x="495" y="885"/>
      <point x="500" y="959" type="curve"/>
      <point x="179" y="828" type="line"/>
      <point x="184" y="749" type="line"/>
      <point x="327" y="780" type="line"/>
      <point x="332" y="735"/>
      <point x="335" y="661"/>
      <point x="335" y="593" type="curve" smooth="yes"/>
      <point x="335" y="329" type="line" smooth="yes"/>
      <point x="335" y="207"/>
      <point x="330" y="107"/>
      <point x="327" y="89" type="curve"/>
      <point x="197" y="65" type="line"/>
      <point x="202" y="0" type="line"/>
      <point x="629" y="0" type="line"/>
      <point x="634" y="65" type="line"/>
      <point x="502" y="89" type="line"/>
      <point x="497" y="102"/>
      <point x="492" y="186"/>
    </contour>
  </outline>
</glyph>
<glyph name="two" format="2">
  <advance width="813"/>
  <unicode hex="0032"/>
  <note>
two
</note>
  <outline>
    <contour>
      <point x="93" y="-3" type="line"/>
      <point x="133" y="-1"/>
      <point x="173" y="0"/>
      <point x="213" y="0" type="curve" smooth="yes"/>
      <point x="534" y="0" type="line" smooth="yes"/>
      <point x="594" y="0"/>
      <point x="664" y="-1"/>
      <point x="717" y="-6" type="curve"/>
      <point x="759" y="261" type="line"/>
      <point x="682" y="269" type="line"/>
      <point x="630" y="142" type="line"/>
      <point x="611" y="138"/>
      <point x="590" y="136"/>
      <point x="561" y="136" type="curve" smooth="yes"/>
      <point x="244" y="136" type="line"/>
      <point x="242" y="113" type="line"/>
      <point x="520" y="304"/>
      <point x="667" y="499"/>
      <point x="667" y="674" type="curve" smooth="yes"/>
      <point x="667" y="842"/>
      <point x="542" y="956"/>
      <point x="367" y="956" type="curve" smooth="yes"/>
      <point x="226" y="956"/>
      <point x="109" y="876"/>
      <point x="54" y="739" type="curve"/>
      <point x="107" y="701" type="line"/>
      <point x="159" y="784"/>
      <point x="229" y="826"/>
      <point x="314" y="826" type="curve" smooth="yes"/>
      <point x="425" y="826"/>
      <point x="492" y="752"/>
      <point x="492" y="638" type="curve" smooth="yes"/>
      <point x="492" y="473"/>
      <point x="383" y="314"/>
      <point x="88" y="62" type="curve"/>
    </contour>
  </outline>
</glyph>
<glyph name="three" format="2">
  <advance width="813"/>
  <unicode hex="0033"/>
  <note>
three
</note>
  <outline>
    <contour>
      <point x="410" y="495" type="line"/>
      <point x="554" y="539"/>
      <point x="654" y="625"/>
      <point x="654" y="746" type="curve" smooth="yes"/>
      <point x="654" y="868"/>
      <point x="553" y="956"/>
      <point x="397" y="956" type="curve" smooth="yes"/>
      <point x="264" y="956"/>
      <point x="148" y="885"/>
      <point x="97" y="772" type="curve"/>
      <point x="148" y="735" type="line"/>
      <point x="195" y="797"/>
      <point x="262" y="829"/>
      <point x="336" y="829" type="curve" smooth="yes"/>
      <point x="429" y="829"/>
      <point x="489" y="781"/>
      <point x="489" y="699" type="curve" smooth="yes"/>
      <point x="489" y="598"/>
      <point x="405" y="531"/>
      <point x="254" y="513" type="curve"/>
      <point x="264" y="433" type="line"/>
      <point x="290" y="438"/>
      <point x="318" y="439"/>
      <point x="349" y="439" type="curve" smooth="yes"/>
      <point x="473" y="439"/>
      <point x="550" y="370"/>
      <point x="550" y="260" type="curve" smooth="yes"/>
      <point x="550" y="128"/>
      <point x="442" y="46"/>
      <point x="301" y="72" type="curve"/>
      <point x="368" y="48" type="line"/>
      <point x="264" y="138" type="line" smooth="yes"/>
      <point x="224" y="173"/>
      <point x="203" y="182"/>
      <point x="166" y="182" type="curve" smooth="yes"/>
      <point x="127" y="182"/>
      <point x="99" y="152"/>
      <point x="99" y="113" type="curve" smooth="yes"/>
      <point x="99" y="38"/>
      <point x="196" y="-14"/>
      <point x="333" y="-14" type="curve" smooth="yes"/>
      <point x="554" y="-14"/>
      <point x="716" y="126"/>
      <point x="716" y="284" type="curve" smooth="yes"/>
      <point x="716" y="426"/>
      <point x="606" y="515"/>
      <point x="423" y="521" type="curve"/>
    </contour>
  </outline>
</glyph>
<glyph name="four" format="2">
  <advance width="813"/>
  <unicode hex="0034"/>
  <note>
four
</note>
  <outline>
    <contour>
      <point x="629" y="256" type="curve"/>
      <point x="627" y="699" type="line"/>
      <point x="627" y="786"/>
      <point x="629" y="871"/>
      <point x="632" y="948" type="curve"/>
      <point x="550" y="948" type="line"/>
      <point x="44" y="317" type="line"/>
      <point x="57" y="256" type="line"/>
      <point x="768" y="256" type="line"/>
      <point x="768" y="369" type="line"/>
      <point x="171" y="369" type="line"/>
      <point x="174" y="335" type="line"/>
      <point x="500" y="768" type="line"/>
      <point x="473" y="778" type="line"/>
      <point x="473" y="256" type="line"/>
      <point x="473" y="142"/>
      <point x="473" y="110"/>
      <point x="471" y="89" type="curve"/>
      <point x="338" y="65" type="line"/>
      <point x="343" y="0" type="line"/>
      <point x="726" y="0" type="line"/>
      <point x="731" y="65" type="line"/>
      <point x="632" y="89" type="line"/>
      <point x="630" y="110"/>
      <point x="629" y="142"/>
    </contour>
  </outline>
</glyph>
<glyph name="five" format="2">
  <advance width="813"/>
  <unicode hex="0035"/>
  <note>
five
</note>
  <outline>
    <contour>
      <point x="329" y="-14" type="curve" smooth="yes"/>
      <point x="550" y="-14"/>
      <point x="716" y="123"/>
      <point x="716" y="284" type="curve" smooth="yes"/>
      <point x="716" y="460"/>
      <point x="570" y="558"/>
      <point x="241" y="592" type="curve"/>
      <point x="286" y="529" type="line"/>
      <point x="314" y="797" type="line"/>
      <point x="656" y="797" type="line"/>
      <point x="669" y="942" type="line"/>
      <point x="241" y="942" type="line"/>
      <point x="183" y="455" type="line"/>
      <point x="462" y="423"/>
      <point x="549" y="369"/>
      <point x="549" y="243" type="curve" smooth="yes"/>
      <point x="549" y="126"/>
      <point x="440" y="44"/>
      <point x="298" y="72" type="curve"/>
      <point x="367" y="48" type="line"/>
      <point x="260" y="138" type="line" smooth="yes"/>
      <point x="218" y="173"/>
      <point x="200" y="182"/>
      <point x="165" y="182" type="curve" smooth="yes"/>
      <point x="125" y="182"/>
      <point x="96" y="154"/>
      <point x="96" y="113" type="curve" smooth="yes"/>
      <point x="96" y="38"/>
      <point x="194" y="-14"/>
    </contour>
  </outline>
</glyph>
<glyph name="six" format="2">
  <advance width="813"/>
  <unicode hex="0036"/>
  <note>
six
</note>
  <outline>
    <contour>
      <point x="217" y="401" type="curve"/>
      <point x="221" y="335" type="line"/>
      <point x="261" y="399"/>
      <point x="328" y="444"/>
      <point x="405" y="444" type="curve" smooth="yes"/>
      <point x="505" y="444"/>
      <point x="572" y="367"/>
      <point x="572" y="250" type="curve" smooth="yes"/>
      <point x="572" y="144"/>
      <point x="511" y="69"/>
      <point x="425" y="69" type="curve" smooth="yes"/>
      <point x="317" y="69"/>
      <point x="246" y="181"/>
      <point x="246" y="345" type="curve" smooth="yes"/>
      <point x="246" y="640"/>
      <point x="391" y="818"/>
      <point x="681" y="890" type="curve"/>
      <point x="656" y="971" type="line"/>
      <point x="296" y="921"/>
      <point x="73" y="659"/>
      <point x="73" y="351" type="curve" smooth="yes"/>
      <point x="73" y="134"/>
      <point x="208" y="-14"/>
      <point x="412" y="-14" type="curve" smooth="yes"/>
      <point x="593" y="-14"/>
      <point x="739" y="125"/>
      <point x="739" y="296" type="curve" smooth="yes"/>
      <point x="739" y="451"/>
      <point x="620" y="566"/>
      <point x="466" y="566" type="curve" smooth="yes"/>
      <point x="373" y="566"/>
      <point x="277" y="500"/>
    </contour>
  </outline>
</glyph>
<glyph name="seven" format="2">
  <advance width="813"/>
  <unicode hex="0037"/>
  <note>
seven
</note>
  <outline>
    <contour>
      <point x="387" y="0" type="line"/>
      <point x="743" y="879" type="line"/>
      <point x="737" y="943" type="line"/>
      <point x="697" y="943"/>
      <point x="653" y="942"/>
      <point x="618" y="942" type="curve" smooth="yes"/>
      <point x="287" y="942" type="line" smooth="yes"/>
      <point x="226" y="942"/>
      <point x="164" y="943"/>
      <point x="106" y="948" type="curve"/>
      <point x="69" y="674" type="line"/>
      <point x="145" y="666" type="line"/>
      <point x="188" y="789" type="line"/>
      <point x="204" y="792"/>
      <point x="233" y="794"/>
      <point x="255" y="794" type="curve" smooth="yes"/>
      <point x="644" y="794" type="line"/>
      <point x="644" y="853" type="line"/>
      <point x="246" y="52" type="line"/>
      <point x="246" y="0" type="line"/>
    </contour>
  </outline>
</glyph>
<glyph name="eight" format="2">
  <advance width="813"/>
  <unicode hex="0038"/>
  <note>
eight
</note>
  <outline>
    <contour>
      <point x="397" y="-14" type="curve" smooth="yes"/>
      <point x="613" y="-14"/>
      <point x="757" y="97"/>
      <point x="757" y="260" type="curve" smooth="yes"/>
      <point x="757" y="558"/>
      <point x="255" y="497"/>
      <point x="255" y="739" type="curve" smooth="yes"/>
      <point x="255" y="823"/>
      <point x="319" y="874"/>
      <point x="406" y="874" type="curve" smooth="yes"/>
      <point x="508" y="874"/>
      <point x="568" y="807"/>
      <point x="568" y="701" type="curve" smooth="yes"/>
      <point x="568" y="621"/>
      <point x="544" y="561"/>
      <point x="481" y="492" type="curve"/>
      <point x="510" y="471" type="line"/>
      <point x="645" y="515"/>
      <point x="722" y="600"/>
      <point x="722" y="717" type="curve" smooth="yes"/>
      <point x="722" y="855"/>
      <point x="605" y="956"/>
      <point x="422" y="956" type="curve" smooth="yes"/>
      <point x="231" y="956"/>
      <point x="93" y="847"/>
      <point x="93" y="698" type="curve" smooth="yes"/>
      <point x="93" y="377"/>
      <point x="593" y="444"/>
      <point x="593" y="211" type="curve" smooth="yes"/>
      <point x="593" y="128"/>
      <point x="526" y="77"/>
      <point x="420" y="77" type="curve" smooth="yes"/>
      <point x="293" y="77"/>
      <point x="219" y="147"/>
      <point x="219" y="247" type="curve" smooth="yes"/>
      <point x="219" y="322"/>
      <point x="256" y="386"/>
      <point x="354" y="451" type="curve"/>
      <point x="314" y="478" type="line"/>
      <point x="152" y="444"/>
      <point x="56" y="357"/>
      <point x="56" y="234" type="curve" smooth="yes"/>
      <point x="56" y="89"/>
      <point x="190" y="-14"/>
    </contour>
  </outline>
</glyph>
<glyph name="nine" format="2">
  <advance width="813"/>
  <unicode hex="0039"/>
  <note>
nine
</note>
  <outline>
    <contour>
      <point x="594" y="540" type="curve"/>
      <point x="592" y="606" type="line"/>
      <point x="551" y="542"/>
      <point x="483" y="497"/>
      <point x="408" y="497" type="curve" smooth="yes"/>
      <point x="308" y="497"/>
      <point x="241" y="574"/>
      <point x="241" y="691" type="curve" smooth="yes"/>
      <point x="241" y="797"/>
      <point x="300" y="873"/>
      <point x="387" y="873" type="curve" smooth="yes"/>
      <point x="494" y="873"/>
      <point x="565" y="760"/>
      <point x="565" y="597" type="curve" smooth="yes"/>
      <point x="565" y="304"/>
      <point x="421" y="126"/>
      <point x="130" y="54" type="curve"/>
      <point x="156" y="-25" type="line"/>
      <point x="514" y="22"/>
      <point x="740" y="284"/>
      <point x="740" y="590" type="curve" smooth="yes"/>
      <point x="740" y="807"/>
      <point x="604" y="956"/>
      <point x="400" y="956" type="curve" smooth="yes"/>
      <point x="214" y="956"/>
      <point x="72" y="813"/>
      <point x="72" y="645" type="curve" smooth="yes"/>
      <point x="72" y="491"/>
      <point x="191" y="375"/>
      <point x="344" y="375" type="curve" smooth="yes"/>
      <point x="440" y="375"/>
      <point x="536" y="441"/>
    </contour>
  </outline>
</glyph>
<glyph name="semicolon" format="2">
  <advance width="401"/>
  <unicode hex="003B"/>
  <note>
semicolon
</note>
  <outline>
    <contour>
      <point x="70" y="-300" type="line"/>
      <point x="227" y="-237"/>
      <point x="325" y="-96"/>
      <point x="325" y="44" type="curve" smooth="yes"/>
      <point x="325" y="160"/>
      <point x="261" y="210"/>
      <point x="199" y="210" type="curve" smooth="yes"/>
      <point x="133" y="210"/>
      <point x="88" y="163"/>
      <point x="88" y="109" type="curve" smooth="yes"/>
      <point x="88" y="11"/>
      <point x="190" y="17"/>
      <point x="190" y="-75" type="curve" smooth="yes"/>
      <point x="190" y="-147"/>
      <point x="142" y="-203"/>
      <point x="44" y="-247" type="curve"/>
    </contour>
    <contour>
      <point x="200" y="484" type="curve" smooth="yes"/>
      <point x="268" y="484"/>
      <point x="317" y="531"/>
      <point x="317" y="597" type="curve" smooth="yes"/>
      <point x="317" y="662"/>
      <point x="268" y="711"/>
      <point x="200" y="711" type="curve" smooth="yes"/>
      <point x="134" y="711"/>
      <point x="85" y="662"/>
      <point x="85" y="597" type="curve" smooth="yes"/>
      <point x="85" y="531"/>
      <point x="134" y="484"/>
    </contour>
  </outline>
</glyph>
<glyph name="less" format="2">
  <advance width="866"/>
  <unicode hex="003C"/>
  <outline>
    <contour>
      <point x="85" y="346" type="line"/>
      <point x="781" y="46" type="line"/>
      <point x="781" y="171" type="line"/>
      <point x="134" y="446" type="line"/>
      <point x="134" y="367" type="line"/>
      <point x="781" y="643" type="line"/>
      <point x="781" y="770" type="line"/>
      <point x="85" y="470" type="line"/>
    </contour>
  </outline>
</glyph>
<glyph name="equal" format="2">
  <advance width="866"/>
  <unicode hex="003D"/>
  <outline>
    <contour>
      <point x="781" y="608" type="line"/>
      <point x="85" y="608" type="line"/>
      <point x="85" y="492" type="line"/>
      <point x="781" y="492" type="line"/>
    </contour>
    <contour>
      <point x="781" y="322" type="line"/>
      <point x="85" y="322" type="line"/>
      <point x="85" y="207" type="line"/>
      <point x="781" y="207" type="line"/>
    </contour>
  </outline>
</glyph>
<glyph name="greater" format="2">
  <advance width="770"/>
  <unicode hex="003E"/>
  <outline>
    <contour>
      <point x="629" y="471" type="line"/>
      <point x="209" y="893" type="line"/>
      <point x="141" y="893" type="line"/>
      <point x="561" y="471" type="line"/>
      <point x="141" y="51" type="line"/>
      <point x="209" y="51" type="line"/>
    </contour>
  </outline>
</glyph>
<glyph name="question" format="2">
  <advance width="586"/>
  <unicode hex="003F"/>
  <note>
question
</note>
  <outline>
    <contour>
      <point x="173" y="314" type="curve"/>
      <point x="247" y="314" type="line"/>
      <point x="242" y="343"/>
      <point x="239" y="365"/>
      <point x="239" y="388" type="curve" smooth="yes"/>
      <point x="239" y="542"/>
      <point x="515" y="560"/>
      <point x="515" y="780" type="curve" smooth="yes"/>
      <point x="515" y="979"/>
      <point x="357" y="1120"/>
      <point x="146" y="1120" type="curve" smooth="yes"/>
      <point x="60" y="1120"/>
      <point x="19" y="1083"/>
      <point x="19" y="1033" type="curve" smooth="yes"/>
      <point x="19" y="988"/>
      <point x="56" y="950"/>
      <point x="121" y="950" type="curve" smooth="yes"/>
      <point x="171" y="950"/>
      <point x="215" y="977"/>
      <point x="269" y="977" type="curve" smooth="yes"/>
      <point x="346" y="977"/>
      <point x="396" y="927"/>
      <point x="396" y="858" type="curve" smooth="yes"/>
      <point x="396" y="702"/>
      <point x="130" y="633"/>
      <point x="130" y="463" type="curve" smooth="yes"/>
      <point x="130" y="415"/>
      <point x="141" y="372"/>
    </contour>
    <contour>
      <point x="210" y="-16" type="curve" smooth="yes"/>
      <point x="277" y="-16"/>
      <point x="329" y="32"/>
      <point x="329" y="97" type="curve" smooth="yes"/>
      <point x="329" y="162"/>
      <point x="277" y="211"/>
      <point x="210" y="211" type="curve" smooth="yes"/>
      <point x="146" y="211"/>
      <point x="94" y="162"/>
      <point x="94" y="97" type="curve" smooth="yes"/>
      <point x="94" y="32"/>
      <point x="146" y="-16"/>
    </contour>
  </outline>
</glyph>
<glyph name="at" format="2">
  <advance width="1487"/>
  <unicode hex="0040"/>
  <note>
at
</note>
  <outline>
    <contour>
      <point x="762" y="-364" type="curve" smooth="yes"/>
      <point x="861" y="-364"/>
      <point x="972" y="-341"/>
      <point x="1051" y="-301" type="curve"/>
      <point x="1027" y="-234" type="line"/>
      <point x="953" y="-266"/>
      <point x="861" y="-284"/>
      <point x="772" y="-284" type="curve" smooth="yes"/>
      <point x="444" y="-284"/>
      <point x="245" y="-81"/>
      <point x="245" y="282" type="curve" smooth="yes"/>
      <point x="245" y="642"/>
      <point x="462" y="874"/>
      <point x="820" y="874" type="curve" smooth="yes"/>
      <point x="1097" y="874"/>
      <point x="1285" y="736"/>
      <point x="1285" y="452" type="curve" smooth="yes"/>
      <point x="1285" y="216"/>
      <point x="1176" y="72"/>
      <point x="1056" y="72" type="curve"/>
      <point x="1048" y="96"/>
      <point x="1044" y="131"/>
      <point x="1044" y="182" type="curve"/>
      <point x="1049" y="476" type="line"/>
      <point x="1048" y="614"/>
      <point x="937" y="707"/>
      <point x="770" y="707" type="curve"/>
      <point x="661" y="691"/>
      <point x="500" y="600"/>
      <point x="500" y="528" type="curve" smooth="yes"/>
      <point x="500" y="483"/>
      <point x="540" y="455"/>
      <point x="600" y="455" type="curve" smooth="yes"/>
      <point x="616" y="455"/>
      <point x="633" y="459"/>
      <point x="653" y="462" type="curve"/>
      <point x="658" y="539" type="line" smooth="yes"/>
      <point x="661" y="598"/>
      <point x="675" y="614"/>
      <point x="723" y="614" type="curve" smooth="yes"/>
      <point x="815" y="614"/>
      <point x="893" y="550"/>
      <point x="893" y="475" type="curve" smooth="yes"/>
      <point x="893" y="401" type="line"/>
      <point x="645" y="321" type="line" smooth="yes"/>
      <point x="540" y="287"/>
      <point x="497" y="242"/>
      <point x="497" y="168" type="curve" smooth="yes"/>
      <point x="497" y="85"/>
      <point x="587" y="-12"/>
      <point x="722" y="-12" type="curve" smooth="yes"/>
      <point x="788" y="-12"/>
      <point x="855" y="28"/>
      <point x="924" y="109" type="curve"/>
      <point x="897" y="112" type="line"/>
      <point x="918" y="44" type="line" smooth="yes"/>
      <point x="929" y="6"/>
      <point x="951" y="-12"/>
      <point x="999" y="-12" type="curve" smooth="yes"/>
      <point x="1206" y="-12"/>
      <point x="1410" y="203"/>
      <point x="1410" y="451" type="curve" smooth="yes"/>
      <point x="1410" y="772"/>
      <point x="1152" y="953"/>
      <point x="820" y="953" type="curve" smooth="yes"/>
      <point x="386" y="953"/>
      <point x="93" y="666"/>
      <point x="93" y="266" type="curve" smooth="yes"/>
      <point x="93" y="-133"/>
      <point x="370" y="-364"/>
    </contour>
    <contour>
      <point x="778" y="97" type="curve" smooth="yes"/>
      <point x="717" y="97"/>
      <point x="662" y="147"/>
      <point x="662" y="200" type="curve" smooth="yes"/>
      <point x="662" y="243"/>
      <point x="683" y="269"/>
      <point x="735" y="282" type="curve" smooth="yes"/>
      <point x="893" y="321" type="line"/>
      <point x="893" y="155" type="line"/>
      <point x="858" y="117"/>
      <point x="820" y="97"/>
    </contour>
  </outline>
</glyph>
<glyph name="A" format="2">
  <advance width="944"/>
  <unicode hex="0041"/>
  <note>
A
</note>
  <anchor x="459" y="942" name="above"/>
  <anchor x="436" y="0" name="below"/>
  <anchor x="882" y="0" name="ogonek"/>
  <outline>
    <contour>
      <point x="1" y="0" type="line"/>
      <point x="284" y="0" type="line"/>
      <point x="287" y="67" type="line"/>
      <point x="187" y="89" type="line"/>
      <point x="269" y="322" type="line"/>
      <point x="287" y="370" type="line"/>
      <point x="442" y="797" type="line"/>
      <point x="402" y="788" type="line"/>
      <point x="572" y="370" type="line"/>
      <point x="590" y="319" type="line"/>
      <point x="683" y="89" type="line"/>
      <point x="584" y="67" type="line"/>
      <point x="587" y="0" type="line"/>
      <point x="945" y="0" type="line"/>
      <point x="950" y="67" type="line"/>
      <point x="869" y="89" type="line"/>
      <point x="513" y="971" type="line"/>
      <point x="407" y="908" type="line"/>
      <point x="78" y="89" type="line"/>
      <point x="-1" y="67" type="line"/>
    </contour>
    <contour>
      <point x="235" y="288" type="line"/>
      <point x="303" y="290"/>
      <point x="365" y="293"/>
      <point x="436" y="293" type="curve" smooth="yes"/>
      <point x="508" y="293"/>
      <point x="574" y="290"/>
      <point x="637" y="290" type="curve"/>
      <point x="637" y="381" type="line"/>
      <point x="598" y="380"/>
      <point x="532" y="377"/>
      <point x="436" y="377" type="curve" smooth="yes"/>
      <point x="340" y="377"/>
      <point x="276" y="380"/>
      <point x="235" y="381" type="curve"/>
    </contour>
  </outline>
</glyph>
<glyph name="B" format="2">
  <advance width="918"/>
  <unicode hex="0042"/>
  <note>
B
</note>
  <anchor x="459" y="942" name="above"/>
  <anchor x="459" y="0" name="below"/>
  <outline>
    <contour>
      <point x="165" y="89" type="curve"/>
      <point x="65" y="67" type="line"/>
      <point x="69" y="0" type="line"/>
      <point x="441" y="0" type="line" smooth="yes"/>
      <point x="693" y="0"/>
      <point x="847" y="104"/>
      <point x="847" y="272" type="curve" smooth="yes"/>
      <point x="847" y="417"/>
      <point x="735" y="502"/>
      <point x="532" y="510" type="curve"/>
      <point x="542" y="497" type="line"/>
      <point x="694" y="508"/>
      <point x="799" y="598"/>
      <point x="799" y="715" type="curve" smooth="yes"/>
      <point x="799" y="863"/>
      <point x="688" y="942"/>
      <point x="475" y="942" type="curve" smooth="yes"/>
      <point x="69" y="942" type="line"/>
      <point x="65" y="874" type="line"/>
      <point x="165" y="855" type="line"/>
      <point x="170" y="842"/>
      <point x="174" y="747"/>
      <point x="174" y="609" type="curve" smooth="yes"/>
      <point x="174" y="330" type="line" smooth="yes"/>
      <point x="174" y="202"/>
      <point x="170" y="105"/>
    </contour>
    <contour>
      <point x="335" y="284" type="curve" smooth="yes"/>
      <point x="335" y="661" type="line" smooth="yes"/>
      <point x="335" y="760"/>
      <point x="337" y="849"/>
      <point x="338" y="865" type="curve"/>
      <point x="430" y="865" type="line" smooth="yes"/>
      <point x="558" y="865"/>
      <point x="625" y="804"/>
      <point x="625" y="698" type="curve" smooth="yes"/>
      <point x="625" y="585"/>
      <point x="553" y="523"/>
      <point x="422" y="523" type="curve" smooth="yes"/>
      <point x="381" y="523"/>
      <point x="353" y="524"/>
      <point x="316" y="526" type="curve"/>
      <point x="316" y="436" type="line"/>
      <point x="343" y="439"/>
      <point x="364" y="439"/>
      <point x="430" y="439" type="curve" smooth="yes"/>
      <point x="593" y="439"/>
      <point x="674" y="380"/>
      <point x="674" y="255" type="curve" smooth="yes"/>
      <point x="674" y="139"/>
      <point x="597" y="80"/>
      <point x="449" y="80" type="curve" smooth="yes"/>
      <point x="418" y="80"/>
      <point x="365" y="86"/>
      <point x="340" y="91" type="curve"/>
      <point x="337" y="112"/>
      <point x="335" y="190"/>
    </contour>
  </outline>
</glyph>
<glyph name="C" format="2">
  <advance width="976"/>
  <unicode hex="0043"/>
  <note>
C
</note>
  <anchor x="560" y="942" name="above"/>
  <anchor x="560" y="0" name="below"/>
  <outline>
    <contour>
      <point x="592" y="-14" type="curve" smooth="yes"/>
      <point x="707" y="-14"/>
      <point x="818" y="19"/>
      <point x="889" y="59" type="curve"/>
      <point x="935" y="264" type="line"/>
      <point x="850" y="274" type="line"/>
      <point x="784" y="125" type="line"/>
      <point x="738" y="94"/>
      <point x="678" y="78"/>
      <point x="616" y="78" type="curve" smooth="yes"/>
      <point x="426" y="78"/>
      <point x="277" y="226"/>
      <point x="277" y="492" type="curve" smooth="yes"/>
      <point x="277" y="702"/>
      <point x="380" y="866"/>
      <point x="603" y="866" type="curve" smooth="yes"/>
      <point x="661" y="866"/>
      <point x="728" y="853"/>
      <point x="770" y="828" type="curve"/>
      <point x="820" y="670" type="line"/>
      <point x="900" y="677" type="line"/>
      <point x="889" y="905" type="line"/>
      <point x="815" y="937"/>
      <point x="707" y="956"/>
      <point x="617" y="956" type="curve" smooth="yes"/>
      <point x="287" y="956"/>
      <point x="80" y="743"/>
      <point x="80" y="462" type="curve" smooth="yes"/>
      <point x="80" y="149"/>
      <point x="303" y="-14"/>
    </contour>
  </outline>
</glyph>
<glyph name="D" format="2">
  <advance width="1106"/>
  <unicode hex="0044"/>
  <note>
D
</note>
  <anchor x="542" y="942" name="above"/>
  <anchor x="526" y="0" name="below"/>
  <anchor x="558" y="471" name="center"/>
  <anchor x="325" y="471" name="stroke"/>
  <outline>
    <contour>
      <point x="72" y="942" type="line"/>
      <point x="67" y="874" type="line"/>
      <point x="166" y="852" type="line"/>
      <point x="171" y="837"/>
      <point x="176" y="739"/>
      <point x="176" y="609" type="curve" smooth="yes"/>
      <point x="176" y="330" type="line" smooth="yes"/>
      <point x="176" y="210"/>
      <point x="171" y="107"/>
      <point x="166" y="89" type="curve"/>
      <point x="67" y="67" type="line"/>
      <point x="72" y="0" type="line"/>
      <point x="495" y="0" type="line" smooth="yes"/>
      <point x="802" y="0"/>
      <point x="1020" y="199"/>
      <point x="1020" y="481" type="curve" smooth="yes"/>
      <point x="1020" y="772"/>
      <point x="820" y="942"/>
      <point x="478" y="942" type="curve" smooth="yes"/>
    </contour>
    <contour>
      <point x="341" y="849" type="curve"/>
      <point x="385" y="857"/>
      <point x="425" y="860"/>
      <point x="460" y="860" type="curve" smooth="yes"/>
      <point x="690" y="860"/>
      <point x="832" y="720"/>
      <point x="832" y="434" type="curve" smooth="yes"/>
      <point x="832" y="205"/>
      <point x="720" y="89"/>
      <point x="508" y="89" type="curve" smooth="yes"/>
      <point x="460" y="89"/>
      <point x="409" y="94"/>
      <point x="346" y="104" type="curve"/>
      <point x="341" y="149"/>
      <point x="338" y="237"/>
      <point x="338" y="330" type="curve" smooth="yes"/>
      <point x="338" y="609" type="line" smooth="yes"/>
      <point x="338" y="762"/>
      <point x="341" y="821"/>
    </contour>
  </outline>
</glyph>
<glyph name="E" format="2">
  <advance width="905"/>
  <unicode hex="0045"/>
  <note>
E
</note>
  <anchor x="454" y="0" name="bottom"/>
  <anchor x="799" y="0" name="ogonek"/>
  <anchor x="454" y="942" name="top"/>
  <anchor x="40" y="942" name="topleft"/>
  <outline>
    <contour>
      <point x="796" y="-8" type="curve"/>
      <point x="865" y="234" type="line"/>
      <point x="786" y="248" type="line"/>
      <point x="701" y="94" type="line"/>
      <point x="682" y="89"/>
      <point x="661" y="88"/>
      <point x="587" y="88" type="curve" smooth="yes"/>
      <point x="454" y="88" type="line" smooth="yes"/>
      <point x="404" y="88"/>
      <point x="372" y="89"/>
      <point x="338" y="93" type="curve"/>
      <point x="337" y="115"/>
      <point x="335" y="187"/>
      <point x="335" y="266" type="curve" smooth="yes"/>
      <point x="335" y="667" type="line" smooth="yes"/>
      <point x="335" y="754"/>
      <point x="337" y="837"/>
      <point x="338" y="855" type="curve"/>
      <point x="365" y="858"/>
      <point x="398" y="860"/>
      <point x="439" y="860" type="curve" smooth="yes"/>
      <point x="601" y="860" type="line" smooth="yes"/>
      <point x="625" y="860"/>
      <point x="646" y="858"/>
      <point x="667" y="853" type="curve"/>
      <point x="723" y="717" type="line"/>
      <point x="802" y="728" type="line"/>
      <point x="767" y="948" type="line"/>
      <point x="706" y="943"/>
      <point x="630" y="942"/>
      <point x="579" y="942" type="curve" smooth="yes"/>
      <point x="70" y="942" type="line"/>
      <point x="65" y="874" type="line"/>
      <point x="166" y="852" type="line"/>
      <point x="171" y="839"/>
      <point x="174" y="751"/>
      <point x="174" y="609" type="curve" smooth="yes"/>
      <point x="174" y="330" type="line" smooth="yes"/>
      <point x="174" y="192"/>
      <point x="171" y="104"/>
      <point x="166" y="89" type="curve"/>
      <point x="65" y="67" type="line"/>
      <point x="70" y="0" type="line"/>
      <point x="622" y="0" type="line"/>
      <point x="672" y="0"/>
      <point x="736" y="-1"/>
    </contour>
    <contour>
      <point x="609" y="327" type="line"/>
      <point x="685" y="327" type="line"/>
      <point x="685" y="642" type="line"/>
      <point x="609" y="642" type="line"/>
      <point x="592" y="531" type="line"/>
      <point x="579" y="529"/>
      <point x="548" y="528"/>
      <point x="511" y="528" type="curve" smooth="yes"/>
      <point x="402" y="528" type="line" smooth="yes"/>
      <point x="370" y="528"/>
      <point x="337" y="529"/>
      <point x="308" y="531" type="curve"/>
      <point x="308" y="436" type="line"/>
      <point x="337" y="438"/>
      <point x="370" y="441"/>
      <point x="402" y="441" type="curve" smooth="yes"/>
      <point x="511" y="441" type="line" smooth="yes"/>
      <point x="548" y="441"/>
      <point x="579" y="438"/>
      <point x="592" y="434" type="curve"/>
    </contour>
  </outline>
</glyph>
<glyph name="F" format="2">
  <advance width="825"/>
  <unicode hex="0046"/>
  <note>
F
</note>
  <anchor x="417" y="942" name="above"/>
  <anchor x="256" y="0" name="below"/>
  <outline>
    <contour>
      <point x="80" y="0" type="line"/>
      <point x="470" y="0" type="line"/>
      <point x="475" y="70" type="line"/>
      <point x="345" y="89" type="line"/>
      <point x="341" y="102"/>
      <point x="337" y="174"/>
      <point x="337" y="298" type="curve"/>
      <point x="335" y="653" type="line"/>
      <point x="335" y="772"/>
      <point x="335" y="836"/>
      <point x="337" y="853" type="curve"/>
      <point x="359" y="857"/>
      <point x="404" y="860"/>
      <point x="436" y="860" type="curve" smooth="yes"/>
      <point x="597" y="860" type="line" smooth="yes"/>
      <point x="619" y="860"/>
      <point x="642" y="858"/>
      <point x="659" y="853" type="curve"/>
      <point x="717" y="717" type="line"/>
      <point x="797" y="728" type="line"/>
      <point x="760" y="948" type="line"/>
      <point x="699" y="943"/>
      <point x="625" y="942"/>
      <point x="572" y="942" type="curve" smooth="yes"/>
      <point x="75" y="942" type="line"/>
      <point x="70" y="874" type="line"/>
      <point x="170" y="850" type="line"/>
      <point x="173" y="839"/>
      <point x="176" y="760"/>
      <point x="176" y="630" type="curve"/>
      <point x="174" y="324" type="line"/>
      <point x="174" y="182"/>
      <point x="171" y="102"/>
      <point x="168" y="89" type="curve"/>
      <point x="75" y="67" type="line"/>
    </contour>
    <contour>
      <point x="601" y="312" type="line"/>
      <point x="678" y="312" type="line"/>
      <point x="678" y="633" type="line"/>
      <point x="601" y="633" type="line"/>
      <point x="582" y="526" type="line"/>
      <point x="571" y="523"/>
      <point x="544" y="520"/>
      <point x="500" y="520" type="curve" smooth="yes"/>
      <point x="380" y="520" type="line" smooth="yes"/>
      <point x="349" y="520"/>
      <point x="317" y="523"/>
      <point x="293" y="524" type="curve"/>
      <point x="293" y="430" type="line"/>
      <point x="325" y="431"/>
      <point x="353" y="433"/>
      <point x="380" y="433" type="curve" smooth="yes"/>
      <point x="500" y="433" type="line" smooth="yes"/>
      <point x="537" y="433"/>
      <point x="566" y="431"/>
      <point x="582" y="426" type="curve"/>
    </contour>
  </outline>
</glyph>
<glyph name="G" format="2">
  <advance width="1044"/>
  <unicode hex="0047"/>
  <note>
G
</note>
  <anchor x="563" y="0" name="bottom"/>
  <anchor x="563" y="942" name="top"/>
  <outline>
    <contour>
      <point x="598" y="-14" type="curve" smooth="yes"/>
      <point x="706" y="-14"/>
      <point x="832" y="17"/>
      <point x="919" y="73" type="curve"/>
      <point x="916" y="133"/>
      <point x="914" y="179"/>
      <point x="914" y="239" type="curve" smooth="yes"/>
      <point x="914" y="293"/>
      <point x="913" y="341"/>
      <point x="914" y="354" type="curve"/>
      <point x="988" y="375" type="line"/>
      <point x="983" y="441" type="line"/>
      <point x="643" y="441" type="line"/>
      <point x="638" y="372" type="line"/>
      <point x="749" y="353" type="line"/>
      <point x="752" y="324"/>
      <point x="755" y="266"/>
      <point x="755" y="205" type="curve" smooth="yes"/>
      <point x="755" y="36" type="line"/>
      <point x="791" y="125" type="line"/>
      <point x="741" y="89"/>
      <point x="674" y="77"/>
      <point x="622" y="77" type="curve" smooth="yes"/>
      <point x="425" y="77"/>
      <point x="272" y="226"/>
      <point x="272" y="492" type="curve" smooth="yes"/>
      <point x="272" y="702"/>
      <point x="377" y="866"/>
      <point x="606" y="866" type="curve" smooth="yes"/>
      <point x="659" y="866"/>
      <point x="728" y="855"/>
      <point x="772" y="828" type="curve"/>
      <point x="820" y="683" type="line"/>
      <point x="898" y="690" type="line"/>
      <point x="890" y="905" type="line"/>
      <point x="820" y="937"/>
      <point x="711" y="956"/>
      <point x="621" y="956" type="curve" smooth="yes"/>
      <point x="285" y="956"/>
      <point x="77" y="743"/>
      <point x="77" y="459" type="curve" smooth="yes"/>
      <point x="77" y="149"/>
      <point x="300" y="-14"/>
    </contour>
  </outline>
</glyph>
<glyph name="H" format="2">
  <advance width="1091"/>
  <unicode hex="0048"/>
  <note>
H
</note>
  <anchor x="545" y="942" name="above"/>
  <anchor x="545" y="0" name="below"/>
  <anchor x="545" y="696" name="center"/>
  <anchor x="40" y="942" name="topleft"/>
  <outline>
    <contour>
      <point x="648" y="0" type="line"/>
      <point x="1020" y="0" type="line"/>
      <point x="1025" y="67" type="line"/>
      <point x="926" y="89" type="line"/>
      <point x="919" y="104"/>
      <point x="916" y="190"/>
      <point x="916" y="330" type="curve" smooth="yes"/>
      <point x="916" y="609" type="line" smooth="yes"/>
      <point x="916" y="754"/>
      <point x="919" y="839"/>
      <point x="926" y="852" type="curve"/>
      <point x="1025" y="874" type="line"/>
      <point x="1020" y="942" type="line"/>
      <point x="648" y="942" type="line"/>
      <point x="645" y="874" type="line"/>
      <point x="743" y="852" type="line"/>
      <point x="749" y="839"/>
      <point x="752" y="759"/>
      <point x="752" y="609" type="curve" smooth="yes"/>
      <point x="752" y="330" type="line" smooth="yes"/>
      <point x="752" y="186"/>
      <point x="749" y="104"/>
      <point x="743" y="89" type="curve"/>
      <point x="645" y="67" type="line"/>
    </contour>
    <contour>
      <point x="72" y="0" type="line"/>
      <point x="441" y="0" type="line"/>
      <point x="446" y="67" type="line"/>
      <point x="346" y="89" type="line"/>
      <point x="340" y="104"/>
      <point x="337" y="186"/>
      <point x="337" y="330" type="curve" smooth="yes"/>
      <point x="337" y="609" type="line" smooth="yes"/>
      <point x="337" y="759"/>
      <point x="340" y="839"/>
      <point x="346" y="852" type="curve"/>
      <point x="446" y="874" type="line"/>
      <point x="441" y="942" type="line"/>
      <point x="72" y="942" type="line"/>
      <point x="67" y="874" type="line"/>
      <point x="166" y="852" type="line"/>
      <point x="171" y="839"/>
      <point x="174" y="751"/>
      <point x="174" y="609" type="curve" smooth="yes"/>
      <point x="174" y="330" type="line" smooth="yes"/>
      <point x="174" y="192"/>
      <point x="171" y="104"/>
      <point x="166" y="89" type="curve"/>
      <point x="67" y="67" type="line"/>
    </contour>
    <contour>
      <point x="312" y="431" type="line"/>
      <point x="359" y="434"/>
      <point x="428" y="438"/>
      <point x="547" y="438" type="curve" smooth="yes"/>
      <point x="662" y="438"/>
      <point x="730" y="434"/>
      <point x="776" y="431" type="curve"/>
      <point x="776" y="534" type="line"/>
      <point x="733" y="529"/>
      <point x="658" y="528"/>
      <point x="547" y="528" type="curve" smooth="yes"/>
      <point x="433" y="528"/>
      <point x="357" y="529"/>
      <point x="312" y="534" type="curve"/>
    </contour>
  </outline>
</glyph>
<glyph name="I" format="2">
  <advance width="512"/>
  <unicode hex="0049"/>
  <note>
I
</note>
  <anchor x="256" y="942" name="above"/>
  <anchor x="256" y="0" name="below"/>
  <anchor x="356" y="0" name="ogonek"/>
  <anchor x="40" y="942" name="topleft"/>
  <outline>
    <contour>
      <point x="72" y="0" type="line"/>
      <point x="442" y="0" type="line"/>
      <point x="446" y="67" type="line"/>
      <point x="346" y="89" type="line"/>
      <point x="340" y="104"/>
      <point x="337" y="186"/>
      <point x="337" y="330" type="curve" smooth="yes"/>
      <point x="337" y="609" type="line" smooth="yes"/>
      <point x="337" y="759"/>
      <point x="340" y="839"/>
      <point x="346" y="852" type="curve"/>
      <point x="446" y="874" type="line"/>
      <point x="442" y="942" type="line"/>
      <point x="72" y="942" type="line"/>
      <point x="67" y="874" type="line"/>
      <point x="166" y="852" type="line"/>
      <point x="171" y="839"/>
      <point x="174" y="751"/>
      <point x="174" y="609" type="curve" smooth="yes"/>
      <point x="174" y="330" type="line" smooth="yes"/>
      <point x="174" y="192"/>
      <point x="171" y="104"/>
      <point x="166" y="89" type="curve"/>
      <point x="67" y="67" type="line"/>
    </contour>
  </outline>
</glyph>
<glyph name="J" format="2">
  <advance width="512"/>
  <unicode hex="004A"/>
  <note>
J
</note>
  <anchor x="256" y="942" name="top"/>
  <outline>
    <contour>
      <point x="346" y="852" type="curve"/>
      <point x="446" y="874" type="line"/>
      <point x="442" y="942" type="line"/>
      <point x="60" y="942" type="line"/>
      <point x="56" y="874" type="line"/>
      <point x="166" y="852" type="line"/>
      <point x="171" y="834"/>
      <point x="174" y="744"/>
      <point x="174" y="613" type="curve"/>
      <point x="174" y="-41" type="line"/>
      <point x="174" y="-210"/>
      <point x="142" y="-266"/>
      <point x="56" y="-251" type="curve"/>
      <point x="123" y="-276" type="line"/>
      <point x="30" y="-182" type="line" smooth="yes"/>
      <point x="-1" y="-152"/>
      <point x="-30" y="-138"/>
      <point x="-62" y="-138" type="curve" smooth="yes"/>
      <point x="-102" y="-138"/>
      <point x="-130" y="-165"/>
      <point x="-130" y="-205" type="curve" smooth="yes"/>
      <point x="-130" y="-272"/>
      <point x="-43" y="-325"/>
      <point x="65" y="-325" type="curve" smooth="yes"/>
      <point x="234" y="-325"/>
      <point x="338" y="-197"/>
      <point x="338" y="19" type="curve"/>
      <point x="337" y="611" type="line"/>
      <point x="337" y="757"/>
      <point x="340" y="841"/>
    </contour>
  </outline>
</glyph>
<glyph name="K" format="2">
  <advance width="974"/>
  <unicode hex="004B"/>
  <note>
K
</note>
  <anchor x="513" y="0" name="bottom"/>
  <anchor x="513" y="942" name="top"/>
  <outline>
    <contour>
      <point x="584" y="0" type="line"/>
      <point x="991" y="0" type="line"/>
      <point x="991" y="69" type="line"/>
      <point x="911" y="85" type="line"/>
      <point x="890" y="105"/>
      <point x="858" y="141"/>
      <point x="799" y="210" type="curve" smooth="yes"/>
      <point x="491" y="561" type="line"/>
      <point x="489" y="505" type="line"/>
      <point x="865" y="855" type="line"/>
      <point x="961" y="871" type="line"/>
      <point x="958" y="942" type="line"/>
      <point x="632" y="942" type="line"/>
      <point x="627" y="874" type="line"/>
      <point x="727" y="855" type="line"/>
      <point x="396" y="513" type="line"/>
      <point x="317" y="494" type="line"/>
      <point x="317" y="430" type="line"/>
      <point x="383" y="430" type="line"/>
      <point x="613" y="162" type="line" smooth="yes"/>
      <point x="642" y="128"/>
      <point x="658" y="105"/>
      <point x="674" y="83" type="curve"/>
      <point x="581" y="67" type="line"/>
    </contour>
    <contour>
      <point x="75" y="0" type="line"/>
      <point x="433" y="0" type="line"/>
      <point x="438" y="67" type="line"/>
      <point x="345" y="89" type="line"/>
      <point x="341" y="104"/>
      <point x="338" y="190"/>
      <point x="338" y="330" type="curve" smooth="yes"/>
      <point x="338" y="609" type="line" smooth="yes"/>
      <point x="338" y="755"/>
      <point x="341" y="839"/>
      <point x="348" y="852" type="curve"/>
      <point x="447" y="874" type="line"/>
      <point x="444" y="942" type="line"/>
      <point x="73" y="942" type="line"/>
      <point x="69" y="874" type="line"/>
      <point x="168" y="852" type="line"/>
      <point x="173" y="839"/>
      <point x="176" y="751"/>
      <point x="176" y="609" type="curve" smooth="yes"/>
      <point x="176" y="330" type="line" smooth="yes"/>
      <point x="176" y="190"/>
      <point x="173" y="104"/>
      <point x="170" y="89" type="curve"/>
      <point x="70" y="67" type="line"/>
    </contour>
  </outline>
</glyph>
<glyph name="L" format="2">
  <advance width="838"/>
  <unicode hex="004C"/>
  <note>
L
</note>
  <anchor x="455" y="0" name="bottom"/>
  <anchor x="311" y="486" name="center"/>
  <anchor x="576" y="513" name="dotacc"/>
  <anchor x="258" y="942" name="top"/>
  <anchor x="593" y="942" name="topright"/>
  <outline>
    <contour>
      <point x="765" y="-8" type="curve"/>
      <point x="834" y="250" type="line"/>
      <point x="754" y="269" type="line"/>
      <point x="667" y="105" type="line"/>
      <point x="637" y="101"/>
      <point x="605" y="97"/>
      <point x="555" y="97" type="curve" smooth="yes"/>
      <point x="455" y="97" type="line" smooth="yes"/>
      <point x="409" y="97"/>
      <point x="377" y="99"/>
      <point x="345" y="104" type="curve"/>
      <point x="341" y="128"/>
      <point x="340" y="215"/>
      <point x="340" y="330" type="curve" smooth="yes"/>
      <point x="340" y="609" type="line" smooth="yes"/>
      <point x="340" y="757"/>
      <point x="345" y="839"/>
      <point x="349" y="850" type="curve"/>
      <point x="483" y="871" type="line"/>
      <point x="478" y="942" type="line"/>
      <point x="73" y="942" type="line"/>
      <point x="70" y="874" type="line"/>
      <point x="170" y="850" type="line"/>
      <point x="174" y="837"/>
      <point x="176" y="746"/>
      <point x="176" y="609" type="curve" smooth="yes"/>
      <point x="176" y="330" type="line" smooth="yes"/>
      <point x="176" y="195"/>
      <point x="173" y="105"/>
      <point x="170" y="89" type="curve"/>
      <point x="70" y="67" type="line"/>
      <point x="73" y="0" type="line"/>
      <point x="577" y="0" type="line"/>
      <point x="624" y="0"/>
      <point x="706" y="-3"/>
    </contour>
  </outline>
</glyph>
<glyph name="M" format="2">
  <advance width="1383"/>
  <unicode hex="004D"/>
  <note>
M
</note>
  <anchor x="664" y="942" name="above"/>
  <anchor x="664" y="0" name="below"/>
  <outline>
    <contour>
      <point x="85" y="942" type="line"/>
      <point x="80" y="874" type="line"/>
      <point x="179" y="852" type="line"/>
      <point x="179" y="820"/>
      <point x="181" y="746"/>
      <point x="179" y="640" type="curve" smooth="yes"/>
      <point x="174" y="325" type="line" smooth="yes"/>
      <point x="173" y="200"/>
      <point x="171" y="112"/>
      <point x="168" y="89" type="curve"/>
      <point x="57" y="67" type="line"/>
      <point x="62" y="0" type="line"/>
      <point x="390" y="0" type="line"/>
      <point x="394" y="67" type="line"/>
      <point x="284" y="89" type="line"/>
      <point x="282" y="107"/>
      <point x="280" y="174"/>
      <point x="280" y="349" type="curve" smooth="yes"/>
      <point x="279" y="897" type="line"/>
      <point x="219" y="897" type="line"/>
      <point x="627" y="-4" type="line"/>
      <point x="696" y="-4" type="line"/>
      <point x="1083" y="895" type="line"/>
      <point x="1032" y="895" type="line"/>
      <point x="1035" y="333" type="line" smooth="yes"/>
      <point x="1036" y="176"/>
      <point x="1036" y="117"/>
      <point x="1035" y="89" type="curve"/>
      <point x="935" y="67" type="line"/>
      <point x="940" y="0" type="line"/>
      <point x="1311" y="0" type="line"/>
      <point x="1314" y="67" type="line"/>
      <point x="1214" y="89" type="line"/>
      <point x="1211" y="115"/>
      <point x="1208" y="199"/>
      <point x="1203" y="351" type="curve"/>
      <point x="1195" y="642" type="line" smooth="yes"/>
      <point x="1194" y="744"/>
      <point x="1192" y="828"/>
      <point x="1194" y="853" type="curve"/>
      <point x="1293" y="874" type="line"/>
      <point x="1288" y="942" type="line"/>
      <point x="1004" y="942" type="line"/>
      <point x="683" y="192" type="line"/>
      <point x="717" y="192" type="line"/>
      <point x="381" y="942" type="line"/>
    </contour>
  </outline>
</glyph>
<glyph name="N" format="2">
  <advance width="1092"/>
  <unicode hex="004E"/>
  <note>
N
</note>
  <anchor x="547" y="0" name="bottom"/>
  <anchor x="547" y="942" name="top"/>
  <outline>
    <contour>
      <point x="816" y="251" type="line"/>
      <point x="857" y="251" type="line"/>
      <point x="304" y="942" type="line"/>
      <point x="73" y="942" type="line"/>
      <point x="69" y="874" type="line"/>
      <point x="168" y="852" type="line"/>
      <point x="173" y="836"/>
      <point x="178" y="760"/>
      <point x="178" y="632" type="curve" smooth="yes"/>
      <point x="178" y="377" type="line" smooth="yes"/>
      <point x="178" y="194"/>
      <point x="173" y="104"/>
      <point x="168" y="89" type="curve"/>
      <point x="69" y="67" type="line"/>
      <point x="73" y="0" type="line"/>
      <point x="394" y="0" type="line"/>
      <point x="399" y="67" type="line"/>
      <point x="288" y="89" type="line"/>
      <point x="284" y="104"/>
      <point x="279" y="190"/>
      <point x="279" y="377" type="curve" smooth="yes"/>
      <point x="279" y="772" type="line"/>
      <point x="227" y="770" type="line"/>
      <point x="836" y="-6" type="line"/>
      <point x="916" y="-6" type="line"/>
      <point x="916" y="69"/>
      <point x="914" y="139"/>
      <point x="914" y="216" type="curve" smooth="yes"/>
      <point x="914" y="574" type="line" smooth="yes"/>
      <point x="914" y="751"/>
      <point x="921" y="841"/>
      <point x="924" y="852" type="curve"/>
      <point x="1023" y="874" type="line"/>
      <point x="1019" y="942" type="line"/>
      <point x="702" y="942" type="line"/>
      <point x="698" y="874" type="line"/>
      <point x="807" y="852" type="line"/>
      <point x="812" y="841"/>
      <point x="816" y="751"/>
      <point x="816" y="574" type="curve" smooth="yes"/>
    </contour>
  </outline>
</glyph>
<glyph name="O" format="2">
  <advance width="1110"/>
  <unicode hex="004F"/>
  <note>
O
</note>
  <anchor x="555" y="942" name="above"/>
  <anchor x="555" y="0" name="below"/>
  <anchor x="555" y="471" name="center"/>
  <anchor x="674" y="0" name="ogonek"/>
  <anchor x="25" y="942" name="topleft"/>
  <anchor x="1083" y="942" name="topright"/>
  <outline>
    <contour>
      <point x="564" y="-14" type="curve" smooth="yes"/>
      <point x="802" y="-14"/>
      <point x="1033" y="178"/>
      <point x="1033" y="479" type="curve" smooth="yes"/>
      <point x="1033" y="760"/>
      <point x="842" y="956"/>
      <point x="566" y="956" type="curve" smooth="yes"/>
      <point x="284" y="956"/>
      <point x="77" y="747"/>
      <point x="77" y="465" type="curve" smooth="yes"/>
      <point x="77" y="182"/>
      <point x="279" y="-14"/>
    </contour>
    <contour>
      <point x="577" y="83" type="curve" smooth="yes"/>
      <point x="399" y="83"/>
      <point x="272" y="255"/>
      <point x="272" y="499" type="curve" smooth="yes"/>
      <point x="272" y="728"/>
      <point x="377" y="868"/>
      <point x="547" y="868" type="curve" smooth="yes"/>
      <point x="725" y="868"/>
      <point x="842" y="696"/>
      <point x="842" y="439" type="curve" smooth="yes"/>
      <point x="842" y="218"/>
      <point x="744" y="83"/>
    </contour>
  </outline>
</glyph>
<glyph name="P" format="2">
  <advance width="849"/>
  <unicode hex="0050"/>
  <note>
P
</note>
  <anchor x="258" y="0" name="bottom"/>
  <anchor x="423" y="942" name="top"/>
  <outline>
    <contour>
      <point x="78" y="0" type="line"/>
      <point x="473" y="0" type="line"/>
      <point x="478" y="70" type="line"/>
      <point x="346" y="91" type="line"/>
      <point x="345" y="104"/>
      <point x="338" y="168"/>
      <point x="338" y="322" type="curve"/>
      <point x="337" y="625" type="line"/>
      <point x="337" y="747"/>
      <point x="338" y="844"/>
      <point x="340" y="865" type="curve"/>
      <point x="412" y="865" type="line" smooth="yes"/>
      <point x="532" y="865"/>
      <point x="617" y="797"/>
      <point x="617" y="648" type="curve" smooth="yes"/>
      <point x="617" y="518"/>
      <point x="547" y="455"/>
      <point x="430" y="455" type="curve" smooth="yes"/>
      <point x="390" y="455"/>
      <point x="354" y="463"/>
      <point x="314" y="476" type="curve"/>
      <point x="314" y="381" type="line"/>
      <point x="348" y="375"/>
      <point x="388" y="370"/>
      <point x="433" y="370" type="curve" smooth="yes"/>
      <point x="638" y="370"/>
      <point x="789" y="491"/>
      <point x="789" y="669" type="curve" smooth="yes"/>
      <point x="789" y="845"/>
      <point x="664" y="942"/>
      <point x="436" y="942" type="curve" smooth="yes"/>
      <point x="73" y="942" type="line"/>
      <point x="69" y="874" type="line"/>
      <point x="168" y="852" type="line"/>
      <point x="171" y="841"/>
      <point x="176" y="773"/>
      <point x="176" y="625" type="curve"/>
      <point x="174" y="322" type="line"/>
      <point x="174" y="168"/>
      <point x="171" y="102"/>
      <point x="166" y="89" type="curve"/>
      <point x="73" y="67" type="line"/>
    </contour>
  </outline>
</glyph>
<glyph name="Q" format="2">
  <advance width="1110"/>
  <unicode hex="0051"/>
  <note>
Q
</note>
  <anchor x="555" y="942" name="top"/>
  <outline>
    <contour>
      <point x="564" y="-12" type="curve"/>
      <point x="582" y="-9" type="line"/>
      <point x="808" y="-9"/>
      <point x="1033" y="182"/>
      <point x="1033" y="479" type="curve" smooth="yes"/>
      <point x="1033" y="760"/>
      <point x="842" y="956"/>
      <point x="566" y="956" type="curve" smooth="yes"/>
      <point x="284" y="956"/>
      <point x="77" y="747"/>
      <point x="77" y="465" type="curve" smooth="yes"/>
      <point x="77" y="182"/>
      <point x="279" y="-12"/>
    </contour>
    <contour>
      <point x="966" y="-223" type="curve" smooth="yes"/>
      <point x="1049" y="-223"/>
      <point x="1125" y="-200"/>
      <point x="1181" y="-165" type="curve"/>
      <point x="1163" y="-96" type="line"/>
      <point x="1128" y="-107"/>
      <point x="1093" y="-110"/>
      <point x="1062" y="-110" type="curve" smooth="yes"/>
      <point x="996" y="-110"/>
      <point x="940" y="-94"/>
      <point x="874" y="-56" type="curve" smooth="yes"/>
      <point x="797" y="-12"/>
      <point x="717" y="8"/>
      <point x="630" y="11" type="curve"/>
      <point x="436" y="11" type="line"/>
      <point x="500" y="-8"/>
      <point x="593" y="-77"/>
      <point x="666" y="-125" type="curve" smooth="yes"/>
      <point x="760" y="-190"/>
      <point x="844" y="-223"/>
    </contour>
    <contour>
      <point x="577" y="83" type="curve" smooth="yes"/>
      <point x="399" y="83"/>
      <point x="272" y="255"/>
      <point x="272" y="499" type="curve" smooth="yes"/>
      <point x="272" y="728"/>
      <point x="377" y="868"/>
      <point x="547" y="868" type="curve" smooth="yes"/>
      <point x="725" y="868"/>
      <point x="842" y="696"/>
      <point x="842" y="439" type="curve" smooth="yes"/>
      <point x="842" y="216"/>
      <point x="743" y="83"/>
    </contour>
  </outline>
</glyph>
<glyph name="R" format="2">
  <advance width="937"/>
  <unicode hex="0052"/>
  <note>
R
</note>
  <anchor x="446" y="942" name="above"/>
  <anchor x="510" y="0" name="below"/>
  <outline>
    <contour>
      <point x="77" y="0" type="line"/>
      <point x="433" y="0" type="line"/>
      <point x="438" y="67" type="line"/>
      <point x="345" y="91" type="line"/>
      <point x="340" y="123"/>
      <point x="337" y="207"/>
      <point x="337" y="330" type="curve" smooth="yes"/>
      <point x="337" y="630" type="line" smooth="yes"/>
      <point x="337" y="802"/>
      <point x="337" y="853"/>
      <point x="340" y="865" type="curve"/>
      <point x="423" y="865" type="line" smooth="yes"/>
      <point x="537" y="865"/>
      <point x="600" y="807"/>
      <point x="600" y="698" type="curve" smooth="yes"/>
      <point x="600" y="582"/>
      <point x="524" y="511"/>
      <point x="401" y="511" type="curve" smooth="yes"/>
      <point x="319" y="511" type="line"/>
      <point x="319" y="434" type="line"/>
      <point x="418" y="434" type="line" smooth="yes"/>
      <point x="625" y="434"/>
      <point x="770" y="548"/>
      <point x="770" y="707" type="curve" smooth="yes"/>
      <point x="770" y="863"/>
      <point x="659" y="942"/>
      <point x="444" y="942" type="curve" smooth="yes"/>
      <point x="72" y="942" type="line"/>
      <point x="67" y="874" type="line"/>
      <point x="168" y="852" type="line"/>
      <point x="173" y="839"/>
      <point x="176" y="752"/>
      <point x="176" y="609" type="curve" smooth="yes"/>
      <point x="176" y="330" type="line" smooth="yes"/>
      <point x="176" y="234"/>
      <point x="173" y="120"/>
      <point x="173" y="91" type="curve"/>
      <point x="73" y="67" type="line"/>
    </contour>
    <contour>
      <point x="863" y="-16" type="curve" smooth="yes"/>
      <point x="889" y="-16"/>
      <point x="916" y="-14"/>
      <point x="942" y="-9" type="curve"/>
      <point x="943" y="52" type="line"/>
      <point x="861" y="69"/>
      <point x="804" y="113"/>
      <point x="720" y="234" type="curve" smooth="yes"/>
      <point x="542" y="492" type="line"/>
      <point x="404" y="460" type="line"/>
      <point x="507" y="263" type="line" smooth="yes"/>
      <point x="616" y="57"/>
      <point x="709" y="-16"/>
    </contour>
  </outline>
</glyph>
<glyph name="S" format="2">
  <advance width="782"/>
  <unicode hex="0053"/>
  <note>
S
</note>
  <anchor x="398" y="0" name="bottom"/>
  <anchor x="398" y="942" name="top"/>
  <outline>
    <contour>
      <point x="364" y="-14" type="curve" smooth="yes"/>
      <point x="579" y="-14"/>
      <point x="728" y="99"/>
      <point x="728" y="258" type="curve" smooth="yes"/>
      <point x="728" y="553"/>
      <point x="256" y="510"/>
      <point x="256" y="736" type="curve" smooth="yes"/>
      <point x="256" y="820"/>
      <point x="324" y="874"/>
      <point x="426" y="874" type="curve" smooth="yes"/>
      <point x="478" y="874"/>
      <point x="516" y="865"/>
      <point x="553" y="844" type="curve"/>
      <point x="600" y="701" type="line"/>
      <point x="680" y="707" type="line"/>
      <point x="666" y="919" type="line"/>
      <point x="609" y="945"/>
      <point x="524" y="958"/>
      <point x="444" y="958" type="curve" smooth="yes"/>
      <point x="232" y="958"/>
      <point x="86" y="849"/>
      <point x="86" y="686" type="curve" smooth="yes"/>
      <point x="86" y="375"/>
      <point x="553" y="431"/>
      <point x="553" y="207" type="curve" smooth="yes"/>
      <point x="553" y="123"/>
      <point x="491" y="73"/>
      <point x="386" y="73" type="curve" smooth="yes"/>
      <point x="324" y="73"/>
      <point x="260" y="91"/>
      <point x="210" y="123" type="curve"/>
      <point x="162" y="274" type="line"/>
      <point x="83" y="268" type="line"/>
      <point x="91" y="49" type="line"/>
      <point x="157" y="11"/>
      <point x="271" y="-14"/>
    </contour>
  </outline>
</glyph>
<glyph name="T" format="2">
  <advance width="920"/>
  <unicode hex="0054"/>
  <note>
T
</note>
  <anchor x="460" y="942" name="above"/>
  <anchor x="460" y="0" name="below"/>
  <anchor x="460" y="486" name="stroke"/>
  <outline>
    <contour>
      <point x="858" y="948" type="line"/>
      <point x="807" y="945"/>
      <point x="733" y="942"/>
      <point x="680" y="942" type="curve" smooth="yes"/>
      <point x="237" y="942" type="line" smooth="yes"/>
      <point x="184" y="942"/>
      <point x="109" y="945"/>
      <point x="59" y="948" type="curve"/>
      <point x="25" y="680" type="line"/>
      <point x="105" y="670" type="line"/>
      <point x="170" y="855" type="line"/>
      <point x="190" y="858"/>
      <point x="213" y="860"/>
      <point x="234" y="860" type="curve" smooth="yes"/>
      <point x="293" y="860" type="line" smooth="yes"/>
      <point x="316" y="860"/>
      <point x="353" y="860"/>
      <point x="375" y="858" type="curve"/>
      <point x="377" y="834"/>
      <point x="377" y="683"/>
      <point x="377" y="558" type="curve" smooth="yes"/>
      <point x="377" y="364" type="line" smooth="yes"/>
      <point x="377" y="232"/>
      <point x="373" y="126"/>
      <point x="373" y="89" type="curve"/>
      <point x="237" y="70" type="line"/>
      <point x="242" y="0" type="line"/>
      <point x="678" y="0" type="line"/>
      <point x="683" y="70" type="line"/>
      <point x="547" y="89" type="line"/>
      <point x="545" y="126"/>
      <point x="542" y="232"/>
      <point x="542" y="364" type="curve" smooth="yes"/>
      <point x="542" y="558" type="line" smooth="yes"/>
      <point x="542" y="683"/>
      <point x="544" y="834"/>
      <point x="545" y="858" type="curve"/>
      <point x="569" y="860"/>
      <point x="606" y="860"/>
      <point x="627" y="860" type="curve" smooth="yes"/>
      <point x="685" y="860" type="line" smooth="yes"/>
      <point x="706" y="860"/>
      <point x="728" y="858"/>
      <point x="749" y="855" type="curve"/>
      <point x="815" y="674" type="line"/>
      <point x="893" y="682" type="line"/>
    </contour>
  </outline>
</glyph>
<glyph name="U" format="2">
  <advance width="1082"/>
  <unicode hex="0055"/>
  <note>
U
</note>
  <anchor x="571" y="942" name="above"/>
  <anchor x="569" y="0" name="below"/>
  <anchor x="669" y="0" name="ogonek"/>
  <anchor x="1041" y="942" name="topright"/>
  <outline>
    <contour>
      <point x="67" y="942" type="line"/>
      <point x="64" y="874" type="line"/>
      <point x="163" y="850" type="line"/>
      <point x="165" y="841"/>
      <point x="170" y="772"/>
      <point x="170" y="609" type="curve" smooth="yes"/>
      <point x="170" y="367" type="line" smooth="yes"/>
      <point x="170" y="123"/>
      <point x="311" y="-14"/>
      <point x="556" y="-14" type="curve" smooth="yes"/>
      <point x="765" y="-14"/>
      <point x="913" y="118"/>
      <point x="913" y="383" type="curve" smooth="yes"/>
      <point x="913" y="581" type="line" smooth="yes"/>
      <point x="913" y="760"/>
      <point x="918" y="841"/>
      <point x="919" y="850" type="curve"/>
      <point x="1019" y="874" type="line"/>
      <point x="1014" y="942" type="line"/>
      <point x="688" y="942" type="line"/>
      <point x="683" y="874" type="line"/>
      <point x="796" y="850" type="line"/>
      <point x="800" y="834"/>
      <point x="805" y="733"/>
      <point x="805" y="581" type="curve" smooth="yes"/>
      <point x="805" y="398" type="line" smooth="yes"/>
      <point x="805" y="190"/>
      <point x="719" y="105"/>
      <point x="577" y="105" type="curve" smooth="yes"/>
      <point x="428" y="105"/>
      <point x="335" y="190"/>
      <point x="335" y="390" type="curve"/>
      <point x="335" y="609" type="line"/>
      <point x="333" y="770"/>
      <point x="338" y="829"/>
      <point x="340" y="850" type="curve"/>
      <point x="441" y="874" type="line"/>
      <point x="436" y="942" type="line"/>
    </contour>
  </outline>
</glyph>
<glyph name="V" format="2">
  <advance width="951"/>
  <unicode hex="0056"/>
  <note>
V
</note>
  <anchor x="467" y="0" name="bottom"/>
  <anchor x="467" y="942" name="top"/>
  <outline>
    <contour>
      <point x="434" y="-4" type="line"/>
      <point x="508" y="-4" type="line"/>
      <point x="873" y="852" type="line"/>
      <point x="953" y="876" type="line"/>
      <point x="950" y="942" type="line"/>
      <point x="643" y="942" type="line"/>
      <point x="638" y="874" type="line"/>
      <point x="751" y="852" type="line"/>
      <point x="497" y="176" type="line"/>
      <point x="540" y="176" type="line"/>
      <point x="268" y="852" type="line"/>
      <point x="367" y="874" type="line"/>
      <point x="362" y="942" type="line"/>
      <point x="1" y="942" type="line"/>
      <point x="-3" y="876" type="line"/>
      <point x="78" y="852" type="line"/>
    </contour>
  </outline>
</glyph>
<glyph name="W" format="2">
  <advance width="1526"/>
  <unicode hex="0057"/>
  <note>
W
</note>
  <anchor x="767" y="0" name="bottom"/>
  <anchor x="767" y="942" name="top"/>
  <outline>
    <contour>
      <point x="784" y="682" type="line"/>
      <point x="731" y="815" type="line"/>
      <point x="486" y="176" type="line"/>
      <point x="536" y="176" type="line"/>
      <point x="276" y="852" type="line"/>
      <point x="357" y="874" type="line"/>
      <point x="353" y="942" type="line"/>
      <point x="9" y="942" type="line"/>
      <point x="6" y="874" type="line"/>
      <point x="86" y="852" type="line"/>
      <point x="430" y="-4" type="line"/>
      <point x="503" y="-4" type="line"/>
    </contour>
    <contour>
      <point x="1014" y="-4" type="line"/>
      <point x="1089" y="-4" type="line"/>
      <point x="1439" y="852" type="line"/>
      <point x="1521" y="874" type="line"/>
      <point x="1516" y="942" type="line"/>
      <point x="1211" y="942" type="line"/>
      <point x="1206" y="874" type="line"/>
      <point x="1319" y="852" type="line"/>
      <point x="1072" y="176" type="line"/>
      <point x="1115" y="176" type="line"/>
      <point x="855" y="852" type="line"/>
      <point x="954" y="874" type="line"/>
      <point x="950" y="942" type="line"/>
      <point x="595" y="942" type="line"/>
      <point x="590" y="874" type="line"/>
      <point x="672" y="852" type="line"/>
    </contour>
  </outline>
</glyph>
<glyph name="X" format="2">
  <advance width="945"/>
  <unicode hex="0058"/>
  <note>
X
</note>
  <anchor x="465" y="0" name="bottom"/>
  <anchor x="465" y="942" name="top"/>
  <outline>
    <contour>
      <point x="937" y="0" type="line"/>
      <point x="942" y="67" type="line"/>
      <point x="860" y="91" type="line"/>
      <point x="548" y="528" type="line"/>
      <point x="497" y="601" type="line"/>
      <point x="319" y="852" type="line"/>
      <point x="412" y="874" type="line"/>
      <point x="409" y="942" type="line"/>
      <point x="38" y="942" type="line"/>
      <point x="33" y="874" type="line"/>
      <point x="115" y="852" type="line"/>
      <point x="388" y="468" type="line"/>
      <point x="444" y="394" type="line"/>
      <point x="656" y="91" type="line"/>
      <point x="558" y="67" type="line"/>
      <point x="561" y="0" type="line"/>
    </contour>
    <contour>
      <point x="674" y="852" type="line"/>
      <point x="497" y="601" type="line"/>
      <point x="388" y="468" type="line"/>
      <point x="107" y="91" type="line"/>
      <point x="25" y="67" type="line"/>
      <point x="28" y="0" type="line"/>
      <point x="337" y="0" type="line"/>
      <point x="340" y="67" type="line"/>
      <point x="231" y="91" type="line"/>
      <point x="444" y="394" type="line"/>
      <point x="548" y="528" type="line"/>
      <point x="797" y="852" type="line"/>
      <point x="879" y="874" type="line"/>
      <point x="876" y="942" type="line"/>
      <point x="574" y="942" type="line"/>
      <point x="571" y="874" type="line"/>
    </contour>
  </outline>
</glyph>
<glyph name="Y" format="2">
  <advance width="887"/>
  <unicode hex="0059"/>
  <note>
Y
</note>
  <anchor x="442" y="0" name="bottom"/>
  <anchor x="442" y="942" name="top"/>
  <anchor x="33" y="942" name="topleft"/>
  <outline>
    <contour>
      <point x="805" y="852" type="line"/>
      <point x="887" y="874" type="line"/>
      <point x="882" y="942" type="line"/>
      <point x="582" y="942" type="line"/>
      <point x="577" y="874" type="line"/>
      <point x="690" y="852" type="line"/>
      <point x="470" y="481" type="line"/>
      <point x="499" y="481" type="line"/>
      <point x="272" y="852" type="line"/>
      <point x="370" y="874" type="line"/>
      <point x="365" y="942" type="line"/>
      <point x="4" y="942" type="line"/>
      <point x="1" y="874" type="line"/>
      <point x="81" y="852" type="line"/>
      <point x="401" y="332" type="line"/>
      <point x="362" y="457" type="line"/>
      <point x="362" y="303" type="line" smooth="yes"/>
      <point x="362" y="168"/>
      <point x="357" y="102"/>
      <point x="354" y="89" type="curve"/>
      <point x="242" y="69" type="line"/>
      <point x="247" y="0" type="line"/>
      <point x="640" y="0" type="line"/>
      <point x="643" y="69" type="line"/>
      <point x="531" y="89" type="line"/>
      <point x="528" y="102"/>
      <point x="523" y="168"/>
      <point x="523" y="303" type="curve" smooth="yes"/>
      <point x="523" y="457" type="line"/>
      <point x="473" y="332" type="line"/>
    </contour>
  </outline>
</glyph>
<glyph name="Z" format="2">
  <advance width="863"/>
  <unicode hex="005A"/>
  <note>
Z
</note>
  <anchor x="430" y="942" name="above"/>
  <anchor x="430" y="0" name="below"/>
  <outline>
    <contour>
      <point x="788" y="-6" type="curve"/>
      <point x="829" y="263" type="line"/>
      <point x="752" y="272" type="line"/>
      <point x="685" y="93" type="line"/>
      <point x="664" y="89"/>
      <point x="645" y="88"/>
      <point x="621" y="88" type="curve" smooth="yes"/>
      <point x="266" y="88" type="line"/>
      <point x="266" y="28" type="line"/>
      <point x="781" y="879" type="line"/>
      <point x="781" y="945" type="line"/>
      <point x="741" y="943"/>
      <point x="699" y="942"/>
      <point x="659" y="942" type="curve" smooth="yes"/>
      <point x="213" y="942" type="line" smooth="yes"/>
      <point x="173" y="942"/>
      <point x="121" y="942"/>
      <point x="72" y="943" type="curve"/>
      <point x="75" y="690" type="line"/>
      <point x="152" y="690" type="line"/>
      <point x="178" y="852" type="line"/>
      <point x="207" y="857"/>
      <point x="239" y="860"/>
      <point x="290" y="860" type="curve" smooth="yes"/>
      <point x="624" y="860" type="line"/>
      <point x="622" y="918" type="line"/>
      <point x="101" y="62" type="line"/>
      <point x="101" y="-3" type="line"/>
      <point x="141" y="-1"/>
      <point x="176" y="0"/>
      <point x="219" y="0" type="curve" smooth="yes"/>
      <point x="613" y="0" type="line" smooth="yes"/>
      <point x="664" y="0"/>
      <point x="738" y="-3"/>
    </contour>
  </outline>
</glyph>
<glyph name="bracketleft" format="2">
  <advance width="532"/>
  <unicode hex="005B"/>
  <note>
bracketleft
</note>
  <outline>
    <contour>
      <point x="468" y="-353" type="line"/>
      <point x="468" y="-271" type="line"/>
      <point x="312" y="-271" type="line"/>
      <point x="312" y="1076" type="line"/>
      <point x="468" y="1076" type="line"/>
      <point x="468" y="1158" type="line"/>
      <point x="162" y="1158" type="line"/>
      <point x="162" y="-353" type="line"/>
    </contour>
  </outline>
</glyph>
<glyph name="backslash" format="2">
  <advance width="613"/>
  <unicode hex="005C"/>
  <note>
backslash
</note>
  <outline>
    <contour>
      <point x="576" y="-288" type="line"/>
      <point x="93" y="1168" type="line"/>
      <point x="-27" y="1168" type="line"/>
      <point x="455" y="-288" type="line"/>
    </contour>
  </outline>
</glyph>
<glyph name="bracketright" format="2">
  <advance width="532"/>
  <unicode hex="005D"/>
  <note>
bracketright
</note>
  <outline>
    <contour>
      <point x="64" y="-353" type="line"/>
      <point x="370" y="-353" type="line"/>
      <point x="370" y="1158" type="line"/>
      <point x="64" y="1158" type="line"/>
      <point x="64" y="1076" type="line"/>
      <point x="218" y="1076" type="line"/>
      <point x="218" y="-271" type="line"/>
      <point x="64" y="-271" type="line"/>
    </contour>
  </outline>
</glyph>
<glyph name="asciicircum" format="2">
  <advance width="866"/>
  <unicode hex="005E"/>
  <outline>
    <contour>
      <point x="492" y="898" type="line"/>
      <point x="377" y="898" type="line"/>
      <point x="73" y="202" type="line"/>
      <point x="192" y="202" type="line"/>
      <point x="471" y="847" type="line"/>
      <point x="396" y="847" type="line"/>
      <point x="675" y="202" type="line"/>
      <point x="794" y="202" type="line"/>
    </contour>
  </outline>
</glyph>
<glyph name="underscore" format="2">
  <advance width="688"/>
  <unicode hex="005F"/>
  <note>
underscore
</note>
  <outline>
    <contour>
      <point x="35" y="-101" type="line"/>
      <point x="653" y="-101" type="line"/>
      <point x="653" y="0" type="line"/>
      <point x="35" y="0" type="line"/>
    </contour>
  </outline>
</glyph>
<glyph name="a" format="2">
  <advance width="771"/>
  <unicode hex="0061"/>
  <note>
a
</note>
  <anchor x="375" y="694" name="above"/>
  <anchor x="393" y="0" name="below"/>
  <anchor x="693" y="0" name="ogonek"/>
  <outline>
    <contour>
      <point x="308" y="-12" type="curve" smooth="yes"/>
      <point x="375" y="-12"/>
      <point x="441" y="28"/>
      <point x="510" y="109" type="curve"/>
      <point x="483" y="112" type="line"/>
      <point x="503" y="44" type="line" smooth="yes"/>
      <point x="516" y="6"/>
      <point x="540" y="-12"/>
      <point x="576" y="-12" type="curve" smooth="yes"/>
      <point x="597" y="-12"/>
      <point x="624" y="-4"/>
      <point x="658" y="8" type="curve" smooth="yes"/>
      <point x="744" y="41" type="line"/>
      <point x="744" y="97" type="line"/>
      <point x="642" y="117" type="line"/>
      <point x="633" y="136"/>
      <point x="630" y="176"/>
      <point x="630" y="223" type="curve"/>
      <point x="635" y="476" type="line"/>
      <point x="633" y="614"/>
      <point x="524" y="707"/>
      <point x="356" y="707" type="curve"/>
      <point x="245" y="691"/>
      <point x="86" y="600"/>
      <point x="86" y="528" type="curve" smooth="yes"/>
      <point x="86" y="470"/>
      <point x="152" y="442"/>
      <point x="239" y="462" type="curve"/>
      <point x="243" y="539" type="line" smooth="yes"/>
      <point x="247" y="598"/>
      <point x="260" y="614"/>
      <point x="309" y="614" type="curve" smooth="yes"/>
      <point x="401" y="614"/>
      <point x="479" y="550"/>
      <point x="479" y="475" type="curve" smooth="yes"/>
      <point x="479" y="401" type="line"/>
      <point x="232" y="321" type="line" smooth="yes"/>
      <point x="126" y="287"/>
      <point x="83" y="242"/>
      <point x="83" y="168" type="curve" smooth="yes"/>
      <point x="83" y="85"/>
      <point x="171" y="-12"/>
    </contour>
    <contour>
      <point x="364" y="97" type="curve" smooth="yes"/>
      <point x="301" y="97"/>
      <point x="250" y="147"/>
      <point x="250" y="200" type="curve" smooth="yes"/>
      <point x="250" y="243"/>
      <point x="271" y="269"/>
      <point x="322" y="282" type="curve" smooth="yes"/>
      <point x="479" y="321" type="line"/>
      <point x="479" y="155" type="line"/>
      <point x="444" y="117"/>
      <point x="407" y="97"/>
    </contour>
  </outline>
</glyph>
<glyph name="b" format="2">
  <advance width="860"/>
  <unicode hex="0062"/>
  <note>
b
</note>
  <anchor x="430" y="0" name="bottom"/>
  <anchor x="430" y="1059" name="top"/>
  <outline>
    <contour>
      <point x="120" y="43" type="curve"/>
      <point x="199" y="9"/>
      <point x="293" y="-12"/>
      <point x="390" y="-12" type="curve" smooth="yes"/>
      <point x="622" y="-12"/>
      <point x="799" y="152"/>
      <point x="799" y="378" type="curve" smooth="yes"/>
      <point x="799" y="585"/>
      <point x="659" y="707"/>
      <point x="500" y="707" type="curve" smooth="yes"/>
      <point x="409" y="707"/>
      <point x="325" y="654"/>
      <point x="276" y="587" type="curve"/>
      <point x="271" y="589" type="line"/>
      <point x="276" y="845"/>
      <point x="277" y="956"/>
      <point x="284" y="1091" type="curve"/>
      <point x="248" y="1115" type="line"/>
      <point x="-3" y="1046" type="line"/>
      <point x="0" y="988" type="line"/>
      <point x="118" y="974" type="line"/>
      <point x="121" y="932"/>
      <point x="125" y="744"/>
      <point x="125" y="582" type="curve"/>
      <point x="125" y="332" type="line"/>
      <point x="125" y="232"/>
      <point x="125" y="154"/>
    </contour>
    <contour>
      <point x="426" y="80" type="curve" smooth="yes"/>
      <point x="364" y="80"/>
      <point x="312" y="99"/>
      <point x="274" y="128" type="curve"/>
      <point x="274" y="508" type="line"/>
      <point x="314" y="560"/>
      <point x="372" y="585"/>
      <point x="431" y="585" type="curve" smooth="yes"/>
      <point x="542" y="585"/>
      <point x="633" y="510"/>
      <point x="632" y="345" type="curve" smooth="yes"/>
      <point x="630" y="170"/>
      <point x="544" y="80"/>
    </contour>
  </outline>
</glyph>
<glyph name="c" format="2">
  <advance width="699"/>
  <unicode hex="0063"/>
  <note>
c
</note>
  <anchor x="402" y="0" name="bottom"/>
  <anchor x="402" y="694" name="top"/>
  <outline>
    <contour>
      <point x="402" y="-12" type="curve" smooth="yes"/>
      <point x="523" y="-12"/>
      <point x="622" y="44"/>
      <point x="683" y="163" type="curve"/>
      <point x="638" y="203" type="line"/>
      <point x="584" y="136"/>
      <point x="528" y="110"/>
      <point x="452" y="110" type="curve" smooth="yes"/>
      <point x="327" y="110"/>
      <point x="231" y="202"/>
      <point x="231" y="370" type="curve" smooth="yes"/>
      <point x="231" y="564"/>
      <point x="353" y="653"/>
      <point x="470" y="629" type="curve"/>
      <point x="406" y="646" type="line"/>
      <point x="499" y="556" type="line" smooth="yes"/>
      <point x="536" y="520"/>
      <point x="558" y="508"/>
      <point x="595" y="508" type="curve" smooth="yes"/>
      <point x="637" y="508"/>
      <point x="664" y="534"/>
      <point x="664" y="576" type="curve" smooth="yes"/>
      <point x="664" y="645"/>
      <point x="576" y="707"/>
      <point x="436" y="707" type="curve" smooth="yes"/>
      <point x="221" y="707"/>
      <point x="62" y="540"/>
      <point x="62" y="332" type="curve" smooth="yes"/>
      <point x="62" y="120"/>
      <point x="215" y="-12"/>
    </contour>
  </outline>
</glyph>
<glyph name="d" format="2">
  <advance width="875"/>
  <unicode hex="0064"/>
  <note>
d
</note>
  <anchor x="462" y="0" name="bottom"/>
  <anchor x="439" y="346" name="center"/>
  <anchor x="563" y="832" name="stroke"/>
  <anchor x="439" y="1059" name="top"/>
  <anchor x="794" y="1104" name="topright"/>
  <outline>
    <contour>
      <point x="613" y="-17" type="line"/>
      <point x="844" y="40" type="line"/>
      <point x="844" y="97" type="line"/>
      <point x="739" y="123" type="line"/>
      <point x="736" y="157"/>
      <point x="728" y="232"/>
      <point x="728" y="341" type="curve"/>
      <point x="730" y="712" type="line" smooth="yes"/>
      <point x="730" y="844"/>
      <point x="733" y="958"/>
      <point x="739" y="1091" type="curve"/>
      <point x="706" y="1115" type="line"/>
      <point x="447" y="1046" type="line"/>
      <point x="451" y="987" type="line"/>
      <point x="574" y="966" type="line"/>
      <point x="577" y="926"/>
      <point x="581" y="746"/>
      <point x="581" y="669" type="curve"/>
      <point x="542" y="694"/>
      <point x="481" y="706"/>
      <point x="428" y="706" type="curve" smooth="yes"/>
      <point x="242" y="706"/>
      <point x="60" y="556"/>
      <point x="60" y="322" type="curve" smooth="yes"/>
      <point x="60" y="125"/>
      <point x="199" y="-12"/>
      <point x="378" y="-12" type="curve" smooth="yes"/>
      <point x="451" y="-12"/>
      <point x="518" y="19"/>
      <point x="579" y="109" type="curve"/>
      <point x="584" y="107" type="line"/>
      <point x="582" y="3" type="line"/>
    </contour>
    <contour>
      <point x="430" y="109" type="curve" smooth="yes"/>
      <point x="317" y="109"/>
      <point x="227" y="203"/>
      <point x="227" y="369" type="curve" smooth="yes"/>
      <point x="227" y="524"/>
      <point x="306" y="627"/>
      <point x="430" y="627" type="curve" smooth="yes"/>
      <point x="484" y="627"/>
      <point x="544" y="603"/>
      <point x="581" y="540" type="curve"/>
      <point x="581" y="192" type="line"/>
      <point x="532" y="130"/>
      <point x="483" y="109"/>
    </contour>
  </outline>
</glyph>
<glyph name="e" format="2">
  <advance width="735"/>
  <unicode hex="0065"/>
  <note>
e
</note>
  <anchor x="391" y="0" name="bottom"/>
  <anchor x="597" y="0" name="ogonek"/>
  <anchor x="391" y="694" name="top"/>
  <outline>
    <contour>
      <point x="402" y="-12" type="curve" smooth="yes"/>
      <point x="523" y="-12"/>
      <point x="622" y="44"/>
      <point x="683" y="162" type="curve"/>
      <point x="640" y="202" type="line"/>
      <point x="584" y="134"/>
      <point x="528" y="109"/>
      <point x="454" y="109" type="curve" smooth="yes"/>
      <point x="317" y="109"/>
      <point x="224" y="211"/>
      <point x="224" y="378" type="curve" smooth="yes"/>
      <point x="224" y="402" type="line" smooth="yes"/>
      <point x="224" y="556"/>
      <point x="303" y="633"/>
      <point x="391" y="633" type="curve" smooth="yes"/>
      <point x="481" y="633"/>
      <point x="537" y="566"/>
      <point x="537" y="449" type="curve" smooth="yes"/>
      <point x="537" y="409" type="line"/>
      <point x="558" y="436" type="line"/>
      <point x="195" y="436" type="line"/>
      <point x="195" y="361" type="line"/>
      <point x="680" y="361" type="line"/>
      <point x="680" y="393" type="line" smooth="yes"/>
      <point x="680" y="585"/>
      <point x="581" y="706"/>
      <point x="404" y="707" type="curve" smooth="yes"/>
      <point x="226" y="709"/>
      <point x="64" y="560"/>
      <point x="64" y="335" type="curve" smooth="yes"/>
      <point x="64" y="125"/>
      <point x="210" y="-12"/>
    </contour>
  </outline>
</glyph>
<glyph name="f" format="2">
  <advance width="499"/>
  <unicode hex="0066"/>
  <note>
f
</note>
  <outline>
    <contour>
      <point x="431" y="0" type="line"/>
      <point x="436" y="64" type="line"/>
      <point x="304" y="88" type="line"/>
      <point x="301" y="147"/>
      <point x="298" y="256"/>
      <point x="298" y="354" type="curve"/>
      <point x="296" y="605" type="line"/>
      <point x="293" y="691" type="line"/>
      <point x="293" y="829" type="line" smooth="yes"/>
      <point x="293" y="979"/>
      <point x="335" y="1060"/>
      <point x="409" y="1060" type="curve"/>
      <point x="361" y="1070" type="line"/>
      <point x="439" y="995" type="line" smooth="yes"/>
      <point x="468" y="969"/>
      <point x="491" y="958"/>
      <point x="521" y="958" type="curve" smooth="yes"/>
      <point x="556" y="958"/>
      <point x="582" y="979"/>
      <point x="582" y="1014" type="curve" smooth="yes"/>
      <point x="582" y="1075"/>
      <point x="511" y="1120"/>
      <point x="418" y="1120" type="curve" smooth="yes"/>
      <point x="256" y="1120"/>
      <point x="146" y="982"/>
      <point x="146" y="776" type="curve" smooth="yes"/>
      <point x="146" y="605" type="line"/>
      <point x="147" y="345" type="line"/>
      <point x="147" y="186"/>
      <point x="147" y="136"/>
      <point x="144" y="88" type="curve"/>
      <point x="44" y="62" type="line"/>
      <point x="49" y="0" type="line"/>
    </contour>
    <contour>
      <point x="30" y="605" type="line"/>
      <point x="470" y="605" type="line"/>
      <point x="470" y="691" type="line"/>
      <point x="256" y="691" type="line"/>
      <point x="146" y="693" type="line"/>
      <point x="30" y="664" type="line"/>
    </contour>
  </outline>
</glyph>
<glyph name="g" format="2">
  <advance width="804"/>
  <unicode hex="0067"/>
  <note>
g
</note>
  <anchor x="396" y="-353" name="bottom"/>
  <anchor x="390" y="694" name="top"/>
  <outline>
    <contour>
      <point x="375" y="-365" type="curve" smooth="yes"/>
      <point x="589" y="-365"/>
      <point x="752" y="-250"/>
      <point x="752" y="-102" type="curve" smooth="yes"/>
      <point x="752" y="8"/>
      <point x="675" y="72"/>
      <point x="521" y="86" type="curve" smooth="yes"/>
      <point x="303" y="109" type="line" smooth="yes"/>
      <point x="260" y="112"/>
      <point x="235" y="133"/>
      <point x="235" y="160" type="curve" smooth="yes"/>
      <point x="235" y="181"/>
      <point x="253" y="200"/>
      <point x="288" y="226" type="curve"/>
      <point x="266" y="256" type="line"/>
      <point x="162" y="216"/>
      <point x="99" y="157"/>
      <point x="99" y="96" type="curve" smooth="yes"/>
      <point x="99" y="33"/>
      <point x="162" y="-12"/>
      <point x="250" y="-12" type="curve"/>
      <point x="271" y="-20" type="line"/>
      <point x="451" y="-35" type="line" smooth="yes"/>
      <point x="564" y="-44"/>
      <point x="609" y="-75"/>
      <point x="609" y="-141" type="curve" smooth="yes"/>
      <point x="609" y="-229"/>
      <point x="516" y="-292"/>
      <point x="385" y="-292" type="curve" smooth="yes"/>
      <point x="266" y="-292"/>
      <point x="195" y="-245"/>
      <point x="195" y="-165" type="curve" smooth="yes"/>
      <point x="195" y="-105"/>
      <point x="234" y="-52"/>
      <point x="298" y="-12" type="curve"/>
      <point x="234" y="-1" type="line"/>
      <point x="105" y="-57"/>
      <point x="43" y="-117"/>
      <point x="43" y="-189" type="curve" smooth="yes"/>
      <point x="43" y="-296"/>
      <point x="170" y="-365"/>
    </contour>
    <contour>
      <point x="386" y="195" type="curve" smooth="yes"/>
      <point x="556" y="195"/>
      <point x="683" y="304"/>
      <point x="683" y="451" type="curve" smooth="yes"/>
      <point x="683" y="597"/>
      <point x="558" y="707"/>
      <point x="388" y="707" type="curve" smooth="yes"/>
      <point x="216" y="707"/>
      <point x="85" y="593"/>
      <point x="85" y="439" type="curve" smooth="yes"/>
      <point x="85" y="296"/>
      <point x="208" y="195"/>
    </contour>
    <contour>
      <point x="396" y="269" type="curve" smooth="yes"/>
      <point x="309" y="269"/>
      <point x="250" y="343"/>
      <point x="250" y="454" type="curve" smooth="yes"/>
      <point x="250" y="561"/>
      <point x="306" y="635"/>
      <point x="386" y="635" type="curve" smooth="yes"/>
      <point x="471" y="635"/>
      <point x="528" y="558"/>
      <point x="528" y="441" type="curve" smooth="yes"/>
      <point x="528" y="335"/>
      <point x="476" y="269"/>
    </contour>
    <contour>
      <point x="778" y="581" type="line"/>
      <point x="778" y="691" type="line"/>
      <point x="516" y="664" type="line"/>
      <point x="577" y="597" type="line"/>
    </contour>
  </outline>
</glyph>
<glyph name="h" format="2">
  <advance width="901"/>
  <unicode hex="0068"/>
  <note>
h
</note>
  <anchor x="221" y="1059" name="above"/>
  <anchor x="455" y="0" name="below"/>
  <anchor x="317" y="832" name="stroke"/>
  <outline>
    <contour>
      <point x="43" y="0" type="line"/>
      <point x="399" y="0" type="line"/>
      <point x="402" y="62" type="line"/>
      <point x="304" y="88" type="line"/>
      <point x="300" y="104"/>
      <point x="296" y="171"/>
      <point x="296" y="264" type="curve" smooth="yes"/>
      <point x="296" y="503" type="line"/>
      <point x="337" y="560"/>
      <point x="396" y="592"/>
      <point x="460" y="592" type="curve" smooth="yes"/>
      <point x="539" y="592"/>
      <point x="613" y="537"/>
      <point x="613" y="406" type="curve" smooth="yes"/>
      <point x="613" y="245" type="line" smooth="yes"/>
      <point x="613" y="166"/>
      <point x="609" y="112"/>
      <point x="606" y="88" type="curve"/>
      <point x="513" y="62" type="line"/>
      <point x="518" y="0" type="line"/>
      <point x="866" y="0" type="line"/>
      <point x="871" y="62" type="line"/>
      <point x="772" y="88" type="line"/>
      <point x="767" y="109"/>
      <point x="762" y="178"/>
      <point x="762" y="253" type="curve" smooth="yes"/>
      <point x="762" y="423" type="line" smooth="yes"/>
      <point x="762" y="613"/>
      <point x="651" y="707"/>
      <point x="529" y="707" type="curve" smooth="yes"/>
      <point x="442" y="707"/>
      <point x="369" y="670"/>
      <point x="298" y="589" type="curve"/>
      <point x="293" y="590" type="line"/>
      <point x="296" y="847"/>
      <point x="298" y="958"/>
      <point x="304" y="1091" type="curve"/>
      <point x="269" y="1115" type="line"/>
      <point x="17" y="1046" type="line"/>
      <point x="20" y="988" type="line"/>
      <point x="139" y="972" type="line"/>
      <point x="144" y="922"/>
      <point x="147" y="727"/>
      <point x="147" y="581" type="curve" smooth="yes"/>
      <point x="147" y="380" type="line" smooth="yes"/>
      <point x="147" y="224"/>
      <point x="142" y="118"/>
      <point x="138" y="88" type="curve"/>
      <point x="38" y="62" type="line"/>
    </contour>
  </outline>
</glyph>
<glyph name="k" format="2">
  <advance width="819"/>
  <unicode hex="006B"/>
  <note>
k
</note>
  <anchor x="223" y="1059" name="above"/>
  <anchor x="434" y="0" name="below"/>
  <outline>
    <contour>
      <point x="51" y="0" type="line"/>
      <point x="398" y="0" type="line"/>
      <point x="401" y="62" type="line"/>
      <point x="301" y="88" type="line"/>
      <point x="300" y="102"/>
      <point x="295" y="157"/>
      <point x="295" y="240" type="curve"/>
      <point x="296" y="624" type="line"/>
      <point x="296" y="837"/>
      <point x="298" y="953"/>
      <point x="306" y="1091" type="curve"/>
      <point x="269" y="1115" type="line"/>
      <point x="19" y="1046" type="line"/>
      <point x="22" y="988" type="line"/>
      <point x="141" y="972" type="line"/>
      <point x="142" y="924"/>
      <point x="147" y="739"/>
      <point x="147" y="582" type="curve" smooth="yes"/>
      <point x="147" y="357" type="line" smooth="yes"/>
      <point x="147" y="229"/>
      <point x="142" y="118"/>
      <point x="138" y="88" type="curve"/>
      <point x="46" y="62" type="line"/>
    </contour>
    <contour>
      <point x="818" y="0" type="line"/>
      <point x="823" y="64" type="line"/>
      <point x="754" y="78" type="line"/>
      <point x="733" y="97"/>
      <point x="693" y="138"/>
      <point x="662" y="171" type="curve" smooth="yes"/>
      <point x="428" y="426" type="line"/>
      <point x="407" y="364" type="line"/>
      <point x="688" y="611" type="line"/>
      <point x="794" y="630" type="line"/>
      <point x="789" y="694" type="line"/>
      <point x="457" y="694" type="line"/>
      <point x="454" y="630" type="line"/>
      <point x="560" y="611" type="line"/>
      <point x="330" y="390" type="line"/>
      <point x="274" y="373" type="line"/>
      <point x="272" y="329" type="line"/>
      <point x="316" y="329" type="line"/>
      <point x="526" y="97" type="line" smooth="yes"/>
      <point x="550" y="72"/>
      <point x="571" y="49"/>
      <point x="608" y="0" type="curve"/>
    </contour>
  </outline>
</glyph>
<glyph name="l" format="2">
  <advance width="445"/>
  <unicode hex="006C"/>
  <note>
l
</note>
  <anchor x="223" y="0" name="bottom"/>
  <anchor x="223" y="556" name="center"/>
  <anchor x="473" y="556" name="dotacc"/>
  <anchor x="223" y="1059" name="top"/>
  <anchor x="364" y="1104" name="topright"/>
  <outline>
    <contour>
      <point x="38" y="0" type="line"/>
      <point x="407" y="0" type="line"/>
      <point x="410" y="64" type="line"/>
      <point x="306" y="88" type="line"/>
      <point x="301" y="112"/>
      <point x="298" y="227"/>
      <point x="298" y="362" type="curve"/>
      <point x="300" y="613" type="line" smooth="yes"/>
      <point x="300" y="844"/>
      <point x="303" y="954"/>
      <point x="308" y="1091" type="curve"/>
      <point x="272" y="1115" type="line"/>
      <point x="17" y="1046" type="line"/>
      <point x="20" y="988" type="line"/>
      <point x="139" y="972" type="line"/>
      <point x="144" y="926"/>
      <point x="147" y="738"/>
      <point x="147" y="582" type="curve" smooth="yes"/>
      <point x="147" y="380" type="line" smooth="yes"/>
      <point x="147" y="224"/>
      <point x="142" y="117"/>
      <point x="138" y="88" type="curve"/>
      <point x="33" y="64" type="line"/>
    </contour>
  </outline>
</glyph>
<glyph name="m" format="2">
  <advance width="1342"/>
  <unicode hex="006D"/>
  <note>
m
</note>
  <anchor x="675" y="694" name="above"/>
  <anchor x="675" y="0" name="below"/>
  <outline>
    <contour>
      <point x="44" y="0" type="line"/>
      <point x="394" y="0" type="line"/>
      <point x="399" y="62" type="line"/>
      <point x="306" y="88" type="line"/>
      <point x="301" y="107"/>
      <point x="298" y="174"/>
      <point x="298" y="264" type="curve" smooth="yes"/>
      <point x="298" y="503" type="line"/>
      <point x="338" y="563"/>
      <point x="394" y="592"/>
      <point x="455" y="592" type="curve" smooth="yes"/>
      <point x="532" y="592"/>
      <point x="600" y="542"/>
      <point x="600" y="414" type="curve"/>
      <point x="601" y="245" type="line"/>
      <point x="601" y="166"/>
      <point x="598" y="112"/>
      <point x="595" y="88" type="curve"/>
      <point x="508" y="62" type="line"/>
      <point x="513" y="0" type="line"/>
      <point x="849" y="0" type="line"/>
      <point x="853" y="62" type="line"/>
      <point x="760" y="88" type="line"/>
      <point x="754" y="109"/>
      <point x="751" y="178"/>
      <point x="751" y="253" type="curve"/>
      <point x="749" y="422" type="line"/>
      <point x="749" y="616"/>
      <point x="630" y="707"/>
      <point x="515" y="707" type="curve" smooth="yes"/>
      <point x="438" y="707"/>
      <point x="365" y="672"/>
      <point x="298" y="587" type="curve"/>
      <point x="293" y="589" type="line"/>
      <point x="303" y="677" type="line"/>
      <point x="269" y="704" type="line"/>
      <point x="32" y="640" type="line"/>
      <point x="32" y="581" type="line"/>
      <point x="134" y="558" type="line"/>
      <point x="142" y="513"/>
      <point x="149" y="446"/>
      <point x="149" y="378" type="curve"/>
      <point x="147" y="255" type="line" smooth="yes"/>
      <point x="146" y="150"/>
      <point x="142" y="104"/>
      <point x="139" y="88" type="curve"/>
      <point x="40" y="62" type="line"/>
    </contour>
    <contour>
      <point x="961" y="0" type="line"/>
      <point x="1304" y="0" type="line"/>
      <point x="1309" y="62" type="line"/>
      <point x="1210" y="88" type="line"/>
      <point x="1203" y="109"/>
      <point x="1200" y="178"/>
      <point x="1200" y="253" type="curve"/>
      <point x="1200" y="430" type="line"/>
      <point x="1200" y="601"/>
      <point x="1096" y="707"/>
      <point x="954" y="707" type="curve" smooth="yes"/>
      <point x="857" y="707"/>
      <point x="772" y="658"/>
      <point x="698" y="556" type="curve"/>
      <point x="733" y="495" type="line"/>
      <point x="776" y="560"/>
      <point x="834" y="592"/>
      <point x="902" y="592" type="curve" smooth="yes"/>
      <point x="975" y="592"/>
      <point x="1051" y="542"/>
      <point x="1051" y="407" type="curve"/>
      <point x="1052" y="245" type="line"/>
      <point x="1052" y="166"/>
      <point x="1048" y="112"/>
      <point x="1044" y="88" type="curve"/>
      <point x="956" y="62" type="line"/>
    </contour>
  </outline>
</glyph>
<glyph name="n" format="2">
  <advance width="901"/>
  <unicode hex="006E"/>
  <note>
n
</note>
  <anchor x="455" y="694" name="above"/>
  <anchor x="455" y="0" name="below"/>
  <outline>
    <contour>
      <point x="43" y="0" type="line"/>
      <point x="399" y="0" type="line"/>
      <point x="404" y="62" type="line"/>
      <point x="304" y="88" type="line"/>
      <point x="300" y="107"/>
      <point x="296" y="173"/>
      <point x="296" y="264" type="curve" smooth="yes"/>
      <point x="296" y="503" type="line"/>
      <point x="337" y="560"/>
      <point x="394" y="592"/>
      <point x="460" y="592" type="curve" smooth="yes"/>
      <point x="536" y="592"/>
      <point x="613" y="540"/>
      <point x="613" y="406" type="curve" smooth="yes"/>
      <point x="613" y="245" type="line" smooth="yes"/>
      <point x="613" y="166"/>
      <point x="609" y="112"/>
      <point x="606" y="88" type="curve"/>
      <point x="513" y="62" type="line"/>
      <point x="516" y="0" type="line"/>
      <point x="866" y="0" type="line"/>
      <point x="871" y="62" type="line"/>
      <point x="772" y="88" type="line"/>
      <point x="765" y="107"/>
      <point x="762" y="178"/>
      <point x="762" y="253" type="curve" smooth="yes"/>
      <point x="762" y="426" type="line" smooth="yes"/>
      <point x="762" y="613"/>
      <point x="651" y="707"/>
      <point x="529" y="707" type="curve" smooth="yes"/>
      <point x="442" y="707"/>
      <point x="369" y="670"/>
      <point x="296" y="589" type="curve"/>
      <point x="292" y="590" type="line"/>
      <point x="301" y="677" type="line"/>
      <point x="268" y="704" type="line"/>
      <point x="30" y="640" type="line"/>
      <point x="30" y="581" type="line"/>
      <point x="133" y="558" type="line"/>
      <point x="141" y="513"/>
      <point x="147" y="447"/>
      <point x="147" y="378" type="curve"/>
      <point x="146" y="255" type="line" smooth="yes"/>
      <point x="144" y="154"/>
      <point x="141" y="104"/>
      <point x="138" y="88" type="curve"/>
      <point x="38" y="62" type="line"/>
    </contour>
  </outline>
</glyph>
<glyph name="o" format="2">
  <advance width="827"/>
  <unicode hex="006F"/>
  <note>
o
</note>
  <anchor x="414" y="0" name="bottom"/>
  <anchor x="414" y="346" name="center"/>
  <anchor x="528" y="0" name="ogonek"/>
  <anchor x="414" y="694" name="top"/>
  <anchor x="802" y="694" name="topright"/>
  <outline>
    <contour>
      <point x="418" y="-12" type="curve" smooth="yes"/>
      <point x="613" y="-12"/>
      <point x="765" y="147"/>
      <point x="765" y="353" type="curve" smooth="yes"/>
      <point x="765" y="563"/>
      <point x="629" y="707"/>
      <point x="425" y="707" type="curve" smooth="yes"/>
      <point x="229" y="707"/>
      <point x="62" y="566"/>
      <point x="62" y="343" type="curve" smooth="yes"/>
      <point x="62" y="133"/>
      <point x="205" y="-12"/>
    </contour>
    <contour>
      <point x="434" y="70" type="curve" smooth="yes"/>
      <point x="317" y="70"/>
      <point x="232" y="197"/>
      <point x="232" y="375" type="curve" smooth="yes"/>
      <point x="232" y="528"/>
      <point x="300" y="627"/>
      <point x="404" y="627" type="curve" smooth="yes"/>
      <point x="520" y="627"/>
      <point x="597" y="502"/>
      <point x="597" y="317" type="curve" smooth="yes"/>
      <point x="597" y="168"/>
      <point x="534" y="70"/>
    </contour>
  </outline>
</glyph>
<glyph name="p" format="2">
  <advance width="874"/>
  <unicode hex="0070"/>
  <note>
p
</note>
  <anchor x="439" y="694" name="above"/>
  <outline>
    <contour>
      <point x="40" y="-353" type="line"/>
      <point x="428" y="-353" type="line"/>
      <point x="433" y="-287" type="line"/>
      <point x="301" y="-264" type="line"/>
      <point x="298" y="-242"/>
      <point x="295" y="-179"/>
      <point x="295" y="-101" type="curve" smooth="yes"/>
      <point x="295" y="14" type="line"/>
      <point x="335" y="-1"/>
      <point x="390" y="-11"/>
      <point x="434" y="-11" type="curve" smooth="yes"/>
      <point x="653" y="-11"/>
      <point x="810" y="155"/>
      <point x="810" y="369" type="curve" smooth="yes"/>
      <point x="810" y="571"/>
      <point x="678" y="707"/>
      <point x="510" y="707" type="curve" smooth="yes"/>
      <point x="426" y="707"/>
      <point x="351" y="662"/>
      <point x="295" y="585" type="curve"/>
      <point x="290" y="587" type="line"/>
      <point x="300" y="677" type="line"/>
      <point x="266" y="704" type="line"/>
      <point x="28" y="640" type="line"/>
      <point x="28" y="581" type="line"/>
      <point x="131" y="558" type="line"/>
      <point x="139" y="513"/>
      <point x="146" y="449"/>
      <point x="146" y="385" type="curve" smooth="yes"/>
      <point x="142" y="14" type="line" smooth="yes"/>
      <point x="141" y="-146"/>
      <point x="136" y="-243"/>
      <point x="134" y="-264" type="curve"/>
      <point x="35" y="-290" type="line"/>
    </contour>
    <contour>
      <point x="439" y="78" type="curve" smooth="yes"/>
      <point x="386" y="78"/>
      <point x="332" y="94"/>
      <point x="295" y="123" type="curve"/>
      <point x="295" y="503" type="line"/>
      <point x="335" y="556"/>
      <point x="390" y="585"/>
      <point x="449" y="585" type="curve" smooth="yes"/>
      <point x="560" y="585"/>
      <point x="645" y="487"/>
      <point x="643" y="332" type="curve" smooth="yes"/>
      <point x="640" y="165"/>
      <point x="560" y="78"/>
    </contour>
  </outline>
</glyph>
<glyph name="q" format="2">
  <advance width="850"/>
  <unicode hex="0071"/>
  <note>
q
</note>
  <anchor x="441" y="694" name="top"/>
  <outline>
    <contour>
      <point x="467" y="-353" type="line"/>
      <point x="834" y="-353" type="line"/>
      <point x="839" y="-290" type="line"/>
      <point x="739" y="-264" type="line"/>
      <point x="736" y="-242"/>
      <point x="733" y="-170"/>
      <point x="731" y="-36" type="curve" smooth="yes"/>
      <point x="727" y="354" type="line" smooth="yes"/>
      <point x="725" y="495"/>
      <point x="728" y="613"/>
      <point x="731" y="715" type="curve"/>
      <point x="678" y="715" type="line"/>
      <point x="621" y="664" type="line"/>
      <point x="569" y="691"/>
      <point x="507" y="706"/>
      <point x="438" y="706" type="curve" smooth="yes"/>
      <point x="251" y="706"/>
      <point x="64" y="568"/>
      <point x="64" y="322" type="curve" smooth="yes"/>
      <point x="64" y="125"/>
      <point x="194" y="-12"/>
      <point x="378" y="-12" type="curve" smooth="yes"/>
      <point x="449" y="-12"/>
      <point x="520" y="22"/>
      <point x="577" y="105" type="curve"/>
      <point x="582" y="104" type="line"/>
      <point x="582" y="-94" type="line" smooth="yes"/>
      <point x="582" y="-192"/>
      <point x="579" y="-229"/>
      <point x="577" y="-264" type="curve"/>
      <point x="462" y="-290" type="line"/>
    </contour>
    <contour>
      <point x="428" y="109" type="curve" smooth="yes"/>
      <point x="314" y="109"/>
      <point x="229" y="203"/>
      <point x="229" y="369" type="curve" smooth="yes"/>
      <point x="229" y="540"/>
      <point x="322" y="627"/>
      <point x="431" y="627" type="curve" smooth="yes"/>
      <point x="483" y="627"/>
      <point x="542" y="606"/>
      <point x="579" y="555" type="curve"/>
      <point x="577" y="192" type="line"/>
      <point x="529" y="130"/>
      <point x="483" y="109"/>
    </contour>
  </outline>
</glyph>
<glyph name="r" format="2">
  <advance width="606"/>
  <unicode hex="0072"/>
  <note>
r
</note>
  <anchor x="224" y="0" name="bottom"/>
  <anchor x="285" y="694" name="top"/>
  <outline>
    <contour>
      <point x="44" y="0" type="line"/>
      <point x="444" y="0" type="line"/>
      <point x="447" y="65" type="line"/>
      <point x="308" y="88" type="line"/>
      <point x="304" y="118"/>
      <point x="300" y="213"/>
      <point x="298" y="306" type="curve" smooth="yes"/>
      <point x="296" y="447" type="line"/>
      <point x="325" y="508"/>
      <point x="359" y="552"/>
      <point x="398" y="577" type="curve"/>
      <point x="364" y="585" type="line"/>
      <point x="401" y="548"/>
      <point x="436" y="532"/>
      <point x="479" y="532" type="curve" smooth="yes"/>
      <point x="536" y="532"/>
      <point x="579" y="564"/>
      <point x="579" y="621" type="curve" smooth="yes"/>
      <point x="579" y="675"/>
      <point x="539" y="702"/>
      <point x="486" y="702" type="curve" smooth="yes"/>
      <point x="425" y="702"/>
      <point x="357" y="667"/>
      <point x="295" y="547" type="curve"/>
      <point x="290" y="548" type="line"/>
      <point x="296" y="680" type="line"/>
      <point x="268" y="704" type="line"/>
      <point x="32" y="640" type="line"/>
      <point x="32" y="581" type="line"/>
      <point x="134" y="558" type="line"/>
      <point x="142" y="513"/>
      <point x="149" y="447"/>
      <point x="149" y="378" type="curve"/>
      <point x="147" y="255" type="line" smooth="yes"/>
      <point x="146" y="155"/>
      <point x="142" y="102"/>
      <point x="139" y="88" type="curve"/>
      <point x="40" y="62" type="line"/>
    </contour>
  </outline>
</glyph>
<glyph name="s" format="2">
  <advance width="650"/>
  <unicode hex="0073"/>
  <note>
s
</note>
  <anchor x="332" y="694" name="above"/>
  <anchor x="325" y="0" name="below"/>
  <outline>
    <contour>
      <point x="312" y="-12" type="curve" smooth="yes"/>
      <point x="478" y="-12"/>
      <point x="597" y="70"/>
      <point x="597" y="192" type="curve" smooth="yes"/>
      <point x="597" y="284"/>
      <point x="545" y="340"/>
      <point x="404" y="402" type="curve" smooth="yes"/>
      <point x="279" y="457"/>
      <point x="239" y="486"/>
      <point x="239" y="545" type="curve" smooth="yes"/>
      <point x="239" y="597"/>
      <point x="285" y="635"/>
      <point x="357" y="635" type="curve" smooth="yes"/>
      <point x="388" y="635"/>
      <point x="420" y="627"/>
      <point x="442" y="614" type="curve"/>
      <point x="479" y="503" type="line"/>
      <point x="564" y="503" type="line"/>
      <point x="547" y="675" type="line"/>
      <point x="503" y="694"/>
      <point x="433" y="707"/>
      <point x="370" y="707" type="curve" smooth="yes"/>
      <point x="200" y="707"/>
      <point x="83" y="621"/>
      <point x="83" y="503" type="curve" smooth="yes"/>
      <point x="83" y="404"/>
      <point x="138" y="349"/>
      <point x="292" y="287" type="curve" smooth="yes"/>
      <point x="409" y="239"/>
      <point x="439" y="207"/>
      <point x="439" y="152" type="curve" smooth="yes"/>
      <point x="439" y="97"/>
      <point x="394" y="62"/>
      <point x="324" y="62" type="curve" smooth="yes"/>
      <point x="276" y="62"/>
      <point x="234" y="73"/>
      <point x="197" y="99" type="curve"/>
      <point x="163" y="215" type="line"/>
      <point x="77" y="215" type="line"/>
      <point x="85" y="38" type="line"/>
      <point x="141" y="6"/>
      <point x="231" y="-12"/>
    </contour>
  </outline>
</glyph>
<glyph name="t" format="2">
  <advance width="559"/>
  <unicode hex="0074"/>
  <note>
t
</note>
  <anchor x="314" y="0" name="bottom"/>
  <anchor x="207" y="433" name="stroke"/>
  <anchor x="271" y="820" name="top"/>
  <anchor x="362" y="1104" name="topright"/>
  <outline>
    <contour>
      <point x="568" y="110" type="curve"/>
      <point x="536" y="152" type="line"/>
      <point x="503" y="121"/>
      <point x="460" y="102"/>
      <point x="415" y="102" type="curve" smooth="yes"/>
      <point x="330" y="102"/>
      <point x="282" y="150"/>
      <point x="282" y="253" type="curve"/>
      <point x="285" y="645" type="line"/>
      <point x="288" y="842" type="line"/>
      <point x="250" y="842" type="line"/>
      <point x="22" y="645" type="line"/>
      <point x="22" y="606" type="line"/>
      <point x="134" y="606" type="line"/>
      <point x="130" y="231" type="line"/>
      <point x="130" y="67"/>
      <point x="227" y="-12"/>
      <point x="362" y="-12" type="curve" smooth="yes"/>
      <point x="449" y="-12"/>
      <point x="529" y="32"/>
    </contour>
    <contour>
      <point x="215" y="606" type="line"/>
      <point x="521" y="606" type="line"/>
      <point x="521" y="693" type="line"/>
      <point x="215" y="693" type="line"/>
    </contour>
  </outline>
</glyph>
<glyph name="u" format="2">
  <advance width="889"/>
  <unicode hex="0075"/>
  <note>
u
</note>
  <anchor x="444" y="694" name="above"/>
  <anchor x="444" y="0" name="below"/>
  <anchor x="686" y="0" name="ogonek"/>
  <anchor x="714" y="694" name="topright"/>
  <outline>
    <contour>
      <point x="755" y="123" type="line"/>
      <point x="749" y="163"/>
      <point x="744" y="232"/>
      <point x="744" y="330" type="curve" smooth="yes"/>
      <point x="744" y="449" type="line" smooth="yes"/>
      <point x="744" y="540"/>
      <point x="744" y="600"/>
      <point x="747" y="680" type="curve"/>
      <point x="719" y="704" type="line"/>
      <point x="470" y="640" type="line"/>
      <point x="470" y="581" type="line"/>
      <point x="587" y="558" type="line"/>
      <point x="592" y="510"/>
      <point x="595" y="444"/>
      <point x="595" y="375" type="curve" smooth="yes"/>
      <point x="595" y="197" type="line"/>
      <point x="553" y="131"/>
      <point x="494" y="105"/>
      <point x="442" y="105" type="curve" smooth="yes"/>
      <point x="349" y="105"/>
      <point x="287" y="155"/>
      <point x="287" y="280" type="curve"/>
      <point x="288" y="444" type="line"/>
      <point x="288" y="531"/>
      <point x="290" y="613"/>
      <point x="295" y="677" type="curve"/>
      <point x="261" y="704" type="line"/>
      <point x="19" y="640" type="line"/>
      <point x="19" y="581" type="line"/>
      <point x="128" y="558" type="line"/>
      <point x="133" y="502"/>
      <point x="136" y="449"/>
      <point x="136" y="398" type="curve" smooth="yes"/>
      <point x="136" y="260" type="line" smooth="yes"/>
      <point x="136" y="77"/>
      <point x="243" y="-12"/>
      <point x="391" y="-12" type="curve" smooth="yes"/>
      <point x="467" y="-12"/>
      <point x="532" y="17"/>
      <point x="595" y="109" type="curve"/>
      <point x="600" y="107" type="line"/>
      <point x="598" y="3" type="line"/>
      <point x="627" y="-17" type="line"/>
      <point x="857" y="40" type="line"/>
      <point x="857" y="97" type="line"/>
    </contour>
  </outline>
</glyph>
<glyph name="v" format="2">
  <advance width="770"/>
  <unicode hex="0076"/>
  <note>
v
</note>
  <anchor x="386" y="0" name="bottom"/>
  <anchor x="386" y="694" name="top"/>
  <outline>
    <contour>
      <point x="354" y="-6" type="line"/>
      <point x="410" y="-6" type="line"/>
      <point x="706" y="606" type="line"/>
      <point x="781" y="632" type="line"/>
      <point x="778" y="694" type="line"/>
      <point x="503" y="694" type="line"/>
      <point x="499" y="632" type="line"/>
      <point x="598" y="606" type="line"/>
      <point x="407" y="149" type="line"/>
      <point x="451" y="149" type="line"/>
      <point x="243" y="606" type="line"/>
      <point x="343" y="632" type="line"/>
      <point x="338" y="694" type="line"/>
      <point x="-4" y="694" type="line"/>
      <point x="-8" y="632" type="line"/>
      <point x="67" y="606" type="line"/>
    </contour>
  </outline>
</glyph>
<glyph name="w" format="2">
  <advance width="1239"/>
  <unicode hex="0077"/>
  <note>
w
</note>
  <anchor x="616" y="0" name="bottom"/>
  <anchor x="654" y="694" name="top"/>
  <outline>
    <contour>
      <point x="826" y="-6" type="line"/>
      <point x="884" y="-6" type="line"/>
      <point x="1168" y="606" type="line"/>
      <point x="1243" y="632" type="line"/>
      <point x="1240" y="694" type="line"/>
      <point x="982" y="694" type="line"/>
      <point x="979" y="632" type="line"/>
      <point x="1062" y="606" type="line"/>
      <point x="877" y="149" type="line"/>
      <point x="919" y="149" type="line"/>
      <point x="739" y="606" type="line"/>
      <point x="823" y="632" type="line"/>
      <point x="820" y="694" type="line"/>
      <point x="494" y="694" type="line"/>
      <point x="491" y="632" type="line"/>
      <point x="571" y="606" type="line"/>
    </contour>
    <contour>
      <point x="346" y="-6" type="line"/>
      <point x="402" y="-6" type="line"/>
      <point x="650" y="515" type="line"/>
      <point x="601" y="616" type="line"/>
      <point x="398" y="149" type="line"/>
      <point x="446" y="149" type="line"/>
      <point x="255" y="606" type="line"/>
      <point x="335" y="632" type="line"/>
      <point x="332" y="694" type="line"/>
      <point x="6" y="694" type="line"/>
      <point x="3" y="632" type="line"/>
      <point x="78" y="606" type="line"/>
    </contour>
  </outline>
</glyph>
<glyph name="x" format="2">
  <advance width="788"/>
  <unicode hex="0078"/>
  <note>
x
</note>
  <anchor x="401" y="694" name="above"/>
  <anchor x="401" y="0" name="below"/>
  <outline>
    <contour>
      <point x="765" y="0" type="line"/>
      <point x="770" y="62" type="line"/>
      <point x="694" y="88" type="line"/>
      <point x="470" y="380" type="line"/>
      <point x="425" y="439" type="line"/>
      <point x="300" y="606" type="line"/>
      <point x="367" y="632" type="line"/>
      <point x="362" y="694" type="line"/>
      <point x="44" y="694" type="line"/>
      <point x="40" y="632" type="line"/>
      <point x="115" y="606" type="line"/>
      <point x="316" y="345" type="line"/>
      <point x="361" y="290" type="line"/>
      <point x="513" y="88" type="line"/>
      <point x="438" y="62" type="line"/>
      <point x="441" y="0" type="line"/>
    </contour>
    <contour>
      <point x="552" y="606" type="line"/>
      <point x="425" y="439" type="line"/>
      <point x="316" y="345" type="line"/>
      <point x="109" y="88" type="line"/>
      <point x="33" y="62" type="line"/>
      <point x="38" y="0" type="line"/>
      <point x="287" y="0" type="line"/>
      <point x="290" y="62" type="line"/>
      <point x="215" y="88" type="line"/>
      <point x="361" y="290" type="line"/>
      <point x="470" y="380" type="line"/>
      <point x="658" y="606" type="line"/>
      <point x="733" y="632" type="line"/>
      <point x="728" y="694" type="line"/>
      <point x="489" y="694" type="line"/>
      <point x="484" y="632" type="line"/>
    </contour>
  </outline>
</glyph>
<glyph name="y" format="2">
  <advance width="770"/>
  <unicode hex="0079"/>
  <note>
y
</note>
  <anchor x="420" y="694" name="above"/>
  <anchor x="507" y="0" name="below"/>
  <outline>
    <contour>
      <point x="353" y="-6" type="line"/>
      <point x="449" y="149" type="line"/>
      <point x="243" y="606" type="line"/>
      <point x="343" y="632" type="line"/>
      <point x="338" y="694" type="line"/>
      <point x="-3" y="694" type="line"/>
      <point x="-8" y="632" type="line"/>
      <point x="67" y="606" type="line"/>
    </contour>
    <contour>
      <point x="776" y="694" type="line"/>
      <point x="503" y="694" type="line"/>
      <point x="499" y="632" type="line"/>
      <point x="598" y="606" type="line"/>
      <point x="402" y="149" type="line"/>
      <point x="383" y="117" type="line"/>
      <point x="200" y="-231" type="line"/>
      <point x="285" y="-154" type="line"/>
      <point x="123" y="-200" type="line" smooth="yes"/>
      <point x="60" y="-218"/>
      <point x="33" y="-251"/>
      <point x="33" y="-290" type="curve" smooth="yes"/>
      <point x="33" y="-335"/>
      <point x="72" y="-365"/>
      <point x="131" y="-365" type="curve" smooth="yes"/>
      <point x="199" y="-365"/>
      <point x="251" y="-330"/>
      <point x="303" y="-226" type="curve" smooth="yes"/>
      <point x="430" y="40" type="line"/>
      <point x="706" y="606" type="line"/>
      <point x="781" y="632" type="line"/>
    </contour>
  </outline>
</glyph>
<glyph name="z" format="2">
  <advance width="715"/>
  <unicode hex="007A"/>
  <note>
z
</note>
  <anchor x="364" y="0" name="bottom"/>
  <anchor x="364" y="694" name="top"/>
  <outline>
    <contour>
      <point x="242" y="27" type="line"/>
      <point x="642" y="638" type="line"/>
      <point x="642" y="698" type="line"/>
      <point x="595" y="696"/>
      <point x="548" y="694"/>
      <point x="503" y="694" type="curve" smooth="yes"/>
      <point x="218" y="694" type="line" smooth="yes"/>
      <point x="176" y="694"/>
      <point x="121" y="694"/>
      <point x="67" y="696" type="curve"/>
      <point x="70" y="481" type="line"/>
      <point x="152" y="481" type="line"/>
      <point x="174" y="609" type="line"/>
      <point x="205" y="613"/>
      <point x="240" y="616"/>
      <point x="282" y="616" type="curve" smooth="yes"/>
      <point x="486" y="616" type="line"/>
      <point x="487" y="666" type="line"/>
      <point x="81" y="54" type="line"/>
      <point x="81" y="-3" type="line"/>
      <point x="126" y="-1"/>
      <point x="174" y="0"/>
      <point x="218" y="0" type="curve" smooth="yes"/>
      <point x="499" y="0" type="line" smooth="yes"/>
      <point x="542" y="0"/>
      <point x="598" y="0"/>
      <point x="651" y="-1" type="curve"/>
      <point x="680" y="223" type="line"/>
      <point x="595" y="223" type="line"/>
      <point x="555" y="86" type="line"/>
      <point x="520" y="83"/>
      <point x="484" y="80"/>
      <point x="451" y="80" type="curve" smooth="yes"/>
      <point x="237" y="80" type="line"/>
    </contour>
  </outline>
</glyph>
<glyph name="braceleft" format="2">
  <advance width="598"/>
  <unicode hex="007B"/>
  <note>
braceleft
</note>
  <outline>
    <contour>
      <point x="351" y="-130" type="curve" smooth="yes"/>
      <point x="351" y="-14"/>
      <point x="417" y="77"/>
      <point x="417" y="205" type="curve" smooth="yes"/>
      <point x="417" y="317"/>
      <point x="346" y="401"/>
      <point x="215" y="420" type="curve"/>
      <point x="215" y="398" type="line"/>
      <point x="348" y="414"/>
      <point x="417" y="491"/>
      <point x="417" y="600" type="curve" smooth="yes"/>
      <point x="417" y="728"/>
      <point x="351" y="820"/>
      <point x="351" y="935" type="curve" smooth="yes"/>
      <point x="351" y="1030"/>
      <point x="409" y="1081"/>
      <point x="520" y="1101" type="curve"/>
      <point x="503" y="1171" type="line"/>
      <point x="298" y="1142"/>
      <point x="187" y="1059"/>
      <point x="187" y="913" type="curve" smooth="yes"/>
      <point x="187" y="794"/>
      <point x="269" y="667"/>
      <point x="269" y="568" type="curve" smooth="yes"/>
      <point x="269" y="487"/>
      <point x="223" y="447"/>
      <point x="102" y="442" type="curve"/>
      <point x="102" y="362" type="line"/>
      <point x="223" y="357"/>
      <point x="269" y="317"/>
      <point x="269" y="237" type="curve" smooth="yes"/>
      <point x="269" y="138"/>
      <point x="187" y="11"/>
      <point x="187" y="-107" type="curve" smooth="yes"/>
      <point x="187" y="-253"/>
      <point x="298" y="-337"/>
      <point x="503" y="-365" type="curve"/>
      <point x="520" y="-295" type="line"/>
      <point x="409" y="-276"/>
      <point x="351" y="-224"/>
    </contour>
  </outline>
</glyph>
<glyph name="bar" format="2">
  <advance width="437"/>
  <unicode hex="007C"/>
  <note>
bar
</note>
  <outline>
    <contour>
      <point x="162" y="-353" type="line"/>
      <point x="276" y="-353" type="line"/>
      <point x="276" y="1158" type="line"/>
      <point x="162" y="1158" type="line"/>
    </contour>
  </outline>
</glyph>
<glyph name="braceright" format="2">
  <advance width="598"/>
  <unicode hex="007D"/>
  <note>
braceright
</note>
  <outline>
    <contour>
      <point x="247" y="-130" type="curve" smooth="yes"/>
      <point x="247" y="-224"/>
      <point x="189" y="-276"/>
      <point x="78" y="-295" type="curve"/>
      <point x="94" y="-365" type="line"/>
      <point x="300" y="-337"/>
      <point x="410" y="-253"/>
      <point x="410" y="-107" type="curve" smooth="yes"/>
      <point x="410" y="11"/>
      <point x="329" y="138"/>
      <point x="329" y="237" type="curve" smooth="yes"/>
      <point x="329" y="317"/>
      <point x="375" y="357"/>
      <point x="495" y="362" type="curve"/>
      <point x="495" y="442" type="line"/>
      <point x="375" y="447"/>
      <point x="329" y="487"/>
      <point x="329" y="568" type="curve" smooth="yes"/>
      <point x="329" y="667"/>
      <point x="410" y="794"/>
      <point x="410" y="913" type="curve" smooth="yes"/>
      <point x="410" y="1059"/>
      <point x="300" y="1142"/>
      <point x="94" y="1171" type="curve"/>
      <point x="78" y="1101" type="line"/>
      <point x="189" y="1081"/>
      <point x="247" y="1030"/>
      <point x="247" y="935" type="curve" smooth="yes"/>
      <point x="247" y="820"/>
      <point x="181" y="728"/>
      <point x="181" y="600" type="curve" smooth="yes"/>
      <point x="181" y="491"/>
      <point x="250" y="414"/>
      <point x="383" y="398" type="curve"/>
      <point x="383" y="420" type="line"/>
      <point x="251" y="401"/>
      <point x="181" y="317"/>
      <point x="181" y="205" type="curve" smooth="yes"/>
      <point x="181" y="77"/>
      <point x="247" y="-14"/>
    </contour>
  </outline>
</glyph>
<glyph name="asciitilde" format="2">
  <advance width="866"/>
  <unicode hex="007E"/>
  <outline>
    <contour>
      <point x="727" y="484" type="line"/>
      <point x="699" y="434"/>
      <point x="664" y="407"/>
      <point x="614" y="407" type="curve" smooth="yes"/>
      <point x="532" y="407"/>
      <point x="394" y="518"/>
      <point x="272" y="518" type="curve" smooth="yes"/>
      <point x="187" y="518"/>
      <point x="120" y="460"/>
      <point x="85" y="365" type="curve"/>
      <point x="139" y="330" type="line"/>
      <point x="166" y="381"/>
      <point x="205" y="409"/>
      <point x="251" y="409" type="curve" smooth="yes"/>
      <point x="333" y="409"/>
      <point x="471" y="298"/>
      <point x="593" y="298" type="curve" smooth="yes"/>
      <point x="678" y="298"/>
      <point x="746" y="356"/>
      <point x="781" y="449" type="curve"/>
    </contour>
  </outline>
</glyph>
<glyph name="exclamdown" format="2">
  <advance width="441"/>
  <unicode hex="00A1"/>
  <note>
exclamdown
</note>
  <outline>
    <contour>
      <point x="184" y="377" type="line"/>
      <point x="118" y="-210" type="line" smooth="yes"/>
      <point x="107" y="-306"/>
      <point x="152" y="-365"/>
      <point x="219" y="-365" type="curve" smooth="yes"/>
      <point x="287" y="-365"/>
      <point x="333" y="-306"/>
      <point x="322" y="-210" type="curve" smooth="yes"/>
      <point x="256" y="377" type="line"/>
    </contour>
    <contour>
      <point x="219" y="707" type="curve" smooth="yes"/>
      <point x="155" y="707"/>
      <point x="104" y="659"/>
      <point x="104" y="593" type="curve" smooth="yes"/>
      <point x="104" y="529"/>
      <point x="155" y="481"/>
      <point x="219" y="481" type="curve" smooth="yes"/>
      <point x="287" y="481"/>
      <point x="338" y="529"/>
      <point x="338" y="593" type="curve" smooth="yes"/>
      <point x="338" y="659"/>
      <point x="287" y="707"/>
    </contour>
  </outline>
</glyph>
<glyph name="cent" format="2">
  <advance width="699"/>
  <unicode hex="00A2"/>
  <note>
cent
</note>
  <outline>
    <contour>
      <point x="402" y="-12" type="curve" smooth="yes"/>
      <point x="523" y="-12"/>
      <point x="622" y="44"/>
      <point x="683" y="163" type="curve"/>
      <point x="638" y="203" type="line"/>
      <point x="584" y="134"/>
      <point x="528" y="109"/>
      <point x="452" y="109" type="curve" smooth="yes"/>
      <point x="327" y="109"/>
      <point x="231" y="200"/>
      <point x="231" y="370" type="curve" smooth="yes"/>
      <point x="231" y="566"/>
      <point x="353" y="654"/>
      <point x="470" y="630" type="curve"/>
      <point x="409" y="648" type="line"/>
      <point x="503" y="558" type="line" smooth="yes"/>
      <point x="540" y="521"/>
      <point x="560" y="510"/>
      <point x="595" y="510" type="curve" smooth="yes"/>
      <point x="637" y="510"/>
      <point x="664" y="536"/>
      <point x="664" y="577" type="curve" smooth="yes"/>
      <point x="664" y="646"/>
      <point x="576" y="707"/>
      <point x="436" y="707" type="curve" smooth="yes"/>
      <point x="221" y="707"/>
      <point x="62" y="542"/>
      <point x="62" y="332" type="curve" smooth="yes"/>
      <point x="62" y="120"/>
      <point x="215" y="-12"/>
    </contour>
    <contour>
      <point x="375" y="-186" type="line"/>
      <point x="460" y="-186" type="line"/>
      <point x="460" y="881" type="line"/>
      <point x="375" y="881" type="line"/>
    </contour>
  </outline>
</glyph>
<glyph name="sterling" format="2">
  <advance width="819"/>
  <unicode hex="00A3"/>
  <note>
sterling
</note>
  <outline>
    <contour>
      <point x="86" y="-16" type="line"/>
      <point x="174" y="12"/>
      <point x="223" y="22"/>
      <point x="293" y="22" type="curve" smooth="yes"/>
      <point x="406" y="22"/>
      <point x="476" y="-11"/>
      <point x="581" y="-11" type="curve" smooth="yes"/>
      <point x="691" y="-11"/>
      <point x="770" y="48"/>
      <point x="823" y="194" type="curve"/>
      <point x="762" y="223" type="line"/>
      <point x="730" y="152"/>
      <point x="686" y="126"/>
      <point x="629" y="126" type="curve" smooth="yes"/>
      <point x="574" y="126"/>
      <point x="502" y="154"/>
      <point x="447" y="154" type="curve" smooth="yes"/>
      <point x="367" y="154"/>
      <point x="325" y="131"/>
      <point x="205" y="67" type="curve"/>
      <point x="202" y="48" type="line"/>
      <point x="346" y="147"/>
      <point x="388" y="229"/>
      <point x="388" y="343" type="curve" smooth="yes"/>
      <point x="388" y="473"/>
      <point x="312" y="614"/>
      <point x="312" y="730" type="curve" smooth="yes"/>
      <point x="312" y="844"/>
      <point x="406" y="893"/>
      <point x="531" y="874" type="curve"/>
      <point x="451" y="918" type="line"/>
      <point x="574" y="799" type="line" smooth="yes"/>
      <point x="606" y="765"/>
      <point x="632" y="754"/>
      <point x="667" y="754" type="curve" smooth="yes"/>
      <point x="711" y="754"/>
      <point x="738" y="784"/>
      <point x="738" y="824" type="curve" smooth="yes"/>
      <point x="738" y="903"/>
      <point x="637" y="956"/>
      <point x="494" y="956" type="curve" smooth="yes"/>
      <point x="284" y="956"/>
      <point x="133" y="841"/>
      <point x="133" y="678" type="curve" smooth="yes"/>
      <point x="133" y="553"/>
      <point x="242" y="406"/>
      <point x="242" y="251" type="curve" smooth="yes"/>
      <point x="242" y="141"/>
      <point x="195" y="91"/>
      <point x="67" y="57" type="curve"/>
    </contour>
    <contour>
      <point x="40" y="446" type="line"/>
      <point x="622" y="446" type="line"/>
      <point x="622" y="524" type="line"/>
      <point x="40" y="524" type="line"/>
    </contour>
  </outline>
</glyph>
<glyph name="currency" format="2">
  <advance width="866"/>
  <unicode hex="00A4"/>
  <note>
currency
</note>
  <outline>
    <contour>
      <point x="434" y="168" type="curve" smooth="yes"/>
      <point x="629" y="168"/>
      <point x="786" y="329"/>
      <point x="786" y="529" type="curve" smooth="yes"/>
      <point x="786" y="730"/>
      <point x="629" y="890"/>
      <point x="434" y="890" type="curve" smooth="yes"/>
      <point x="240" y="890"/>
      <point x="83" y="730"/>
      <point x="83" y="529" type="curve" smooth="yes"/>
      <point x="83" y="329"/>
      <point x="240" y="168"/>
    </contour>
    <contour>
      <point x="94" y="118" type="line"/>
      <point x="263" y="290" type="line"/>
      <point x="203" y="357" type="line"/>
      <point x="33" y="182" type="line"/>
    </contour>
    <contour>
      <point x="768" y="120" type="line"/>
      <point x="831" y="182" type="line"/>
      <point x="666" y="354" type="line"/>
      <point x="601" y="290" type="line"/>
    </contour>
    <contour>
      <point x="433" y="242" type="curve" smooth="yes"/>
      <point x="325" y="242"/>
      <point x="240" y="367"/>
      <point x="240" y="526" type="curve" smooth="yes"/>
      <point x="240" y="686"/>
      <point x="325" y="812"/>
      <point x="433" y="812" type="curve" smooth="yes"/>
      <point x="540" y="812"/>
      <point x="625" y="686"/>
      <point x="625" y="526" type="curve" smooth="yes"/>
      <point x="625" y="367"/>
      <point x="540" y="242"/>
    </contour>
    <contour>
      <point x="190" y="714" type="line"/>
      <point x="253" y="778" type="line"/>
      <point x="94" y="938" type="line"/>
      <point x="33" y="874" type="line"/>
    </contour>
    <contour>
      <point x="677" y="714" type="line"/>
      <point x="832" y="874" type="line"/>
      <point x="767" y="940" type="line"/>
      <point x="611" y="780" type="line"/>
    </contour>
  </outline>
</glyph>
<glyph name="brokenbar" format="2">
  <advance width="438"/>
  <unicode hex="00A6"/>
  <note>
brokenbar
</note>
  <outline>
    <contour>
      <point x="162" y="561" type="line"/>
      <point x="276" y="561" type="line"/>
      <point x="276" y="1158" type="line"/>
      <point x="162" y="1158" type="line"/>
    </contour>
    <contour>
      <point x="162" y="-353" type="line"/>
      <point x="276" y="-353" type="line"/>
      <point x="276" y="243" type="line"/>
      <point x="162" y="243" type="line"/>
    </contour>
  </outline>
</glyph>
<glyph name="section" format="2">
  <advance width="760"/>
  <unicode hex="00A7"/>
  <note>
section
</note>
  <outline>
    <contour>
      <point x="393" y="364" type="line"/>
      <point x="531" y="369"/>
      <point x="675" y="454"/>
      <point x="675" y="589" type="curve" smooth="yes"/>
      <point x="675" y="815"/>
      <point x="285" y="807"/>
      <point x="285" y="956" type="curve" smooth="yes"/>
      <point x="285" y="1011"/>
      <point x="332" y="1044"/>
      <point x="415" y="1044" type="curve" smooth="yes"/>
      <point x="439" y="1044"/>
      <point x="467" y="1041"/>
      <point x="487" y="1032" type="curve"/>
      <point x="523" y="929" type="line"/>
      <point x="608" y="929" type="line"/>
      <point x="592" y="1091" type="line"/>
      <point x="548" y="1109"/>
      <point x="476" y="1117"/>
      <point x="415" y="1117" type="curve" smooth="yes"/>
      <point x="251" y="1117"/>
      <point x="131" y="1033"/>
      <point x="131" y="918" type="curve" smooth="yes"/>
      <point x="131" y="690"/>
      <point x="529" y="723"/>
      <point x="529" y="536" type="curve" smooth="yes"/>
      <point x="529" y="463"/>
      <point x="462" y="410"/>
      <point x="370" y="394" type="curve"/>
    </contour>
    <contour>
      <point x="335" y="-12" type="curve" smooth="yes"/>
      <point x="507" y="-12"/>
      <point x="625" y="72"/>
      <point x="625" y="189" type="curve" smooth="yes"/>
      <point x="625" y="412"/>
      <point x="232" y="383"/>
      <point x="232" y="568" type="curve" smooth="yes"/>
      <point x="232" y="642"/>
      <point x="300" y="693"/>
      <point x="393" y="709" type="curve"/>
      <point x="370" y="739" type="line"/>
      <point x="229" y="735"/>
      <point x="85" y="650"/>
      <point x="85" y="513" type="curve" smooth="yes"/>
      <point x="85" y="290"/>
      <point x="471" y="296"/>
      <point x="471" y="150" type="curve" smooth="yes"/>
      <point x="471" y="97"/>
      <point x="425" y="62"/>
      <point x="345" y="62" type="curve" smooth="yes"/>
      <point x="312" y="62"/>
      <point x="279" y="69"/>
      <point x="256" y="81" type="curve"/>
      <point x="223" y="182" type="line"/>
      <point x="138" y="182" type="line"/>
      <point x="152" y="17" type="line"/>
      <point x="195" y="-1"/>
      <point x="266" y="-12"/>
    </contour>
  </outline>
</glyph>
<glyph name="copyright" format="2">
  <advance width="1301"/>
  <unicode hex="00A9"/>
  <outline>
    <contour>
      <point x="651" y="-9" type="curve" smooth="yes"/>
      <point x="974" y="-9"/>
      <point x="1224" y="237"/>
      <point x="1224" y="560" type="curve" smooth="yes"/>
      <point x="1224" y="884"/>
      <point x="974" y="1129"/>
      <point x="651" y="1129" type="curve" smooth="yes"/>
      <point x="327" y="1129"/>
      <point x="77" y="884"/>
      <point x="77" y="560" type="curve" smooth="yes"/>
      <point x="77" y="237"/>
      <point x="329" y="-9"/>
    </contour>
    <contour>
      <point x="685" y="245" type="curve" smooth="yes"/>
      <point x="770" y="245"/>
      <point x="857" y="272"/>
      <point x="902" y="300" type="curve"/>
      <point x="935" y="442" type="line"/>
      <point x="863" y="451" type="line"/>
      <point x="821" y="354" type="line"/>
      <point x="796" y="332"/>
      <point x="746" y="321"/>
      <point x="711" y="321" type="curve" smooth="yes"/>
      <point x="593" y="321"/>
      <point x="497" y="420"/>
      <point x="497" y="581" type="curve" smooth="yes"/>
      <point x="497" y="725"/>
      <point x="569" y="815"/>
      <point x="699" y="815" type="curve" smooth="yes"/>
      <point x="735" y="815"/>
      <point x="772" y="808"/>
      <point x="800" y="796" type="curve"/>
      <point x="841" y="683" type="line"/>
      <point x="906" y="686" type="line"/>
      <point x="898" y="852" type="line"/>
      <point x="850" y="873"/>
      <point x="775" y="887"/>
      <point x="707" y="887" type="curve" smooth="yes"/>
      <point x="484" y="887"/>
      <point x="321" y="762"/>
      <point x="321" y="555" type="curve" smooth="yes"/>
      <point x="321" y="359"/>
      <point x="473" y="245"/>
    </contour>
    <contour>
      <point x="651" y="51" type="curve" smooth="yes"/>
      <point x="364" y="51"/>
      <point x="144" y="271"/>
      <point x="144" y="561" type="curve" smooth="yes"/>
      <point x="144" y="850"/>
      <point x="364" y="1068"/>
      <point x="651" y="1068" type="curve" smooth="yes"/>
      <point x="937" y="1068"/>
      <point x="1157" y="850"/>
      <point x="1157" y="561" type="curve" smooth="yes"/>
      <point x="1157" y="271"/>
      <point x="937" y="51"/>
    </contour>
  </outline>
</glyph>
<glyph name="ordfeminine" format="2">
  <advance width="648"/>
  <unicode hex="00AA"/>
  <note>
ordfeminine
</note>
  <outline>
    <contour>
      <point x="251" y="369" type="curve" smooth="yes"/>
      <point x="298" y="369"/>
      <point x="354" y="394"/>
      <point x="414" y="471" type="curve"/>
      <point x="390" y="479" type="line"/>
      <point x="412" y="422" type="line" smooth="yes"/>
      <point x="425" y="390"/>
      <point x="441" y="369"/>
      <point x="475" y="369" type="curve" smooth="yes"/>
      <point x="494" y="369"/>
      <point x="515" y="377"/>
      <point x="540" y="388" type="curve" smooth="yes"/>
      <point x="627" y="422" type="line"/>
      <point x="627" y="475" type="line"/>
      <point x="544" y="492" type="line"/>
      <point x="536" y="513"/>
      <point x="532" y="540"/>
      <point x="532" y="582" type="curve"/>
      <point x="532" y="760" type="line"/>
      <point x="536" y="881"/>
      <point x="444" y="954"/>
      <point x="300" y="954" type="curve"/>
      <point x="219" y="945"/>
      <point x="72" y="866"/>
      <point x="72" y="797" type="curve" smooth="yes"/>
      <point x="72" y="744"/>
      <point x="131" y="717"/>
      <point x="205" y="735" type="curve"/>
      <point x="211" y="816" type="line" smooth="yes"/>
      <point x="213" y="853"/>
      <point x="221" y="865"/>
      <point x="260" y="865" type="curve" smooth="yes"/>
      <point x="325" y="865"/>
      <point x="386" y="816"/>
      <point x="386" y="757" type="curve" smooth="yes"/>
      <point x="386" y="711" type="line"/>
      <point x="182" y="651" type="line" smooth="yes"/>
      <point x="97" y="625"/>
      <point x="65" y="582"/>
      <point x="65" y="524" type="curve" smooth="yes"/>
      <point x="65" y="459"/>
      <point x="138" y="369"/>
    </contour>
    <contour>
      <point x="312" y="478" type="curve" smooth="yes"/>
      <point x="264" y="478"/>
      <point x="223" y="513"/>
      <point x="223" y="556" type="curve" smooth="yes"/>
      <point x="223" y="590"/>
      <point x="240" y="613"/>
      <point x="280" y="619" type="curve" smooth="yes"/>
      <point x="390" y="640" type="line"/>
      <point x="390" y="510" type="line"/>
      <point x="364" y="486"/>
      <point x="337" y="478"/>
    </contour>
  </outline>
</glyph>
<glyph name="guillemetleft" format="2">
  <advance width="658"/>
  <unicode hex="00AB"/>
  <guideline x="239" y="-56" angle="37.0885"/>
  <guideline x="217" y="750" angle="143"/>
  <outline>
    <component base="guilsinglleft" xOffset="230"/>
    <contour>
      <point x="257" y="-89" type="curve"/>
      <point x="352" y="-16" type="line"/>
      <point x="146" y="191"/>
      <point x="150" y="475"/>
      <point x="356" y="682" type="curve"/>
      <point x="291" y="731" type="line"/>
      <point x="65" y="492"/>
      <point x="28" y="149"/>
    </contour>
  </outline>
</glyph>
<glyph name="logicalnot" format="2">
  <advance width="866"/>
  <unicode hex="00AC"/>
  <outline>
    <contour>
      <point x="781" y="611" type="line"/>
      <point x="85" y="611" type="line"/>
      <point x="85" y="495" type="line"/>
      <point x="670" y="495" type="line"/>
      <point x="670" y="203" type="line"/>
      <point x="781" y="203" type="line"/>
    </contour>
  </outline>
</glyph>
<glyph name="registered" format="2">
  <advance width="1301"/>
  <unicode hex="00AE"/>
  <outline>
    <contour>
      <point x="365" y="309" type="line"/>
      <point x="370" y="255" type="line"/>
      <point x="653" y="255" type="line"/>
      <point x="656" y="309" type="line"/>
      <point x="590" y="329" type="line"/>
      <point x="589" y="341"/>
      <point x="585" y="407"/>
      <point x="585" y="495" type="curve" smooth="yes"/>
      <point x="585" y="824" type="line"/>
      <point x="633" y="824" type="line" smooth="yes"/>
      <point x="699" y="824"/>
      <point x="747" y="796"/>
      <point x="747" y="722" type="curve" smooth="yes"/>
      <point x="747" y="637"/>
      <point x="688" y="601"/>
      <point x="621" y="601" type="curve" smooth="yes"/>
      <point x="609" y="601"/>
      <point x="593" y="601"/>
      <point x="577" y="603" type="curve"/>
      <point x="577" y="542" type="line"/>
      <point x="642" y="542" type="line" smooth="yes"/>
      <point x="791" y="542"/>
      <point x="902" y="617"/>
      <point x="902" y="722" type="curve" smooth="yes"/>
      <point x="902" y="839"/>
      <point x="808" y="885"/>
      <point x="650" y="885" type="curve"/>
      <point x="364" y="885" type="line"/>
      <point x="361" y="828" type="line"/>
      <point x="433" y="812" type="line"/>
      <point x="438" y="804"/>
      <point x="441" y="735"/>
      <point x="441" y="648" type="curve" smooth="yes"/>
      <point x="441" y="495" type="line" smooth="yes"/>
      <point x="441" y="407"/>
      <point x="439" y="337"/>
      <point x="438" y="329" type="curve"/>
    </contour>
    <contour>
      <point x="905" y="247" type="curve" smooth="yes"/>
      <point x="927" y="247"/>
      <point x="950" y="250"/>
      <point x="972" y="253" type="curve"/>
      <point x="979" y="303" type="line"/>
      <point x="927" y="316"/>
      <point x="892" y="346"/>
      <point x="847" y="409" type="curve" smooth="yes"/>
      <point x="733" y="585" type="line"/>
      <point x="611" y="558" type="line"/>
      <point x="667" y="428" type="line" smooth="yes"/>
      <point x="723" y="300"/>
      <point x="784" y="247"/>
    </contour>
    <contour>
      <point x="651" y="-9" type="curve" smooth="yes"/>
      <point x="974" y="-9"/>
      <point x="1224" y="237"/>
      <point x="1224" y="560" type="curve" smooth="yes"/>
      <point x="1224" y="884"/>
      <point x="974" y="1129"/>
      <point x="651" y="1129" type="curve" smooth="yes"/>
      <point x="327" y="1129"/>
      <point x="77" y="884"/>
      <point x="77" y="560" type="curve" smooth="yes"/>
      <point x="77" y="237"/>
      <point x="329" y="-9"/>
    </contour>
    <contour>
      <point x="651" y="51" type="curve" smooth="yes"/>
      <point x="364" y="51"/>
      <point x="144" y="271"/>
      <point x="144" y="561" type="curve" smooth="yes"/>
      <point x="144" y="850"/>
      <point x="364" y="1068"/>
      <point x="651" y="1068" type="curve" smooth="yes"/>
      <point x="937" y="1068"/>
      <point x="1157" y="850"/>
      <point x="1157" y="561" type="curve" smooth="yes"/>
      <point x="1157" y="271"/>
      <point x="937" y="51"/>
    </contour>
  </outline>
</glyph>
<glyph name="degree" format="2">
  <advance width="598"/>
  <unicode hex="00B0"/>
  <note>
degree
</note>
  <outline>
    <contour>
      <point x="300" y="492" type="curve" smooth="yes"/>
      <point x="433" y="492"/>
      <point x="536" y="590"/>
      <point x="536" y="725" type="curve" smooth="yes"/>
      <point x="536" y="857"/>
      <point x="433" y="954"/>
      <point x="300" y="954" type="curve" smooth="yes"/>
      <point x="165" y="954"/>
      <point x="62" y="857"/>
      <point x="62" y="725" type="curve" smooth="yes"/>
      <point x="62" y="590"/>
      <point x="165" y="492"/>
    </contour>
    <contour>
      <point x="300" y="582" type="curve" smooth="yes"/>
      <point x="221" y="582"/>
      <point x="163" y="640"/>
      <point x="163" y="725" type="curve" smooth="yes"/>
      <point x="163" y="807"/>
      <point x="221" y="865"/>
      <point x="300" y="865" type="curve" smooth="yes"/>
      <point x="377" y="865"/>
      <point x="434" y="807"/>
      <point x="434" y="725" type="curve" smooth="yes"/>
      <point x="434" y="640"/>
      <point x="377" y="582"/>
    </contour>
  </outline>
</glyph>
<glyph name="plusminus" format="2">
  <advance width="866"/>
  <unicode hex="00B1"/>
  <outline>
    <contour>
      <point x="781" y="526" type="line"/>
      <point x="85" y="526" type="line"/>
      <point x="85" y="418" type="line"/>
      <point x="781" y="418" type="line"/>
    </contour>
    <contour>
      <point x="377" y="755" type="line"/>
      <point x="377" y="187" type="line"/>
      <point x="487" y="187" type="line"/>
      <point x="487" y="755" type="line"/>
    </contour>
    <contour>
      <point x="781" y="113" type="line"/>
      <point x="85" y="113" type="line"/>
      <point x="85" y="0" type="line"/>
      <point x="781" y="0" type="line"/>
    </contour>
  </outline>
</glyph>
<glyph name="twosuperior" format="2">
  <advance width="642"/>
  <unicode hex="00B2"/>
  <note>
uni2082
</note>
  <outline>
    <contour>
      <point x="75" y="375" type="curve"/>
      <point x="80" y="316" type="line"/>
      <point x="107" y="317"/>
      <point x="138" y="319"/>
      <point x="165" y="319" type="curve" smooth="yes"/>
      <point x="407" y="319" type="line" smooth="yes"/>
      <point x="441" y="319"/>
      <point x="516" y="317"/>
      <point x="558" y="314" type="curve"/>
      <point x="592" y="505" type="line"/>
      <point x="524" y="513" type="line"/>
      <point x="491" y="438" type="line"/>
      <point x="471" y="434"/>
      <point x="459" y="433"/>
      <point x="430" y="433" type="curve" smooth="yes"/>
      <point x="211" y="433" type="line"/>
      <point x="211" y="422" type="line"/>
      <point x="412" y="521"/>
      <point x="520" y="643"/>
      <point x="520" y="759" type="curve" smooth="yes"/>
      <point x="520" y="876"/>
      <point x="428" y="951"/>
      <point x="295" y="951" type="curve" smooth="yes"/>
      <point x="186" y="951"/>
      <point x="97" y="893"/>
      <point x="51" y="797" type="curve"/>
      <point x="99" y="762" type="line"/>
      <point x="134" y="813"/>
      <point x="184" y="839"/>
      <point x="243" y="839" type="curve" smooth="yes"/>
      <point x="325" y="839"/>
      <point x="369" y="800"/>
      <point x="369" y="730" type="curve" smooth="yes"/>
      <point x="369" y="625"/>
      <point x="284" y="520"/>
    </contour>
  </outline>
</glyph>
<glyph name="paragraph" format="2">
  <advance width="880"/>
  <unicode hex="00B6"/>
  <note>
paragraph
</note>
  <outline>
    <contour>
      <point x="805" y="0" type="line"/>
      <point x="808" y="67" type="line"/>
      <point x="715" y="89" type="line"/>
      <point x="709" y="107"/>
      <point x="704" y="208"/>
      <point x="704" y="330" type="curve" smooth="yes"/>
      <point x="704" y="609" type="line" smooth="yes"/>
      <point x="704" y="735"/>
      <point x="709" y="836"/>
      <point x="715" y="850" type="curve"/>
      <point x="813" y="874" type="line"/>
      <point x="808" y="942" type="line"/>
      <point x="426" y="942" type="line" smooth="yes"/>
      <point x="199" y="942"/>
      <point x="48" y="829"/>
      <point x="48" y="653" type="curve" smooth="yes"/>
      <point x="48" y="475"/>
      <point x="189" y="369"/>
      <point x="430" y="369" type="curve" smooth="yes"/>
      <point x="500" y="369"/>
      <point x="577" y="378"/>
      <point x="648" y="399" type="curve"/>
      <point x="648" y="494" type="line"/>
      <point x="571" y="468"/>
      <point x="507" y="457"/>
      <point x="434" y="457" type="curve" smooth="yes"/>
      <point x="300" y="457"/>
      <point x="219" y="536"/>
      <point x="219" y="670" type="curve" smooth="yes"/>
      <point x="219" y="792"/>
      <point x="298" y="865"/>
      <point x="420" y="865" type="curve" smooth="yes"/>
      <point x="463" y="865" type="line"/>
      <point x="465" y="839"/>
      <point x="465" y="744"/>
      <point x="465" y="624" type="curve" smooth="yes"/>
      <point x="465" y="293" type="line" smooth="yes"/>
      <point x="465" y="176"/>
      <point x="462" y="107"/>
      <point x="455" y="91" type="curve"/>
      <point x="325" y="70" type="line"/>
      <point x="329" y="0" type="line"/>
    </contour>
    <contour>
      <point x="553" y="865" type="line"/>
      <point x="627" y="865" type="line"/>
      <point x="621" y="77" type="line"/>
      <point x="553" y="77" type="line"/>
    </contour>
  </outline>
</glyph>
<glyph name="periodcentered" format="2">
  <advance width="421"/>
  <unicode hex="00B7"/>
  <note>
periodcentered
</note>
  <outline>
    <contour>
      <point x="210" y="240" type="curve" smooth="yes"/>
      <point x="277" y="240"/>
      <point x="327" y="290"/>
      <point x="327" y="353" type="curve" smooth="yes"/>
      <point x="327" y="418"/>
      <point x="277" y="468"/>
      <point x="210" y="468" type="curve" smooth="yes"/>
      <point x="144" y="468"/>
      <point x="94" y="418"/>
      <point x="94" y="353" type="curve" smooth="yes"/>
      <point x="94" y="290"/>
      <point x="144" y="240"/>
    </contour>
  </outline>
</glyph>
<glyph name="ordmasculine" format="2">
  <advance width="686"/>
  <unicode hex="00BA"/>
  <note>
ordmasculine
</note>
  <outline>
    <contour>
      <point x="347" y="369" type="curve" smooth="yes"/>
      <point x="509" y="369"/>
      <point x="636" y="500"/>
      <point x="636" y="667" type="curve" smooth="yes"/>
      <point x="636" y="836"/>
      <point x="521" y="954"/>
      <point x="352" y="954" type="curve" smooth="yes"/>
      <point x="187" y="954"/>
      <point x="50" y="839"/>
      <point x="50" y="654" type="curve" smooth="yes"/>
      <point x="50" y="487"/>
      <point x="172" y="369"/>
    </contour>
    <contour>
      <point x="360" y="447" type="curve" smooth="yes"/>
      <point x="278" y="447"/>
      <point x="212" y="553"/>
      <point x="212" y="693" type="curve" smooth="yes"/>
      <point x="212" y="808"/>
      <point x="259" y="879"/>
      <point x="331" y="879" type="curve" smooth="yes"/>
      <point x="418" y="879"/>
      <point x="476" y="776"/>
      <point x="476" y="625" type="curve" smooth="yes"/>
      <point x="476" y="513"/>
      <point x="432" y="447"/>
    </contour>
  </outline>
</glyph>
<glyph name="questiondown" format="2">
  <advance width="586"/>
  <unicode hex="00BF"/>
  <note>
questiondown
</note>
  <outline>
    <contour>
      <point x="412" y="377" type="curve"/>
      <point x="337" y="377" type="line"/>
      <point x="343" y="348"/>
      <point x="346" y="325"/>
      <point x="346" y="303" type="curve" smooth="yes"/>
      <point x="346" y="182"/>
      <point x="72" y="152"/>
      <point x="72" y="-52" type="curve" smooth="yes"/>
      <point x="72" y="-229"/>
      <point x="227" y="-365"/>
      <point x="438" y="-365" type="curve" smooth="yes"/>
      <point x="524" y="-365"/>
      <point x="568" y="-329"/>
      <point x="568" y="-280" type="curve" smooth="yes"/>
      <point x="568" y="-234"/>
      <point x="529" y="-195"/>
      <point x="463" y="-195" type="curve" smooth="yes"/>
      <point x="414" y="-195"/>
      <point x="367" y="-223"/>
      <point x="317" y="-223" type="curve" smooth="yes"/>
      <point x="239" y="-223"/>
      <point x="189" y="-179"/>
      <point x="189" y="-121" type="curve" smooth="yes"/>
      <point x="189" y="6"/>
      <point x="455" y="97"/>
      <point x="455" y="227" type="curve" smooth="yes"/>
      <point x="455" y="277"/>
      <point x="444" y="319"/>
    </contour>
    <contour>
      <point x="373" y="707" type="curve" smooth="yes"/>
      <point x="308" y="707"/>
      <point x="258" y="659"/>
      <point x="258" y="593" type="curve" smooth="yes"/>
      <point x="258" y="529"/>
      <point x="308" y="481"/>
      <point x="373" y="481" type="curve" smooth="yes"/>
      <point x="439" y="481"/>
      <point x="491" y="529"/>
      <point x="491" y="593" type="curve" smooth="yes"/>
      <point x="491" y="659"/>
      <point x="441" y="707"/>
    </contour>
  </outline>
</glyph>
<glyph name="AE" format="2">
  <advance width="1304"/>
  <unicode hex="00C6"/>
  <note>
AE
</note>
  <anchor x="672" y="0" name="bottom"/>
  <anchor x="672" y="942" name="top"/>
  <outline>
    <contour>
      <point x="1197" y="-8" type="curve"/>
      <point x="1263" y="234" type="line"/>
      <point x="1184" y="248" type="line"/>
      <point x="1101" y="94" type="line"/>
      <point x="1078" y="89"/>
      <point x="1057" y="88"/>
      <point x="985" y="88" type="curve" smooth="yes"/>
      <point x="869" y="88" type="line" smooth="yes"/>
      <point x="810" y="88"/>
      <point x="788" y="88"/>
      <point x="754" y="91" type="curve"/>
      <point x="752" y="112"/>
      <point x="751" y="173"/>
      <point x="751" y="266" type="curve" smooth="yes"/>
      <point x="751" y="667" type="line" smooth="yes"/>
      <point x="751" y="767"/>
      <point x="752" y="839"/>
      <point x="754" y="855" type="curve"/>
      <point x="788" y="858"/>
      <point x="820" y="860"/>
      <point x="855" y="860" type="curve" smooth="yes"/>
      <point x="1001" y="860" type="line" smooth="yes"/>
      <point x="1027" y="860"/>
      <point x="1046" y="858"/>
      <point x="1065" y="853" type="curve"/>
      <point x="1121" y="717" type="line"/>
      <point x="1202" y="728" type="line"/>
      <point x="1166" y="948" type="line"/>
      <point x="1112" y="945"/>
      <point x="1040" y="942"/>
      <point x="979" y="942" type="curve" smooth="yes"/>
      <point x="459" y="942" type="line"/>
      <point x="454" y="874" type="line"/>
      <point x="601" y="852" type="line"/>
      <point x="584" y="910" type="line"/>
      <point x="52" y="89" type="line"/>
      <point x="-30" y="67" type="line"/>
      <point x="-25" y="0" type="line"/>
      <point x="263" y="0" type="line"/>
      <point x="266" y="67" type="line"/>
      <point x="166" y="89" type="line"/>
      <point x="640" y="852" type="line"/>
      <point x="592" y="826" type="line"/>
      <point x="592" y="269" type="line" smooth="yes"/>
      <point x="592" y="174"/>
      <point x="590" y="123"/>
      <point x="589" y="89" type="curve"/>
      <point x="489" y="67" type="line"/>
      <point x="492" y="0" type="line"/>
      <point x="1022" y="0" type="line" smooth="yes"/>
      <point x="1070" y="0"/>
      <point x="1129" y="-3"/>
    </contour>
    <contour>
      <point x="258" y="279" type="line"/>
      <point x="303" y="282"/>
      <point x="362" y="284"/>
      <point x="447" y="284" type="curve" smooth="yes"/>
      <point x="544" y="284"/>
      <point x="584" y="282"/>
      <point x="629" y="280" type="curve"/>
      <point x="629" y="373" type="line"/>
      <point x="587" y="370"/>
      <point x="529" y="369"/>
      <point x="447" y="369" type="curve" smooth="yes"/>
      <point x="362" y="369"/>
      <point x="317" y="370"/>
      <point x="282" y="373" type="curve"/>
    </contour>
    <contour>
      <point x="1009" y="327" type="line"/>
      <point x="1083" y="327" type="line"/>
      <point x="1083" y="642" type="line"/>
      <point x="1009" y="642" type="line"/>
      <point x="990" y="532" type="line"/>
      <point x="977" y="529"/>
      <point x="948" y="528"/>
      <point x="911" y="528" type="curve" smooth="yes"/>
      <point x="816" y="528" type="line" smooth="yes"/>
      <point x="784" y="528"/>
      <point x="755" y="529"/>
      <point x="725" y="531" type="curve"/>
      <point x="725" y="436" type="line"/>
      <point x="755" y="438"/>
      <point x="784" y="441"/>
      <point x="816" y="441" type="curve" smooth="yes"/>
      <point x="911" y="441" type="line" smooth="yes"/>
      <point x="948" y="441"/>
      <point x="977" y="438"/>
      <point x="990" y="436" type="curve"/>
    </contour>
  </outline>
</glyph>
<glyph name="multiply" format="2">
  <advance width="866"/>
  <unicode hex="00D7"/>
  <outline>
    <contour>
      <point x="690" y="741" type="line"/>
      <point x="99" y="154" type="line"/>
      <point x="178" y="73" type="line"/>
      <point x="767" y="661" type="line"/>
    </contour>
    <contour>
      <point x="178" y="741" type="line"/>
      <point x="99" y="661" type="line"/>
      <point x="690" y="73" type="line"/>
      <point x="767" y="154" type="line"/>
    </contour>
  </outline>
</glyph>
<glyph name="Thorn" format="2">
  <advance width="847"/>
  <unicode hex="00DE"/>
  <note>
Thorn
</note>
  <outline>
    <contour>
      <point x="80" y="0" type="line"/>
      <point x="468" y="0" type="line"/>
      <point x="473" y="70" type="line"/>
      <point x="341" y="89" type="line"/>
      <point x="340" y="105"/>
      <point x="337" y="147"/>
      <point x="337" y="194" type="curve" smooth="yes"/>
      <point x="337" y="699" type="line"/>
      <point x="410" y="699" type="line" smooth="yes"/>
      <point x="529" y="699"/>
      <point x="616" y="632"/>
      <point x="616" y="481" type="curve" smooth="yes"/>
      <point x="616" y="354"/>
      <point x="545" y="285"/>
      <point x="428" y="285" type="curve" smooth="yes"/>
      <point x="388" y="285"/>
      <point x="351" y="293"/>
      <point x="312" y="306" type="curve"/>
      <point x="312" y="218" type="line"/>
      <point x="346" y="211"/>
      <point x="386" y="205"/>
      <point x="430" y="205" type="curve" smooth="yes"/>
      <point x="637" y="205"/>
      <point x="788" y="324"/>
      <point x="788" y="502" type="curve" smooth="yes"/>
      <point x="788" y="678"/>
      <point x="662" y="776"/>
      <point x="434" y="776" type="curve" smooth="yes"/>
      <point x="301" y="776" type="line"/>
      <point x="337" y="725" type="line"/>
      <point x="337" y="786" type="line" smooth="yes"/>
      <point x="337" y="816"/>
      <point x="338" y="839"/>
      <point x="338" y="850" type="curve"/>
      <point x="438" y="874" type="line"/>
      <point x="433" y="942" type="line"/>
      <point x="72" y="942" type="line"/>
      <point x="67" y="874" type="line"/>
      <point x="166" y="850" type="line"/>
      <point x="171" y="837"/>
      <point x="174" y="751"/>
      <point x="174" y="609" type="curve" smooth="yes"/>
      <point x="174" y="330" type="line" smooth="yes"/>
      <point x="174" y="190"/>
      <point x="171" y="104"/>
      <point x="168" y="89" type="curve"/>
      <point x="75" y="67" type="line"/>
    </contour>
  </outline>
</glyph>
<glyph name="germandbls" format="2">
  <advance width="943"/>
  <unicode hex="00DF"/>
  <note>
germandbls
</note>
  <outline>
    <contour>
      <point x="659" y="-12" type="curve" smooth="yes"/>
      <point x="813" y="-12"/>
      <point x="918" y="73"/>
      <point x="918" y="200" type="curve" smooth="yes"/>
      <point x="918" y="425"/>
      <point x="581" y="410"/>
      <point x="581" y="585" type="curve" smooth="yes"/>
      <point x="581" y="696"/>
      <point x="731" y="786"/>
      <point x="731" y="918" type="curve" smooth="yes"/>
      <point x="731" y="1041"/>
      <point x="637" y="1120"/>
      <point x="478" y="1120" type="curve" smooth="yes"/>
      <point x="272" y="1120"/>
      <point x="144" y="977"/>
      <point x="144" y="770" type="curve" smooth="yes"/>
      <point x="144" y="605" type="line"/>
      <point x="147" y="309" type="line" smooth="yes"/>
      <point x="149" y="202"/>
      <point x="144" y="121"/>
      <point x="142" y="88" type="curve"/>
      <point x="59" y="64" type="line"/>
      <point x="62" y="0" type="line"/>
      <point x="385" y="0" type="line"/>
      <point x="390" y="64" type="line"/>
      <point x="306" y="88" type="line"/>
      <point x="301" y="126"/>
      <point x="298" y="210"/>
      <point x="296" y="333" type="curve" smooth="yes"/>
      <point x="293" y="828" type="line"/>
      <point x="293" y="961"/>
      <point x="356" y="1044"/>
      <point x="459" y="1044" type="curve" smooth="yes"/>
      <point x="545" y="1044"/>
      <point x="595" y="987"/>
      <point x="595" y="893" type="curve" smooth="yes"/>
      <point x="595" y="727"/>
      <point x="444" y="659"/>
      <point x="444" y="528" type="curve" smooth="yes"/>
      <point x="444" y="304"/>
      <point x="775" y="325"/>
      <point x="775" y="157" type="curve" smooth="yes"/>
      <point x="775" y="97"/>
      <point x="731" y="62"/>
      <point x="672" y="62" type="curve" smooth="yes"/>
      <point x="633" y="62"/>
      <point x="593" y="72"/>
      <point x="555" y="96" type="curve"/>
      <point x="528" y="211" type="line"/>
      <point x="446" y="211" type="line"/>
      <point x="451" y="38" type="line"/>
      <point x="510" y="6"/>
      <point x="589" y="-12"/>
    </contour>
    <contour>
      <point x="27" y="605" type="line"/>
      <point x="216" y="605" type="line"/>
      <point x="216" y="691" type="line"/>
      <point x="144" y="694" type="line"/>
      <point x="27" y="664" type="line"/>
    </contour>
  </outline>
</glyph>
<glyph name="ae" format="2">
  <advance width="1132"/>
  <unicode hex="00E6"/>
  <note>
ae
</note>
  <anchor x="563" y="0" name="bottom"/>
  <anchor x="563" y="694" name="top"/>
  <outline>
    <contour>
      <point x="324" y="-12" type="curve" smooth="yes"/>
      <point x="409" y="-12"/>
      <point x="473" y="20"/>
      <point x="579" y="141" type="curve"/>
      <point x="532" y="194" type="line"/>
      <point x="475" y="126"/>
      <point x="433" y="97"/>
      <point x="375" y="97" type="curve" smooth="yes"/>
      <point x="311" y="97"/>
      <point x="251" y="142"/>
      <point x="251" y="199" type="curve" smooth="yes"/>
      <point x="251" y="242"/>
      <point x="279" y="264"/>
      <point x="330" y="274" type="curve" smooth="yes"/>
      <point x="1075" y="407" type="line"/>
      <point x="1075" y="585"/>
      <point x="974" y="707"/>
      <point x="815" y="707" type="curve" smooth="yes"/>
      <point x="711" y="707"/>
      <point x="624" y="651"/>
      <point x="574" y="564" type="curve"/>
      <point x="617" y="564" type="line"/>
      <point x="581" y="661"/>
      <point x="479" y="707"/>
      <point x="361" y="707" type="curve"/>
      <point x="250" y="691"/>
      <point x="93" y="598"/>
      <point x="93" y="528" type="curve" smooth="yes"/>
      <point x="93" y="468"/>
      <point x="162" y="444"/>
      <point x="243" y="462" type="curve"/>
      <point x="248" y="539" type="line" smooth="yes"/>
      <point x="251" y="597"/>
      <point x="264" y="614"/>
      <point x="314" y="614" type="curve" smooth="yes"/>
      <point x="401" y="614"/>
      <point x="486" y="555"/>
      <point x="486" y="442" type="curve" smooth="yes"/>
      <point x="486" y="332" type="line" smooth="yes"/>
      <point x="486" y="128"/>
      <point x="619" y="-12"/>
      <point x="805" y="-12" type="curve" smooth="yes"/>
      <point x="922" y="-12"/>
      <point x="1020" y="44"/>
      <point x="1080" y="162" type="curve"/>
      <point x="1035" y="203" type="line"/>
      <point x="980" y="133"/>
      <point x="924" y="109"/>
      <point x="857" y="109" type="curve" smooth="yes"/>
      <point x="727" y="109"/>
      <point x="640" y="205"/>
      <point x="640" y="373" type="curve" smooth="yes"/>
      <point x="640" y="417" type="line" smooth="yes"/>
      <point x="640" y="552"/>
      <point x="707" y="633"/>
      <point x="796" y="633" type="curve" smooth="yes"/>
      <point x="879" y="633"/>
      <point x="927" y="564"/>
      <point x="927" y="452" type="curve" smooth="yes"/>
      <point x="927" y="409" type="line"/>
      <point x="953" y="455" type="line"/>
      <point x="296" y="341" type="line" smooth="yes"/>
      <point x="147" y="314"/>
      <point x="85" y="258"/>
      <point x="85" y="168" type="curve" smooth="yes"/>
      <point x="85" y="77"/>
      <point x="190" y="-12"/>
    </contour>
  </outline>
</glyph>
<glyph name="eth" format="2">
  <advance width="814"/>
  <unicode hex="00F0"/>
  <note>
eth
</note>
  <outline>
    <contour>
      <point x="613" y="589" type="curve"/>
      <point x="633" y="675" type="line"/>
      <point x="571" y="696"/>
      <point x="505" y="706"/>
      <point x="454" y="706" type="curve" smooth="yes"/>
      <point x="231" y="706"/>
      <point x="62" y="571"/>
      <point x="62" y="338" type="curve" smooth="yes"/>
      <point x="62" y="117"/>
      <point x="218" y="-12"/>
      <point x="409" y="-12" type="curve" smooth="yes"/>
      <point x="613" y="-12"/>
      <point x="751" y="144"/>
      <point x="751" y="436" type="curve" smooth="yes"/>
      <point x="751" y="731"/>
      <point x="555" y="1020"/>
      <point x="276" y="1104" type="curve"/>
      <point x="89" y="1104" type="line"/>
      <point x="86" y="1046" type="line"/>
      <point x="422" y="946"/>
      <point x="587" y="709"/>
      <point x="587" y="375" type="curve" smooth="yes"/>
      <point x="587" y="155"/>
      <point x="534" y="72"/>
      <point x="431" y="72" type="curve" smooth="yes"/>
      <point x="319" y="72"/>
      <point x="232" y="178"/>
      <point x="232" y="359" type="curve" smooth="yes"/>
      <point x="232" y="532"/>
      <point x="312" y="625"/>
      <point x="452" y="625" type="curve" smooth="yes"/>
      <point x="508" y="625"/>
      <point x="560" y="617"/>
    </contour>
    <contour>
      <point x="144" y="796" type="line"/>
      <point x="670" y="1048" type="line"/>
      <point x="635" y="1120" type="line"/>
      <point x="109" y="868" type="line"/>
    </contour>
  </outline>
</glyph>
<glyph name="divide" format="2">
  <advance width="866"/>
  <unicode hex="00F7"/>
  <outline>
    <contour>
      <point x="781" y="465" type="line"/>
      <point x="85" y="465" type="line"/>
      <point x="85" y="349" type="line"/>
      <point x="781" y="349" type="line"/>
    </contour>
    <contour>
      <point x="426" y="35" type="curve" smooth="yes"/>
      <point x="475" y="35"/>
      <point x="515" y="75"/>
      <point x="515" y="125" type="curve" smooth="yes"/>
      <point x="515" y="176"/>
      <point x="475" y="218"/>
      <point x="426" y="218" type="curve" smooth="yes"/>
      <point x="377" y="218"/>
      <point x="335" y="176"/>
      <point x="335" y="125" type="curve" smooth="yes"/>
      <point x="335" y="75"/>
      <point x="377" y="35"/>
    </contour>
    <contour>
      <point x="426" y="598" type="curve" smooth="yes"/>
      <point x="475" y="598"/>
      <point x="515" y="637"/>
      <point x="515" y="688" type="curve" smooth="yes"/>
      <point x="515" y="738"/>
      <point x="475" y="780"/>
      <point x="426" y="780" type="curve" smooth="yes"/>
      <point x="377" y="780"/>
      <point x="335" y="738"/>
      <point x="335" y="688" type="curve" smooth="yes"/>
      <point x="335" y="637"/>
      <point x="377" y="598"/>
    </contour>
  </outline>
</glyph>
<glyph name="thorn" format="2">
  <advance width="856"/>
  <unicode hex="00FE"/>
  <note>
thorn
</note>
  <outline>
    <contour>
      <point x="22" y="-353" type="line"/>
      <point x="412" y="-353" type="line"/>
      <point x="417" y="-287" type="line"/>
      <point x="285" y="-264" type="line"/>
      <point x="280" y="-242"/>
      <point x="277" y="-181"/>
      <point x="277" y="-89" type="curve" smooth="yes"/>
      <point x="277" y="14" type="line"/>
      <point x="319" y="-1"/>
      <point x="370" y="-11"/>
      <point x="417" y="-11" type="curve" smooth="yes"/>
      <point x="637" y="-11"/>
      <point x="792" y="155"/>
      <point x="792" y="369" type="curve" smooth="yes"/>
      <point x="792" y="571"/>
      <point x="662" y="707"/>
      <point x="492" y="707" type="curve" smooth="yes"/>
      <point x="407" y="707"/>
      <point x="332" y="662"/>
      <point x="279" y="587" type="curve"/>
      <point x="274" y="589" type="line"/>
      <point x="279" y="852"/>
      <point x="280" y="959"/>
      <point x="287" y="1091" type="curve"/>
      <point x="251" y="1115" type="line"/>
      <point x="0" y="1046" type="line"/>
      <point x="3" y="988" type="line"/>
      <point x="121" y="972" type="line"/>
      <point x="125" y="922"/>
      <point x="128" y="727"/>
      <point x="128" y="581" type="curve"/>
      <point x="125" y="36" type="line" smooth="yes"/>
      <point x="123" y="-160"/>
      <point x="120" y="-243"/>
      <point x="118" y="-264" type="curve"/>
      <point x="19" y="-290" type="line"/>
    </contour>
    <contour>
      <point x="423" y="78" type="curve" smooth="yes"/>
      <point x="367" y="78"/>
      <point x="314" y="94"/>
      <point x="277" y="123" type="curve"/>
      <point x="277" y="503" type="line"/>
      <point x="317" y="556"/>
      <point x="370" y="585"/>
      <point x="433" y="585" type="curve" smooth="yes"/>
      <point x="542" y="585"/>
      <point x="625" y="487"/>
      <point x="624" y="332" type="curve" smooth="yes"/>
      <point x="624" y="165"/>
      <point x="542" y="78"/>
    </contour>
  </outline>
</glyph>
<glyph name="idotless" format="2">
  <advance width="444"/>
  <unicode hex="0131"/>
  <note>
dotlessi
</note>
  <anchor x="223" y="0" name="bottom"/>
  <anchor x="316" y="0" name="ogonek"/>
  <anchor x="223" y="694" name="top"/>
  <outline>
    <contour>
      <point x="36" y="0" type="line"/>
      <point x="410" y="0" type="line"/>
      <point x="415" y="64" type="line"/>
      <point x="308" y="88" type="line"/>
      <point x="301" y="104"/>
      <point x="298" y="174"/>
      <point x="298" y="264" type="curve" smooth="yes"/>
      <point x="298" y="467" type="line" smooth="yes"/>
      <point x="298" y="552"/>
      <point x="301" y="613"/>
      <point x="308" y="678" type="curve"/>
      <point x="277" y="704" type="line"/>
      <point x="27" y="640" type="line"/>
      <point x="27" y="581" type="line"/>
      <point x="134" y="558" type="line"/>
      <point x="142" y="513"/>
      <point x="147" y="447"/>
      <point x="147" y="369" type="curve"/>
      <point x="147" y="255" type="line"/>
      <point x="146" y="146"/>
      <point x="142" y="99"/>
      <point x="139" y="88" type="curve"/>
      <point x="32" y="64" type="line"/>
    </contour>
  </outline>
</glyph>
<glyph name="OE" format="2">
  <advance width="1477"/>
  <unicode hex="0152"/>
  <note>
OE
</note>
  <anchor x="841" y="0" name="bottom"/>
  <anchor x="841" y="942" name="top"/>
  <outline>
    <contour>
      <point x="617" y="-14" type="curve" smooth="yes"/>
      <point x="698" y="-14"/>
      <point x="773" y="0"/>
      <point x="844" y="0" type="curve" smooth="yes"/>
      <point x="1194" y="0" type="line" smooth="yes"/>
      <point x="1243" y="0"/>
      <point x="1296" y="0"/>
      <point x="1369" y="-8" type="curve"/>
      <point x="1434" y="234" type="line"/>
      <point x="1356" y="248" type="line"/>
      <point x="1271" y="94" type="line"/>
      <point x="1250" y="89"/>
      <point x="1229" y="88"/>
      <point x="1157" y="88" type="curve" smooth="yes"/>
      <point x="1040" y="88" type="line" smooth="yes"/>
      <point x="998" y="88"/>
      <point x="966" y="89"/>
      <point x="926" y="94" type="curve"/>
      <point x="924" y="117"/>
      <point x="922" y="187"/>
      <point x="922" y="266" type="curve" smooth="yes"/>
      <point x="922" y="667" type="line" smooth="yes"/>
      <point x="922" y="754"/>
      <point x="924" y="836"/>
      <point x="926" y="853" type="curve"/>
      <point x="951" y="858"/>
      <point x="987" y="860"/>
      <point x="1025" y="860" type="curve" smooth="yes"/>
      <point x="1173" y="860" type="line" smooth="yes"/>
      <point x="1198" y="860"/>
      <point x="1218" y="858"/>
      <point x="1239" y="853" type="curve"/>
      <point x="1295" y="717" type="line"/>
      <point x="1373" y="728" type="line"/>
      <point x="1336" y="948" type="line"/>
      <point x="1264" y="942"/>
      <point x="1202" y="942"/>
      <point x="1150" y="942" type="curve" smooth="yes"/>
      <point x="828" y="942" type="line" smooth="yes"/>
      <point x="755" y="942"/>
      <point x="691" y="953"/>
      <point x="621" y="953" type="curve" smooth="yes"/>
      <point x="272" y="953"/>
      <point x="78" y="733"/>
      <point x="78" y="462" type="curve" smooth="yes"/>
      <point x="78" y="165"/>
      <point x="284" y="-14"/>
    </contour>
    <contour>
      <point x="637" y="81" type="curve" smooth="yes"/>
      <point x="414" y="81"/>
      <point x="276" y="234"/>
      <point x="276" y="484" type="curve" smooth="yes"/>
      <point x="276" y="714"/>
      <point x="401" y="861"/>
      <point x="613" y="861" type="curve" smooth="yes"/>
      <point x="664" y="861"/>
      <point x="712" y="855"/>
      <point x="752" y="842" type="curve"/>
      <point x="757" y="807"/>
      <point x="762" y="714"/>
      <point x="762" y="619" type="curve" smooth="yes"/>
      <point x="762" y="337" type="line" smooth="yes"/>
      <point x="762" y="219"/>
      <point x="759" y="134"/>
      <point x="755" y="99" type="curve"/>
      <point x="720" y="89"/>
      <point x="674" y="81"/>
    </contour>
    <contour>
      <point x="1181" y="327" type="line"/>
      <point x="1255" y="327" type="line"/>
      <point x="1255" y="642" type="line"/>
      <point x="1181" y="642" type="line"/>
      <point x="1162" y="531" type="line"/>
      <point x="1149" y="529"/>
      <point x="1121" y="528"/>
      <point x="1083" y="528" type="curve" smooth="yes"/>
      <point x="988" y="528" type="line" smooth="yes"/>
      <point x="956" y="528"/>
      <point x="924" y="529"/>
      <point x="893" y="531" type="curve"/>
      <point x="893" y="436" type="line"/>
      <point x="924" y="438"/>
      <point x="956" y="441"/>
      <point x="988" y="441" type="curve" smooth="yes"/>
      <point x="1083" y="441" type="line" smooth="yes"/>
      <point x="1121" y="441"/>
      <point x="1149" y="438"/>
      <point x="1162" y="434" type="curve"/>
    </contour>
  </outline>
</glyph>
<glyph name="oe" format="2">
  <advance width="1271"/>
  <unicode hex="0153"/>
  <note>
oe
</note>
  <anchor x="682" y="0" name="bottom"/>
  <anchor x="682" y="694" name="top"/>
  <outline>
    <contour>
      <point x="418" y="-12" type="curve" smooth="yes"/>
      <point x="608" y="-12"/>
      <point x="728" y="150"/>
      <point x="728" y="351" type="curve" smooth="yes"/>
      <point x="728" y="560"/>
      <point x="608" y="707"/>
      <point x="410" y="707" type="curve" smooth="yes"/>
      <point x="224" y="707"/>
      <point x="64" y="560"/>
      <point x="64" y="343" type="curve" smooth="yes"/>
      <point x="64" y="133"/>
      <point x="207" y="-12"/>
    </contour>
    <contour>
      <point x="436" y="70" type="curve" smooth="yes"/>
      <point x="330" y="70"/>
      <point x="235" y="181"/>
      <point x="235" y="372" type="curve" smooth="yes"/>
      <point x="235" y="539"/>
      <point x="304" y="627"/>
      <point x="409" y="627" type="curve" smooth="yes"/>
      <point x="521" y="627"/>
      <point x="600" y="503"/>
      <point x="600" y="319" type="curve" smooth="yes"/>
      <point x="600" y="162"/>
      <point x="531" y="70"/>
    </contour>
    <contour>
      <point x="942" y="-12" type="curve" smooth="yes"/>
      <point x="1059" y="-12"/>
      <point x="1160" y="44"/>
      <point x="1218" y="162" type="curve"/>
      <point x="1174" y="202" type="line"/>
      <point x="1117" y="133"/>
      <point x="1060" y="109"/>
      <point x="990" y="109" type="curve" smooth="yes"/>
      <point x="857" y="109"/>
      <point x="762" y="211"/>
      <point x="762" y="373" type="curve" smooth="yes"/>
      <point x="762" y="409" type="line" smooth="yes"/>
      <point x="762" y="547"/>
      <point x="834" y="633"/>
      <point x="929" y="633" type="curve" smooth="yes"/>
      <point x="1006" y="633"/>
      <point x="1070" y="577"/>
      <point x="1070" y="449" type="curve" smooth="yes"/>
      <point x="1070" y="409" type="line"/>
      <point x="1096" y="436" type="line"/>
      <point x="747" y="436" type="line"/>
      <point x="744" y="361" type="line"/>
      <point x="1214" y="361" type="line"/>
      <point x="1214" y="391" type="line" smooth="yes"/>
      <point x="1214" y="592"/>
      <point x="1107" y="706"/>
      <point x="945" y="707" type="curve" smooth="yes"/>
      <point x="762" y="709"/>
      <point x="622" y="553"/>
      <point x="622" y="348" type="curve" smooth="yes"/>
      <point x="622" y="125"/>
      <point x="759" y="-12"/>
    </contour>
  </outline>
</glyph>
<glyph name="florin" format="2">
  <advance width="586"/>
  <unicode hex="0192"/>
  <outline>
    <contour>
      <point x="110" y="-365" type="curve" smooth="yes"/>
      <point x="236" y="-365"/>
      <point x="353" y="-234"/>
      <point x="353" y="94" type="curve" smooth="yes"/>
      <point x="353" y="605" type="line"/>
      <point x="350" y="691" type="line"/>
      <point x="350" y="826" type="line" smooth="yes"/>
      <point x="350" y="972"/>
      <point x="390" y="1035"/>
      <point x="435" y="1052" type="curve"/>
      <point x="498" y="995" type="line" smooth="yes"/>
      <point x="525" y="969"/>
      <point x="548" y="958"/>
      <point x="578" y="958" type="curve" smooth="yes"/>
      <point x="613" y="958"/>
      <point x="639" y="979"/>
      <point x="639" y="1014" type="curve" smooth="yes"/>
      <point x="639" y="1073"/>
      <point x="570" y="1120"/>
      <point x="475" y="1120" type="curve" smooth="yes"/>
      <point x="321" y="1120"/>
      <point x="203" y="987"/>
      <point x="203" y="772" type="curve" smooth="yes"/>
      <point x="203" y="-8" type="line"/>
      <point x="203" y="-219"/>
      <point x="167" y="-280"/>
      <point x="150" y="-300" type="curve"/>
      <point x="85" y="-242" type="line" smooth="yes"/>
      <point x="60" y="-215"/>
      <point x="37" y="-205"/>
      <point x="4" y="-205" type="curve" smooth="yes"/>
      <point x="-29" y="-205"/>
      <point x="-53" y="-224"/>
      <point x="-53" y="-261" type="curve" smooth="yes"/>
      <point x="-53" y="-321"/>
      <point x="15" y="-365"/>
    </contour>
    <contour>
      <point x="85" y="605" type="line"/>
      <point x="527" y="605" type="line"/>
      <point x="527" y="691" type="line"/>
      <point x="315" y="691" type="line"/>
      <point x="203" y="694" type="line"/>
      <point x="162" y="680"/>
      <point x="126" y="670"/>
      <point x="85" y="664" type="curve"/>
    </contour>
  </outline>
</glyph>
<glyph name="ModTriangularColon" format="2">
  <advance width="326"/>
  <unicode hex="02D0"/>
  <anchor x="223" y="-100" name="L"/>
  <anchor x="223" y="1091" name="U"/>
  <outline>
    <contour>
      <point x="210" y="477" type="line"/>
      <point x="271" y="690" type="line"/>
      <point x="55" y="690" type="line"/>
      <point x="116" y="477" type="line"/>
    </contour>
    <contour>
      <point x="271" y="0" type="line"/>
      <point x="210" y="213" type="line"/>
      <point x="116" y="213" type="line"/>
      <point x="55" y="0" type="line"/>
    </contour>
  </outline>
</glyph>
<glyph name="circumflexcomb" format="2">
  <unicode hex="0302"/>
  <note>
uni0302
</note>
  <anchor x="481" y="694" name="_top"/>
  <anchor x="481" y="1102" name="top"/>
  <outline>
    <contour>
      <point x="714" y="797" type="line"/>
      <point x="548" y="1065" type="line"/>
      <point x="414" y="1065" type="line"/>
      <point x="248" y="797" type="line"/>
      <point x="321" y="773" type="line"/>
      <point x="531" y="1011" type="line"/>
      <point x="431" y="1011" type="line"/>
      <point x="642" y="773" type="line"/>
    </contour>
  </outline>
</glyph>
<glyph name="tildecomb" format="2">
  <unicode hex="0303"/>
  <note>
tildecomb
</note>
  <anchor x="481" y="694" name="_above"/>
  <anchor x="481" y="1102" name="above"/>
  <outline>
    <contour>
      <point x="704" y="1022" type="line"/>
      <point x="677" y="974"/>
      <point x="650" y="945"/>
      <point x="608" y="945" type="curve" smooth="yes"/>
      <point x="539" y="945"/>
      <point x="451" y="1030"/>
      <point x="370" y="1030" type="curve" smooth="yes"/>
      <point x="293" y="1030"/>
      <point x="232" y="966"/>
      <point x="200" y="868" type="curve"/>
      <point x="258" y="834" type="line"/>
      <point x="285" y="884"/>
      <point x="311" y="911"/>
      <point x="356" y="911" type="curve" smooth="yes"/>
      <point x="423" y="911"/>
      <point x="511" y="826"/>
      <point x="592" y="826" type="curve" smooth="yes"/>
      <point x="669" y="826"/>
      <point x="730" y="890"/>
      <point x="762" y="988" type="curve"/>
    </contour>
  </outline>
</glyph>
<glyph name="brevecomb" format="2">
  <unicode hex="0306"/>
  <note>
uni0306
</note>
  <anchor x="481" y="694" name="_top"/>
  <anchor x="481" y="1102" name="top"/>
  <outline>
    <contour>
      <point x="637" y="1086" type="line"/>
      <point x="624" y="967"/>
      <point x="568" y="903"/>
      <point x="484" y="903" type="curve" smooth="yes"/>
      <point x="406" y="903"/>
      <point x="349" y="967"/>
      <point x="332" y="1086" type="curve"/>
      <point x="255" y="1060" type="line"/>
      <point x="260" y="892"/>
      <point x="351" y="791"/>
      <point x="483" y="791" type="curve" smooth="yes"/>
      <point x="614" y="791"/>
      <point x="702" y="892"/>
      <point x="707" y="1060" type="curve"/>
    </contour>
  </outline>
</glyph>
<glyph name="ogonekcomb" format="2">
  <unicode hex="0328"/>
  <note>
uni0328
</note>
  <anchor x="495" y="0" name="_ogonek"/>
  <outline>
    <contour>
      <point x="412" y="-357" type="curve" smooth="yes"/>
      <point x="483" y="-357"/>
      <point x="542" y="-325"/>
      <point x="585" y="-277" type="curve"/>
      <point x="547" y="-229" type="line"/>
      <point x="513" y="-263"/>
      <point x="478" y="-285"/>
      <point x="438" y="-285" type="curve" smooth="yes"/>
      <point x="383" y="-285"/>
      <point x="346" y="-248"/>
      <point x="346" y="-192" type="curve" smooth="yes"/>
      <point x="346" y="-125"/>
      <point x="398" y="-60"/>
      <point x="495" y="0" type="curve"/>
      <point x="481" y="32" type="line"/>
      <point x="324" y="-25"/>
      <point x="224" y="-112"/>
      <point x="224" y="-207" type="curve" smooth="yes"/>
      <point x="224" y="-293"/>
      <point x="300" y="-357"/>
    </contour>
  </outline>
</glyph>
<glyph name="Omega" format="2">
  <advance width="1198"/>
  <unicode hex="03A9"/>
  <outline>
    <contour>
      <point x="91" y="-8" type="line"/>
      <point x="133" y="-3"/>
      <point x="203" y="0"/>
      <point x="279" y="0" type="curve" smooth="yes"/>
      <point x="515" y="0" type="line"/>
      <point x="524" y="69" type="line"/>
      <point x="398" y="199"/>
      <point x="322" y="362"/>
      <point x="322" y="513" type="curve" smooth="yes"/>
      <point x="322" y="735"/>
      <point x="426" y="868"/>
      <point x="598" y="868" type="curve" smooth="yes"/>
      <point x="770" y="868"/>
      <point x="874" y="735"/>
      <point x="874" y="513" type="curve" smooth="yes"/>
      <point x="874" y="362"/>
      <point x="802" y="199"/>
      <point x="674" y="69" type="curve"/>
      <point x="680" y="0" type="line"/>
      <point x="919" y="0" type="line" smooth="yes"/>
      <point x="995" y="0"/>
      <point x="1065" y="-3"/>
      <point x="1105" y="-8" type="curve"/>
      <point x="1176" y="250" type="line"/>
      <point x="1094" y="269" type="line"/>
      <point x="1007" y="97" type="line"/>
      <point x="762" y="97" type="line"/>
      <point x="780" y="72" type="line"/>
      <point x="954" y="182"/>
      <point x="1072" y="365"/>
      <point x="1072" y="537" type="curve" smooth="yes"/>
      <point x="1072" y="776"/>
      <point x="876" y="956"/>
      <point x="598" y="956" type="curve" smooth="yes"/>
      <point x="322" y="956"/>
      <point x="126" y="760"/>
      <point x="126" y="534" type="curve" smooth="yes"/>
      <point x="126" y="364"/>
      <point x="235" y="195"/>
      <point x="418" y="72" type="curve"/>
      <point x="436" y="97" type="line"/>
      <point x="189" y="97" type="line"/>
      <point x="104" y="269" type="line"/>
      <point x="22" y="250" type="line"/>
    </contour>
  </outline>
</glyph>
<glyph name="mu" format="2">
  <advance width="897"/>
  <unicode hex="03BC"/>
  <outline>
    <contour>
      <point x="760" y="123" type="line"/>
      <point x="755" y="157"/>
      <point x="751" y="226"/>
      <point x="751" y="330" type="curve" smooth="yes"/>
      <point x="751" y="449" type="line" smooth="yes"/>
      <point x="751" y="558"/>
      <point x="752" y="621"/>
      <point x="754" y="680" type="curve"/>
      <point x="725" y="704" type="line"/>
      <point x="484" y="640" type="line"/>
      <point x="484" y="581" type="line"/>
      <point x="593" y="558" type="line"/>
      <point x="597" y="520"/>
      <point x="601" y="452"/>
      <point x="601" y="375" type="curve" smooth="yes"/>
      <point x="601" y="197" type="line"/>
      <point x="560" y="131"/>
      <point x="500" y="105"/>
      <point x="449" y="105" type="curve" smooth="yes"/>
      <point x="357" y="105"/>
      <point x="295" y="168"/>
      <point x="295" y="293" type="curve" smooth="yes"/>
      <point x="296" y="444" type="line" smooth="yes"/>
      <point x="296" y="536"/>
      <point x="298" y="616"/>
      <point x="303" y="677" type="curve"/>
      <point x="269" y="704" type="line"/>
      <point x="27" y="640" type="line"/>
      <point x="27" y="581" type="line"/>
      <point x="136" y="558" type="line"/>
      <point x="139" y="515"/>
      <point x="144" y="455"/>
      <point x="144" y="377" type="curve" smooth="yes"/>
      <point x="144" y="149"/>
      <point x="121" y="-54"/>
      <point x="121" y="-234" type="curve" smooth="yes"/>
      <point x="121" y="-322"/>
      <point x="163" y="-365"/>
      <point x="219" y="-365" type="curve" smooth="yes"/>
      <point x="277" y="-365"/>
      <point x="316" y="-321"/>
      <point x="316" y="-247" type="curve" smooth="yes"/>
      <point x="316" y="-158"/>
      <point x="287" y="-46"/>
      <point x="261" y="110" type="curve"/>
      <point x="242" y="101" type="line"/>
      <point x="279" y="14"/>
      <point x="353" y="-12"/>
      <point x="412" y="-12" type="curve" smooth="yes"/>
      <point x="478" y="-12"/>
      <point x="537" y="17"/>
      <point x="600" y="109" type="curve"/>
      <point x="605" y="107" type="line"/>
      <point x="603" y="3" type="line"/>
      <point x="633" y="-17" type="line"/>
      <point x="863" y="40" type="line"/>
      <point x="863" y="97" type="line"/>
    </contour>
  </outline>
</glyph>
